<svg width="161" height="160" viewBox="0 0 161 160" fill="none" xmlns="http://www.w3.org/2000/svg">
<path d="M83.9931 39.2686L83.9865 39.2674L83.9798 39.267L77.6077 38.6704L77.6037 38.6702L77.5989 38.6701L71.2375 38.3909L71.233 38.3904L71.2262 38.5099L71.2238 38.3905L64.8966 38.4416L64.8918 38.4414L64.8866 38.4417L58.632 38.8427L58.6498 39.2024L71.2175 38.7514L96.5844 41.7461L108.896 45.1161L108.995 44.7695L102.89 42.9226L102.886 42.9213L102.881 42.9201L96.6618 41.3936L96.632 41.5098L96.6532 41.3914L90.3521 40.1764L90.3477 40.1759L90.3436 40.175L83.9931 39.2686Z" fill="#D8CDE0" stroke="#D8CDE0" stroke-width="0.693723"/>
<path d="M81.612 63.667L81.3485 63.327L81.2908 63.7536L80.7816 67.5117L77.2911 63.3023L77.026 62.9819L76.9735 63.3944L76.4453 67.5707L76.4218 67.758L76.6095 67.7733L80.8851 68.1228L85.1381 68.7335L89.348 69.605L89.8004 69.6986L89.5308 69.3236L85.9167 64.2895L85.6558 63.9259L85.5915 64.3691L85.0517 68.109L81.612 63.667Z" fill="#1F0231" stroke="#D8CDE0" stroke-width="0.693723"/>
<path d="M120.612 49.8362L120.737 49.4979L109.011 44.7752L109.001 44.7712L108.991 44.7684L96.6664 41.3946L96.5614 41.7396L120.612 49.8362Z" fill="#D8CDE0" stroke="#D8CDE0" stroke-width="0.693723"/>
<path d="M85.9491 64.4203L85.9752 64.2417L85.7962 64.216L81.6728 63.6241L81.6742 63.6134L81.4902 63.5979L81.0544 63.5355L81.076 63.5635L77.1677 63.2374L76.7402 63.2015L77.0143 63.5321L80.7671 68.058L81.0295 68.3745L81.0844 67.967L81.5908 64.2282L85.027 68.6658L85.2874 69.0022L85.3484 68.5813L85.9491 64.4203ZM90.174 65.1671L89.9162 64.7767L89.8452 65.239L89.2065 69.4007L89.1821 69.5597L89.3372 69.6024L93.4705 70.7351L93.9329 70.8617L93.6687 70.4622L90.174 65.1671Z" fill="#1F0231" stroke="#D8CDE0" stroke-width="0.693723"/>
<path d="M96.6167 41.749L96.6397 41.3898L71.2458 38.3916L71.2265 38.3896L71.2071 38.3916L46.4805 40.804L46.4962 41.1639L96.6167 41.749Z" fill="#D8CDE0" stroke="#D8CDE0" stroke-width="0.693723"/>
<path d="M72.6919 63.1354L72.4436 63.1296L72.4658 63.1546L68.6747 63.3102L68.4629 63.0833L68.437 63.3197L68.199 63.3296L68.4115 63.5564L67.9613 67.6885L67.9382 67.8979L68.1486 67.8882L72.2839 67.6957L72.4922 67.9187L72.5183 67.6952L76.5417 67.7718L76.7533 68.0112L76.7829 67.7761L77.0308 67.7809L76.8134 67.5348L77.3099 63.6106L81.4491 63.9563L85.6688 64.5619L89.2379 69.5333L89.4956 69.892L89.5624 69.4553L90.1303 65.7556L93.3287 70.6015L93.3156 70.6816L93.401 70.7114L93.6219 71.0457L93.6614 70.802L97.4775 72.1283L97.9471 72.2918L97.6909 71.865L94.3836 66.356L94.3993 66.2607L94.3125 66.2372L94.0962 65.8769L94.0492 66.1658L90.2258 65.1343L90.2276 65.1239L90.1287 65.1035L86.5288 60.0563L86.2677 59.6905L86.2035 60.1351L85.653 63.9455L82.1866 59.4293L81.9229 59.0856L81.865 59.5149L81.3466 63.3425L77.8295 59.0535L77.5635 58.7295L77.5108 59.1452L76.9941 63.233L73.0541 63.1436L73.0553 63.1306L72.93 63.1355L72.72 62.8975L72.6919 63.1354Z" fill="#1F0231" stroke="#D8CDE0" stroke-width="0.693723"/>
<path d="M120.602 49.8321L120.743 49.5001L114.973 46.9597L114.967 46.9577L114.962 46.9555L109.005 44.7731L108.876 45.1098L120.602 49.8321Z" fill="#D8CDE0" stroke="#D8CDE0" stroke-width="0.693723"/>
<path d="M86.5603 60.187L86.5864 60.0084L86.4075 59.9827L82.0692 59.3606L81.6309 59.2979L81.9004 59.649L85.6277 64.5043L85.8879 64.8434L85.9487 64.4203L86.5603 60.187Z" fill="#1F0231" stroke="#D8CDE0" stroke-width="0.693723"/>
<path d="M71.2427 38.7502L71.2189 38.3906L58.6374 38.8424L58.6259 38.8425L58.615 38.8445L46.4696 40.8056L46.5161 41.1633L71.2427 38.7502Z" fill="#D8CDE0" stroke="#D8CDE0" stroke-width="0.693723"/>
<path d="M82.1662 59.9764L82.1978 59.7431L86.2797 60.3288L89.8338 65.3112L89.8207 65.3983L89.9139 65.4234L90.1339 65.7323L90.1711 65.4928L94.078 66.5476L97.3477 71.9937L97.3347 72.0675L97.4121 72.1006L97.632 72.4677L97.6755 72.2143L101.275 73.7662L101.49 74.1648L101.541 73.8809L101.809 73.9962L101.593 73.5954L102.338 69.456L102.363 69.3141L102.23 69.2579L98.4546 67.6654L98.4563 67.6551L98.3781 67.6282L98.1634 67.23L98.1574 67.266L95.2668 62.4385L95.2928 62.4454L95.0734 62.1103L95.0885 62.0179L95.0013 61.9948L94.7853 61.6342L94.7805 61.6627L91.4849 56.6238L91.2277 56.2298L91.156 56.6951L90.566 60.5405L90.5623 60.5638L87.1926 55.8082L87.2081 55.7007L87.1062 55.6861L86.8904 55.381L86.8513 55.6496L82.8303 55.0735L82.8316 55.0635L82.723 55.054L82.5075 54.7709L82.4734 55.0224L82.2178 54.986L82.2374 55.0116L78.3284 54.6715L78.111 54.4029L78.0797 54.6499L77.8292 54.628L78.0485 54.8983L77.5327 58.9735L77.2796 58.9521L77.3003 58.9772L73.5552 58.8789L73.5568 58.8663L73.4327 58.8707L73.2217 58.6283L73.1938 58.8692L72.948 58.8629L72.969 58.8869L69.1434 59.0224L68.9307 58.7911L68.9046 59.0308L68.6688 59.0391L68.8787 59.2672L68.436 63.3301L64.4976 63.7635L64.2896 63.5526L64.2659 63.7889L64.0403 63.8137L64.2426 64.0186L63.8245 68.1763L63.8024 68.3993L64.0253 68.3736L68.0739 67.8978L68.2784 68.1048L68.3041 67.8703L68.528 67.8441L68.3289 67.6427L68.7619 63.6679L72.7756 63.5032L72.9848 63.7306L73.0115 63.5034L77.0687 63.5953L77.2809 63.8388L77.3108 63.6011L77.5565 63.6067L77.3416 63.3593L77.8164 59.6066L81.33 63.8917L81.5926 64.2119L81.6481 63.8015L82.1662 59.9764Z" fill="#1F0231" stroke="#D8CDE0" stroke-width="0.693723"/>
<path d="M96.7175 41.7194L97.2147 41.3951L96.6212 41.388L46.5003 40.8034L46.4729 41.162L88.2565 47.1859L88.3236 47.1955L88.3804 47.1586L96.7175 41.7194Z" fill="#D8CDE0" stroke="#D8CDE0" stroke-width="0.693723"/>
<path d="M74.0013 54.5954L73.7332 54.2836L73.6853 54.6918L73.1745 59.0328L73.1514 59.229L73.3489 59.2343L77.6854 59.3483L78.0915 59.3591L77.8269 59.0504L74.0013 54.5954ZM91.5124 56.7499L91.5385 56.5797L91.3698 56.5458L87.0397 55.6768L86.5946 55.5876L86.8573 55.9578L90.526 61.1357L90.7837 61.4999L90.8514 61.0591L91.5124 56.7499ZM99.1593 63.5511L99.1855 63.3986L99.0389 63.3497L94.9418 61.9793L94.4792 61.8251L94.7295 62.243L98.0983 67.869L98.3482 68.2866L98.4306 67.8065L99.1593 63.5511Z" fill="#1F0231" stroke="#D8CDE0" stroke-width="0.693723"/>
<path d="M96.7722 41.6639L96.5205 41.4176L88.1834 46.8567L87.8118 47.0993L88.2472 47.1845L92.6577 48.0501L92.7799 48.0741L92.8456 47.9687L96.7722 41.6639ZM58.6719 39.2007L58.6206 38.8436L52.474 39.6195L52.4682 39.6205L52.4616 39.6216L46.4636 40.8067L46.5272 41.1617L58.6719 39.2007Z" fill="#D8CDE0" stroke="#D8CDE0" stroke-width="0.693723"/>
<path d="M78.4158 54.8669L78.4407 54.6703L78.2424 54.6642L73.8694 54.5325L73.461 54.5203L73.7271 54.8304L77.5532 59.2858L77.8177 59.5937L77.8688 59.1905L78.4158 54.8669ZM102.526 69.7742L102.562 69.789L102.321 69.3427L102.082 68.84L102.074 68.8841L99.1405 63.435L98.8925 62.9743L98.8038 63.49L98.0754 67.7457L98.0512 67.8867L98.1827 67.9423L101.957 69.5345L101.227 73.593L101.204 73.7229L101.32 73.7844L104.999 75.7322L105.48 75.9867L105.246 75.4955L102.526 69.7742ZM64.5954 64.1152L68.6194 63.6732L68.9851 63.6326L68.7293 63.3684L64.9942 59.5093L64.7241 59.23L64.6851 59.6168L64.2646 63.7997L60.3479 64.5331L60.0035 64.5974L60.2562 64.8403L63.8792 68.3243L64.1464 68.5813L64.1837 68.2126L64.5954 64.1152Z" fill="#1F0231" stroke="#D8CDE0" stroke-width="0.693723"/>
<path d="M96.7988 41.559L96.7676 40.989L96.4661 41.4737L92.5394 47.7777L92.4089 47.9878L92.6484 48.0481L96.9815 49.1419L97.2191 49.202L97.2056 48.9571L96.7988 41.559Z" fill="#D8CDE0" stroke="#D8CDE0" stroke-width="0.693723"/>
<path d="M60.5063 64.58L60.2364 64.3205L60.2019 64.6939L59.8068 68.9694L59.7851 69.2097L60.0214 69.1631L64.0391 68.3711L64.3789 68.3042L64.1297 68.0643L60.5063 64.58ZM95.7027 57.6779L95.4867 57.3165L95.4392 57.6091L91.444 56.5647L87.785 51.3661L87.5237 50.9951L87.4594 51.4438L86.8878 55.3995L83.3662 50.7291L83.1022 50.3795L83.0435 50.8136L82.5054 54.7858L78.9341 50.3315L78.6684 49.9993L78.6149 50.4214L78.0584 54.822L78.0348 55.0079L78.2214 55.0244L82.6071 55.4058L86.9739 56.0313L91.2249 56.8846L94.6951 62.1905L94.6821 62.2728L94.7677 62.3015L94.988 62.638L95.0284 62.3888L98.9247 63.6918L99.3861 63.8457L99.137 63.4281L95.7742 57.7977L95.7898 57.7002L95.7027 57.6779ZM68.7791 63.5132L69.2295 59.3801L73.2763 59.237L73.4865 59.4695L73.5144 59.2286L73.7473 59.2204L73.5425 58.9936L74.0433 54.734L74.068 54.5267L73.8589 54.5326L69.6207 54.6583L69.407 54.4219L69.3803 54.6654L69.147 54.6724L69.3544 54.9017L68.9035 59.0408L64.8465 59.4556L64.4766 59.4931L64.7355 59.7601L68.4698 63.6193L68.7373 63.8954L68.7791 63.5132Z" fill="#1F0231" stroke="#D8CDE0" stroke-width="0.693723"/>
<path d="M96.7785 41.4842L96.4389 41.5788L96.8458 48.9769L96.8525 49.1017L96.9716 49.1391L101.194 50.4644L101.613 50.5961L101.407 50.2077L96.7785 41.4842Z" fill="#D8CDE0" stroke="#D8CDE0" stroke-width="0.693723"/>
<path d="M87.6673 51.2918L87.2304 51.2052L87.2494 51.2323L83.4244 50.6847L83.4258 50.6747L83.2425 50.6584L82.8145 50.5975L82.8333 50.6223L78.9957 50.2811L78.9967 50.2707L78.8043 50.2644L78.3878 50.2272L78.4069 50.251L74.4699 50.1172L74.2527 49.8615L74.224 50.1087L73.983 50.1011L74.1951 50.3515L73.685 54.6918L73.6619 54.8872L73.8587 54.8933L78.1507 55.0222L78.3639 55.2737L78.395 55.0294L78.636 55.037L78.4255 54.7887L78.9187 50.889L82.4865 55.3394L82.7498 55.6673L82.8058 55.2509L83.3417 51.2966L86.8598 55.9624L87.1206 56.3077L87.1823 55.8797L87.7507 51.9444L91.1445 56.767L91.1311 56.856L91.2246 56.8806L91.4441 57.1925L91.4817 56.9478L95.4683 57.9893L98.7923 63.5557L98.7794 63.6325L98.853 63.6628L101.972 69.4543L101.959 69.5233L102.023 69.5567L104.92 75.6501L105.158 76.15L105.26 75.6063L106.012 71.6178L106.272 71.7522L106.068 71.3218L106.082 71.2479L106.016 71.2139L103.294 65.4937L103.328 65.5079L103.118 65.1186L103.133 65.0373L103.063 65.0083L102.852 64.565L102.844 64.6084L99.9117 59.1588L99.9272 59.0668L99.8479 59.0404L99.6339 58.6428L99.581 58.953L95.7013 57.682L92.1956 52.2961L92.2114 52.1938L92.1167 52.1751L91.9002 51.8428L91.8573 52.1234L87.8401 51.3259L87.8415 51.3167L87.6673 51.2918Z" fill="#1F0231" stroke="#D8CDE0" stroke-width="0.693723"/>
<path d="M96.7566 41.4525L96.4596 41.6532L101.088 50.3764L101.12 50.4363L101.183 50.4605L105.258 52.0222L105.46 51.7373L96.7566 41.4525Z" fill="#D8CDE0" stroke="#D8CDE0" stroke-width="0.693723"/>
<path d="M65.0295 59.799L68.9972 59.3937L69.2041 59.612L69.2304 59.3697L69.4502 59.3475L69.2549 59.1418L69.7046 55.0164L73.7852 54.8957L73.9963 55.1325L74.0248 54.8887L74.256 54.8817L74.0526 54.6533L74.5439 50.4806L78.7824 50.6243L83.129 51.0108L83.3442 51.2817L83.3767 51.0421L87.5377 51.6373L87.7539 51.9266L87.7887 51.6835L91.8977 52.4991L95.3962 57.8735L95.3828 57.9569L95.4688 57.9852L95.6884 58.3225L95.7294 58.0703L99.599 59.3385L102.769 65.2302L105.691 71.3706L104.906 75.5393L104.884 75.6581L104.985 75.7243L108.327 77.895L108.803 78.2035L108.593 77.677L106.067 71.3281L106.868 67.0774L106.893 66.9437L106.772 66.8829L103.131 65.048L103.891 60.828L103.917 60.684L103.781 60.629L99.9258 59.0764L100.657 54.811L100.683 54.6566L100.534 54.6089L96.502 53.3153L96.5034 53.306L96.4158 53.2834L96.2006 52.9219L96.1961 52.9494L92.881 47.8323L92.8967 47.7292L92.8023 47.7109L92.5859 47.3771L92.5426 47.6596L88.485 46.8633L88.4864 46.8548L88.3852 46.8401L88.1685 46.5306L88.1306 46.7941L87.878 46.7443L87.8961 46.7699L84.03 46.2173L84.031 46.2077L83.9235 46.1985L83.7077 45.9096L83.6729 46.1666L83.4227 46.1303L83.4404 46.1541L79.4532 45.7928L79.2351 45.5173L79.2029 45.7698L78.9575 45.7476L79.1713 46.0178L78.6664 50.0108L75.0517 45.6816L74.7828 45.3598L74.7338 45.7762L74.223 50.118L70.1056 50.2158L69.8913 49.9747L69.8645 50.2214L69.6333 50.2269L69.8389 50.4582L69.3792 54.6749L65.3767 55.0522L65.1664 54.8307L65.1415 55.0744L64.9207 55.0956L65.1186 55.3044L64.699 59.481L60.8435 60.1641L60.6385 59.9622L60.6161 60.2039L60.4081 60.2411L60.5954 60.4261L60.2132 64.5693L56.5386 65.5874L56.3419 65.4073L56.3214 65.6478L56.1285 65.7008L56.3032 65.861L55.9459 70.0888L55.9238 70.3496L56.1761 70.2769L59.9393 69.1876L60.1328 69.3642L60.1549 69.1251L60.3455 69.07L60.1743 68.9136L60.5484 64.8621L64.3714 64.1468L64.5726 64.3451L64.5968 64.1044L64.8033 64.0658L64.6187 63.884L65.0295 59.799Z" fill="#1F0231" stroke="#D8CDE0" stroke-width="0.693723"/>
<path d="M83.8064 46.5499L79.3442 46.1446L79.3387 46.1445L79.3335 46.1433L46.4729 41.162L46.4718 41.1617L46.5232 40.8122L83.8064 46.5499ZM83.8064 46.5499L46.5232 40.8122L83.8064 46.5499ZM83.8064 46.5499L88.2565 47.1858L88.2569 47.1862L88.3083 46.829L88.3076 46.829L46.5295 40.806L46.5258 40.8055L83.8064 46.5499ZM46.5232 40.8122L46.5247 40.8052L46.5232 40.8122ZM96.6768 41.3979L96.6065 41.568L96.4818 41.685L105.186 51.9699L105.211 52.0003L105.247 52.0173L109.137 53.8245L109.338 53.5308L97.5845 42.2456L138.324 62.3299L138.507 62.0205L120.774 49.5176L120.752 49.5024L120.728 49.494L96.6768 41.3979Z" fill="#D8CDE0" stroke="#D8CDE0" stroke-width="0.693723"/>
<path d="M79.5383 45.9877L79.5636 45.7922L79.3664 45.7851L74.9195 45.6171L74.5147 45.6018L74.7746 45.9125L78.6546 50.5596L78.92 50.8774L78.9722 50.4668L79.5383 45.9877ZM109.438 73.5201L109.462 73.399L109.358 73.3333L105.976 71.194L105.507 70.8969L105.712 71.4126L108.258 77.8102L108.484 78.3791L108.602 77.7784L109.438 73.5201ZM104.075 61.1364L104.108 61.1495L103.874 60.7147L103.635 60.2127L103.627 60.2557L100.637 54.6952L100.389 54.2337L100.301 54.7498L99.5456 59.1588L99.5212 59.3024L99.6559 59.3567L103.51 60.9083L102.752 65.1164L102.729 65.2489L102.849 65.3095L106.609 67.2048L107.08 67.4418L106.853 66.9661L104.075 61.1364ZM65.4709 55.4057L69.5591 55.0199L69.9233 54.9857L69.6743 54.7178L65.8877 50.6433L65.6158 50.3512L65.5762 50.7479L65.1402 55.0847L61.2544 55.7331L61.048 55.5251L61.0252 55.7713L60.8189 55.8057L61.0048 55.9938L60.6036 60.341L60.5817 60.5761L60.8141 60.5352L64.8028 59.8285L65.0057 60.0334L65.0301 59.7886L65.2345 59.7524L65.052 59.5683L65.4709 55.4057Z" fill="#1F0231" stroke="#D8CDE0" stroke-width="0.693723"/>
<path d="M46.5259 40.8056L46.4685 41.1616L46.4715 41.1622L74.8834 45.9752L74.8949 45.9773L74.9066 45.9774L79.3535 46.1454L79.3873 45.7868L46.5288 40.8062L46.5259 40.8056Z" fill="#D8CDE0" stroke="#D8CDE0" stroke-width="0.693723"/>
<path d="M97.1423 48.8102L96.9271 48.4481L96.8793 48.744L92.7366 47.6982L92.2914 47.5858L92.5413 47.971L96.1098 53.4793L96.0962 53.5639L96.1829 53.5914L96.4021 53.9299L96.4437 53.6754L100.424 54.952L100.877 55.0975L100.634 54.6884L97.2143 48.9312L97.2302 48.8325L97.1423 48.8102ZM70.2061 50.4175L70.2296 50.1992L70.0112 50.2185L65.7407 50.5868L65.3727 50.6183L65.6241 50.8889L69.4106 54.9634L69.6791 55.2524L69.7218 54.8599L70.2061 50.4175ZM106.859 66.977L106.628 66.401L106.513 67.0103L105.703 71.3127L105.68 71.4334L105.784 71.4987L109.165 73.6377L109.635 73.9351L109.429 73.4187L106.859 66.977Z" fill="#1F0231" stroke="#D8CDE0" stroke-width="0.693723"/>
<path d="M130.711 55.6926L130.899 55.3844L126.133 52.3465L126.127 52.3431L126.121 52.3394L120.753 49.5052L120.579 49.8208L130.711 55.6926Z" fill="#D8CDE0" stroke="#D8CDE0" stroke-width="0.693723"/>
<path d="M60.9628 60.3744L60.9862 60.1175L60.7373 60.1835L56.9129 61.194L56.7137 61.0066L56.693 61.252L56.5018 61.3023L56.6748 61.4652L56.3111 65.7727L56.2888 66.0306L56.5383 65.9617L60.3317 64.9111L60.5267 65.0953L60.5493 64.851L60.7378 64.7983L60.569 64.6392L60.9628 60.3744ZM70.3574 45.6976L70.1283 45.7015L70.3318 45.9343L69.8472 50.3786L69.825 50.5832L70.0308 50.5786L74.3041 50.477L74.5154 50.719L74.5445 50.4714L74.7731 50.4657L74.5723 50.236L75.0923 45.8184L75.1164 45.6133L74.9101 45.6169L70.6 45.6934L70.3848 45.4472L70.3574 45.6976Z" fill="#1F0231" stroke="#D8CDE0" stroke-width="0.693723"/>
<path d="M46.5286 40.8062L46.4623 41.1604L70.4836 46.0519L70.5029 46.0561L70.5224 46.0556L74.9163 45.9773L74.9431 45.6194L46.5286 40.8062Z" fill="#D8CDE0" stroke="#D8CDE0" stroke-width="0.693723"/>
<path d="M109.434 73.4325L109.085 73.451L108.249 77.709L108.228 77.8156L108.313 77.8844L111.191 80.2L111.651 80.5708L111.476 80.0062L109.434 73.4325ZM104.689 56.3973L104.715 56.2518L104.577 56.1976L100.545 54.6129L100.087 54.4331L100.32 54.8662L103.553 60.8777L106.528 67.1213L106.766 67.6204L106.868 67.0775L107.693 62.6972L107.719 62.5624L107.596 62.5017L103.915 60.6945L104.689 56.3973ZM56.6702 65.8032L56.6948 65.5165L56.4259 65.6198L52.8508 66.9953L52.5794 67.0999L52.7941 67.2965L56.0044 70.2367L56.2749 70.4847L56.3057 70.1193L56.6702 65.8032Z" fill="#1F0231" stroke="#D8CDE0" stroke-width="0.693723"/>
<path d="M96.7374 41.4331L96.4936 41.699L109.088 53.7908L109.104 53.807L109.124 53.8182L112.673 55.8174L112.881 55.5245L96.7374 41.4331Z" fill="#D8CDE0" stroke="#D8CDE0" stroke-width="0.693723"/>
<path d="M101.371 50.142L101.158 49.7451L101.105 50.0583L97.0795 48.7949L96.6293 48.6541L96.8702 49.0592L100.29 54.8157L100.276 54.8947L100.355 54.9259L100.574 55.2938L100.619 55.0297L104.307 56.4794L103.536 60.7644L103.512 60.8984L103.634 60.9581L107.436 62.8257L107.902 63.0545L107.679 62.586L104.87 56.7006L104.902 56.7135L104.672 56.284L104.432 55.7827L104.425 55.825L101.435 50.2615L101.452 50.1672L101.371 50.142ZM53.0367 67.0306L52.7638 66.7804L52.7354 67.1494L52.3977 71.5102L52.3754 71.7991L52.6448 71.6913L56.1925 70.2711L56.4586 70.1645L56.2474 69.9711L53.0367 67.0306ZM110.29 69.1854L110.313 69.0629L110.207 68.9973L106.785 66.8904L106.321 66.6049L106.523 67.1108L109.094 73.5529L109.32 74.1206L109.439 73.5206L110.29 69.1854Z" fill="#1F0231" stroke="#D8CDE0" stroke-width="0.693723"/>
<path d="M46.5339 40.8069L46.4516 41.1579L66.1674 46.3851L66.1972 46.3932L66.2276 46.3906L70.5331 46.0549L70.5552 45.6984L46.5339 40.8069Z" fill="#D8CDE0" stroke="#D8CDE0" stroke-width="0.693723"/>
<path d="M65.9204 50.933L69.953 50.5853L70.1627 50.8152L70.1898 50.5651L70.4057 50.5464L70.2146 50.3369L70.6986 45.8948L70.7221 45.6788L70.5054 45.6954L66.2876 46.0243L66.0748 45.7908L66.0492 46.0431L65.8322 46.06L66.0263 46.2731L65.5904 50.6098L61.6734 51.2221L61.4652 51.0068L61.4422 51.2585L61.2376 51.2903L61.4215 51.4807L61.0244 55.7832L57.2933 56.7205L57.0922 56.5251L57.0711 56.7763L56.882 56.8236L57.0529 56.9895L56.6916 61.2642L53.1963 62.5535L52.9243 62.654L53.1348 62.8538L56.3665 65.9188L56.6382 66.1771L56.6697 65.8032L57.0306 61.5358L60.7304 60.5581L60.9279 60.7496L60.951 60.5001L61.1374 60.4504L60.9707 60.2883L61.3588 56.0815L65.2424 55.434L65.4468 55.6451L65.472 55.3954L65.6743 55.3615L65.4939 55.1751L65.9204 50.933ZM107.683 62.5964L107.453 62.0218L107.339 62.6301L106.513 67.0104L106.49 67.1322L106.596 67.1974L109.912 69.2387L109.141 73.1627L108.918 72.9882L109.076 73.4955L109.063 73.5598L109.106 73.5931L111.131 80.113L111.48 80.0957L112.295 76.0879L112.521 76.2644L112.362 75.7568L112.376 75.6928L112.332 75.6589L110.428 69.5564L110.483 69.5906L110.28 69.0836L107.683 62.5964ZM105.5 51.8854L105.527 51.7388L105.387 51.6851L101.312 50.1238L100.859 49.95L101.089 50.3773L104.352 56.4507L104.596 56.9061L104.688 56.3972L105.5 51.8854Z" fill="#1F0231" stroke="#D8CDE0" stroke-width="0.693723"/>
<path d="M46.5445 40.8095L46.435 41.1525L61.9698 46.9888L62.0133 47.0051L62.0593 46.9985L66.2396 46.3895L66.2599 46.0371L46.5445 40.8095Z" fill="#D8CDE0" stroke="#D8CDE0" stroke-width="0.693723"/>
<path d="M108.534 58.2367L108.56 58.1007L108.435 58.0408L104.589 56.2029L104.129 55.9827L104.348 56.4429L107.354 62.7413L107.591 63.2397L107.694 62.6968L108.534 58.2367Z" fill="#1F0231" stroke="#D8CDE0" stroke-width="0.693723"/>
<path d="M96.735 41.4309L96.5001 41.7049L96.5027 41.7066L112.644 55.796L112.651 55.8027L112.66 55.8085L115.734 57.929L115.952 57.6426L96.7374 41.4331L96.735 41.4309Z" fill="#D8CDE0" stroke="#D8CDE0" stroke-width="0.693723"/>
<path d="M53.3835 62.592L53.1087 62.3317L53.0792 62.7088L52.7357 67.1493L52.7136 67.4341L52.9803 67.3316L56.5555 65.9561L56.8222 65.8536L56.6145 65.657L53.3835 62.592ZM111.157 64.771L111.181 64.6462L111.073 64.5811L107.609 62.5086L107.151 62.2346L107.349 62.7304L109.945 69.2176L110.172 69.7842L110.29 69.1853L111.157 64.771ZM105.486 51.7756L105.245 51.2712L105.145 51.8217L104.334 56.3334L104.309 56.4689L104.433 56.5278L108.279 58.3661L108.74 58.5859L108.52 58.1257L105.486 51.7756Z" fill="#1F0231" stroke="#D8CDE0" stroke-width="0.693723"/>
<path d="M46.5553 41.155L46.4495 40.81L40.8267 42.3939L40.8183 42.3961L40.8104 42.3994L35.7769 44.3397L35.8983 44.6791L46.5553 41.155Z" fill="#D8CDE0" stroke="#D8CDE0" stroke-width="0.693723"/>
<path d="M112.361 75.7641L113.243 71.4297L113.266 71.3186L113.176 71.25L110.222 69.0068L109.773 68.666L109.941 69.2041L111.991 75.7759L111.127 80.0234L111.107 80.1174L111.175 80.1855L113.574 82.6289L114.019 83.0817L113.878 82.4628L112.361 75.7641ZM66.393 46.229L66.4163 45.9993L66.1879 46.0327L62.1001 46.6282L61.8904 46.4059L61.8669 46.6621L61.6641 46.6912L61.8462 46.8842L61.4413 51.2695L57.6817 52.164L57.4784 51.961L57.4564 52.2178L57.2694 52.262L57.4382 52.431L57.0603 56.9041L57.0392 57.1561L57.2839 57.0947L61.1372 56.1266L61.3365 56.3254L61.3601 56.07L61.5448 56.0237L61.3798 55.8589L61.7754 51.5712L65.6899 50.9593L65.8956 51.1773L65.9214 50.9226L66.122 50.8913L65.9437 50.7025L66.393 46.229ZM53.0949 67.1775L53.1199 66.8531L52.832 67.0038L49.8278 68.5696L49.6425 68.3878L49.6221 68.6769L49.4914 68.7449L49.6091 68.8604L49.301 73.1855L49.2779 73.5131L49.5668 73.3569L52.5467 71.7458L52.7277 71.9238L52.7501 71.6357L52.8785 71.5663L52.7643 71.454L53.0949 67.1775ZM108.524 58.1362L108.294 57.5631L108.179 58.1698L107.339 62.63L107.316 62.7536L107.424 62.8181L110.887 64.8905L111.347 65.1656L111.147 64.6688L108.524 58.1362Z" fill="#1F0231" stroke="#D8CDE0" stroke-width="0.693723"/>
<path d="M46.5622 40.8151L46.4077 41.1396L57.9266 47.8771L57.988 47.9132L58.0572 47.8974L62.073 46.9962L62.6625 46.864L62.097 46.6514L46.5622 40.8151Z" fill="#D8CDE0" stroke="#D8CDE0" stroke-width="0.693723"/>
<path d="M111.152 64.6822L110.803 64.7014L109.936 69.1157L109.914 69.226L110.004 69.2939L112.957 71.5372L113.407 71.8789L113.239 71.3397L111.152 64.6822Z" fill="#1F0231" stroke="#D8CDE0" stroke-width="0.693723"/>
<path d="M138.369 62.3453L138.483 62.0064L96.6988 41.407L96.5029 41.7067L115.72 57.9184L115.756 57.9487L115.802 57.9575L138.369 62.3453Z" fill="#D8CDE0" stroke="#D8CDE0" stroke-width="0.693723"/>
<path d="M57.4195 56.9349L57.4431 56.657L57.1799 56.7494L53.5488 58.0304L53.2762 58.1262L53.4824 58.3291L56.7357 61.5226L57.0091 61.7915L57.0413 61.4091L57.4195 56.9349ZM109.39 53.6943L109.416 53.5565L109.289 53.4975L105.399 51.6904L104.944 51.4791L105.16 51.9314L108.194 58.2811L108.432 58.7787L108.534 58.2365L109.39 53.6943Z" fill="#1F0231" stroke="#D8CDE0" stroke-width="0.693723"/>
<path d="M138.299 62.3156L138.522 62.0324L130.921 55.4008L130.907 55.3893L130.892 55.3808L120.76 49.5091L120.566 49.8124L138.299 62.3156Z" fill="#D8CDE0" stroke="#D8CDE0" stroke-width="0.693723"/>
<path d="M53.735 58.0713L53.4586 57.8004L53.4287 58.1864L53.0869 62.6073L50.1508 64.0797L49.9628 63.887L49.9417 64.1846L49.8126 64.2493L49.9287 64.3681L49.6146 68.7771L49.5917 69.0991L49.8783 68.95L52.8799 67.3854L53.0641 67.5739L53.0871 67.2773L53.2139 67.2113L53.1013 67.0956L53.4298 62.8523L56.9241 61.5634L57.191 61.4646L56.9879 61.2652L53.735 58.0713ZM114.719 78.5304L114.924 78.7323L114.795 78.168L114.808 78.1104L114.775 78.0785L113.251 71.3915L114.149 66.9761L114.172 66.8635L114.08 66.795L111.179 64.6589L111.991 60.5229L112.226 60.6596L112.05 60.2223L112.065 60.1488L112.007 60.1151L109.38 53.5933L109.15 53.0217L109.036 53.6274L108.226 57.9193L107.994 57.7843L108.169 58.2216L108.156 58.2955L108.212 58.3281L110.81 64.7969L112.88 71.4033L112.066 75.404L111.865 75.2046L111.992 75.7682L111.981 75.8258L112.012 75.8574L113.527 82.5426L113.879 82.5394L114.719 78.5304ZM62.2127 46.8367L62.2355 46.5898L61.9937 46.644L58.0766 47.5232L57.8708 47.3122L57.8487 47.5745L57.6633 47.6161L57.8309 47.7881L57.4453 52.3476L57.4244 52.5963L57.6667 52.5384L61.5511 51.614L61.7523 51.8208L61.7764 51.5602L61.9594 51.5166L61.7957 51.3488L62.2127 46.8367Z" fill="#1F0231" stroke="#D8CDE0" stroke-width="0.693723"/>
<path d="M54.2007 49.0255L54.2783 49.1039L54.3835 49.0702L58.0726 47.8931L58.4579 47.7699L58.1089 47.5657L46.5895 40.8279L46.37 41.1103L54.2007 49.0255Z" fill="#D8CDE0" stroke="#D8CDE0" stroke-width="0.693723"/>
<path d="M109.046 53.7283L111.675 60.2577L110.803 64.7013L110.781 64.8135L110.873 64.8813L113.773 67.017L112.955 71.0375L112.757 70.8485L112.882 71.3961L112.87 71.4552L112.903 71.4867L114.427 78.1711L113.526 82.4655L113.51 82.5455L113.558 82.6105L115.459 85.1597L115.782 85.0262L114.794 78.1757L115.646 74.1106L115.847 74.3019L115.721 73.7541L115.734 73.6946L115.7 73.6627L114.257 67.3734L114.31 67.4128L114.159 66.9306L115.072 62.4394L115.096 62.3242L115 62.2566L112.062 60.1609L112.939 55.6946L112.965 55.5668L112.851 55.5026L109.301 53.5038L108.854 53.2517L109.046 53.7283ZM57.805 52.3778L57.828 52.1044L57.5679 52.1919L54.0151 53.386L53.8163 53.1842L53.7948 53.4598L53.6347 53.5138L53.7794 53.6607L53.4373 58.0828L50.4807 59.505L50.2892 59.3014L50.2678 59.6079L50.1401 59.6695L50.2544 59.791L49.9346 64.2867L49.9121 64.6028L50.195 64.4609L53.2198 62.9442L53.4071 63.1439L53.4308 62.8381L53.5559 62.7754L53.4447 62.6575L53.7796 58.3314L57.1922 57.1278L57.3867 57.3257L57.41 57.0512L57.5675 56.9955L57.4267 56.852L57.805 52.3778ZM49.9749 68.8028L50.0017 68.424L49.6913 68.6426L47.1742 70.4145L46.996 70.2202L46.9741 70.5551L46.8765 70.6237L46.9635 70.7182L46.6743 75.0999L46.6488 75.4842L46.9603 75.2574L49.4571 73.439L49.6314 73.629L49.6549 73.2949L49.7505 73.2252L49.6663 73.1339L49.9749 68.8028Z" fill="#1F0231" stroke="#D8CDE0" stroke-width="0.693723"/>
<path d="M50.9482 50.3924L51.0244 50.5474L51.1822 50.4781L54.4012 49.0639L54.6413 48.9583L54.4568 48.7717L46.6266 40.8568L46.3365 41.0638L50.9482 50.3924Z" fill="#D8CDE0" stroke="#D8CDE0" stroke-width="0.693723"/>
<path d="M116.638 81.0941L116.82 81.3313L116.726 80.6822L116.737 80.632L116.714 80.6033L115.715 73.7298L115.359 73.7187L114.514 77.7496L114.334 77.5157L114.427 78.1638L114.417 78.2139L114.439 78.2423L115.424 85.0775L115.779 85.09L116.638 81.0941ZM112.934 55.6058L112.585 55.6254L111.686 60.2054L111.663 60.3191L111.757 60.3867L114.791 62.5496L115.23 62.8632L115.067 62.3488L112.934 55.6058ZM58.1966 47.7363L58.2199 47.4673L57.9625 47.5495L54.2734 48.7266L53.999 48.8144L54.1977 49.0231L57.4945 52.4873L57.7707 52.7777L57.8046 52.3779L58.1966 47.7363Z" fill="#1F0231" stroke="#D8CDE0" stroke-width="0.693723"/>
<path d="M46.5725 41.1482L46.4421 40.8125L35.7847 44.3371L35.7655 44.3435L35.7479 44.3535L27.6057 49.28L27.7732 49.5988L46.5725 41.1482Z" fill="#D8CDE0" stroke="#D8CDE0" stroke-width="0.693723"/>
<path d="M50.2941 64.3126L50.3206 63.9418L50.0129 64.1504L47.3465 65.9614L47.1779 66.0758L47.3118 66.2291L49.6592 68.909L49.9438 69.2344L49.9747 68.8031L50.2941 64.3126ZM54.4591 48.7746L54.1802 48.481L54.149 48.8847L53.7856 53.5789L53.7643 53.8504L54.023 53.7638L57.6827 52.534L57.9508 52.444L57.7559 52.2387L54.4591 48.7746Z" fill="#1F0231" stroke="#D8CDE0" stroke-width="0.693723"/>
<path d="M138.285 62.3038L138.529 62.0393L135.064 58.6366L135.057 58.6292L135.049 58.6229L130.913 55.3946L130.683 55.6727L138.285 62.3038Z" fill="#D8CDE0" stroke="#D8CDE0" stroke-width="0.693723"/>
<path d="M116.59 69.6075L116.786 69.7888L116.664 69.257L116.677 69.1956L116.642 69.1638L115.08 62.4006L116.013 57.8161L116.037 57.6994L115.938 57.6316L112.864 55.5115L112.432 55.213L112.59 55.7141L114.71 62.4131L113.86 66.59L113.666 66.4112L113.788 66.9423L113.775 67.0036L113.809 67.0347L115.359 73.7889L116.36 80.6696L115.427 85.0139L115.413 85.0775L115.443 85.1353L116.819 87.768L117.159 87.673L116.725 80.6895L117.677 76.2549L117.696 76.1712L117.642 76.1042L115.73 73.7098L116.59 69.6075ZM47.5831 65.9914L47.2963 65.6639L47.2681 66.0984L46.9726 70.572L44.8754 72.6068L44.7594 72.7198L44.8589 72.8476L46.7123 75.2223L47.0028 75.5953L47.0341 75.1235L47.3226 70.7511L49.8987 68.9374L50.0625 68.8221L49.9306 68.6713L47.5831 65.9914ZM54.1451 53.6068L54.1691 53.3006L53.89 53.429L50.8165 54.8439L50.6219 54.6291L50.5994 54.9444L50.473 55.0024L50.5864 55.1272L50.2601 59.7119L50.2381 60.0221L50.518 59.8873L53.5658 58.421L53.7562 58.632L53.7806 58.3177L53.9044 58.2581L53.7948 58.1367L54.1451 53.6068Z" fill="#1F0231" stroke="#D8CDE0" stroke-width="0.693723"/>
<path d="M48.2042 51.9822L48.2486 52.2417L48.4747 52.1058L51.203 50.4671L51.3455 50.3815L51.2717 50.2331L46.6601 40.9037L46.3209 41.0141L48.2042 51.9822Z" fill="#D8CDE0" stroke="#D8CDE0" stroke-width="0.693723"/>
<path d="M45.2426 72.7534L47.1258 70.926L47.2957 71.1549L47.3235 70.734L47.3868 70.6729L47.3325 70.5989L47.6218 66.2103L50.0804 64.5406L50.2626 64.7575L50.2879 64.3996L50.3806 64.3371L50.299 64.2398L50.587 60.1971L50.6196 59.7378L50.6454 59.3755L50.9436 55.1826L53.9181 53.8133L54.112 54.0359L54.1371 53.7123L54.2591 53.6561L54.1509 53.5317L54.5083 48.9128L54.5312 48.6125L54.2561 48.7334L51.1587 50.0943L50.9606 49.8671L50.9374 50.1917L50.8126 50.2462L50.9244 50.3744L50.5985 54.9595L47.9682 56.6094L47.7967 56.717L47.9234 56.875L50.1751 59.6828L47.7885 61.2424L47.6024 61.0205L47.579 61.3793L47.4844 61.4408L47.5683 61.541L47.2723 66.0275L45.3091 67.8694L45.1353 67.6348L45.1094 68.0566L45.0442 68.1175L45.1008 68.1936L44.8503 72.2506L44.821 72.7257L44.792 73.1903L44.5427 77.2359L44.5131 77.7121L44.85 77.3747L46.9817 75.2393L47.0941 75.1264L46.9961 75.0008L45.2426 72.7534ZM116.294 69.2608L116.285 69.3069L115.359 73.7189L115.342 73.8021L115.395 73.8684L117.307 76.2629L116.367 80.638L116.353 80.7034L116.366 80.7271L116.799 87.6956L117.155 87.7228L118.124 83.3007L118.138 83.2353L118.125 83.2113L117.717 76.7769L117.776 76.851L117.685 76.2232L118.576 72.0741L118.751 72.2852L118.661 71.6785L118.672 71.625L118.648 71.5963L117.691 65.1429L117.744 65.1905L117.624 64.6744L117.637 64.6115L118.595 60.0428L118.617 59.9387L118.536 59.8693L115.954 57.6437L115.535 57.2831L115.651 57.7828L114.781 62.0593L114.592 61.8902L114.711 62.4056L114.698 62.4684L114.732 62.4996L116.294 69.2608Z" fill="#1F0231" stroke="#D8CDE0" stroke-width="0.693723"/>
<path d="M35.9346 44.6622L35.7585 44.3482L31.3496 46.6393L31.3388 46.645L31.3289 46.6521L27.5954 49.2867L27.7927 49.5883L35.9346 44.6622Z" fill="#D8CDE0" stroke="#D8CDE0" stroke-width="0.693723"/>
<path d="M48.2046 56.6496L47.9142 56.2874L47.884 56.7503L47.573 61.4689L47.5489 61.8293L47.8512 61.632L50.5383 59.8763L50.7046 59.7675L50.5802 59.6122L48.2046 56.6496ZM118.128 83.2659L117.771 83.2236L116.802 87.6457L116.793 87.6918L116.806 87.7372L117.627 90.4246L117.98 90.3758L118.128 83.2659Z" fill="#1F0231" stroke="#D8CDE0" stroke-width="0.693723"/>
<path d="M138.384 62.3473L138.438 61.9911L115.871 57.6033L115.204 57.4735L115.719 57.9167L118.301 60.142L118.344 60.1786L118.4 60.1851L138.384 62.3473Z" fill="#D8CDE0" stroke="#D8CDE0" stroke-width="0.693723"/>
<path d="M45.1809 72.7479L45.2203 72.1149L45.4603 68.2217L47.42 66.3836L47.594 66.6311L47.6232 66.1933L47.6856 66.1347L47.6319 66.0586L47.933 61.4931L47.9622 61.0482L47.632 61.3473L45.6041 63.1824L45.4261 62.9292L45.3988 63.3681L45.3349 63.4259L45.3905 63.5046L45.1082 68.0758L43.5114 70.2627L43.4427 70.3569L43.5005 70.4579L44.7876 72.7261L43.3964 74.6931L43.2381 74.4298L43.2071 74.9601L43.1692 75.0142L43.2008 75.0675L42.9364 79.5757L42.8987 80.2222L43.2652 79.6884L44.7123 77.5804L44.8669 77.8369L44.8995 77.308L44.937 77.2536L44.9062 77.2024L45.1435 73.3532L45.1809 72.7479ZM118.974 85.8749L119.115 78.776L119.126 78.7262L119.112 78.7021L118.659 71.6863L119.573 67.4332L119.744 67.6322L119.656 67.0465L119.668 66.9911L119.643 66.9625L118.597 59.9793L118.242 59.9686L117.338 64.2817L117.17 64.0858L117.257 64.6713L117.245 64.7266L117.269 64.7542L118.295 71.6669L117.325 76.1792L117.31 76.2462L117.324 76.2698L117.766 83.2482L117.761 83.2709L117.767 83.2883L117.62 90.3684L117.976 90.411L118.969 85.9406L118.98 85.8927L118.974 85.8749ZM51.2898 50.3258L51.3141 49.9798L51.0168 50.1584L48.4266 51.7141L48.2328 51.462L48.2076 51.8452L48.1153 51.9011L48.1969 52.0077L47.8844 56.7503L47.8611 57.1022L48.1598 56.9149L50.7283 55.3036L50.9178 55.5496L50.9452 55.1678L51.0356 55.1109L50.9564 55.008L51.2898 50.3258Z" fill="#1F0231" stroke="#D8CDE0" stroke-width="0.693723"/>
<path d="M138.405 62.3483L138.422 61.9887L118.438 59.8265L117.971 59.7762L118.284 60.1264L120.353 62.4386L120.408 62.4994L120.489 62.4984L138.405 62.3483Z" fill="#D8CDE0" stroke="#D8CDE0" stroke-width="0.693723"/>
<path d="M119.987 81.3154L120.122 74.1811L120.133 74.1297L121.144 69.5135L121.16 69.4425L121.122 69.3806L119.665 67.0079L120.664 62.3562L120.684 62.2666L120.622 62.1981L118.553 59.8859L118.151 59.4362L118.241 60.0325L119.29 67.0353L118.302 71.635L118.287 71.7038L118.301 71.7274L118.754 78.7414L118.749 78.7652L118.755 78.7826L118.613 85.88L117.624 90.3329L117.619 90.3601L117.621 90.3876L117.852 93.0994L118.211 93.1033L118.972 85.9303L119.982 81.3822L119.993 81.3331L119.987 81.3154ZM43.8144 70.2801L43.5131 69.7498L43.4774 70.3587L43.2066 74.9805L42.1676 77.4187L42.1394 77.4852L42.1513 77.517L41.8914 82.0975L42.2381 82.1766L43.2835 79.6557L43.311 79.59L43.2992 79.5589L43.5615 75.0847L45.1489 72.8408L45.2148 72.7475L45.1585 72.6478L43.8144 70.2801ZM48.2448 56.7741L48.2731 56.3418L47.9463 56.6264L45.9053 58.4039L45.7227 58.1318L45.6944 58.588L45.6311 58.6429L45.6858 58.7242L45.3982 63.3877L43.7921 65.5155L43.7225 65.6075L43.7766 65.7094L45.1263 68.2248L45.4264 68.7835L45.465 68.1506L45.7498 63.5373L47.7198 61.7543L47.8985 62.0207L47.9287 61.5655L47.9901 61.5103L47.9374 61.4315L48.2448 56.7741Z" fill="#1F0231" stroke="#D8CDE0" stroke-width="0.693723"/>
<path d="M138.43 62.3466L138.402 61.9881L120.486 62.1378L120.159 62.1405L120.336 62.4158L121.863 64.7937L121.926 64.8922L122.042 64.8746L138.43 62.3466Z" fill="#D8CDE0" stroke="#D8CDE0" stroke-width="0.693723"/>
<path d="M120.668 62.3061L120.312 62.28L119.297 67.0027L119.282 67.0733L119.32 67.1348L120.815 69.5687L121.148 69.4623L120.668 62.3061ZM44.0947 65.5387L43.793 64.9764L43.7556 65.6133L43.4796 70.3259L42.4356 72.707L42.4067 72.772L42.4301 72.839L43.2144 75.0814L43.5643 75.0327L43.8346 70.4323L45.431 68.2457L45.4977 68.1539L45.4443 68.0541L44.0947 65.5387ZM48.5615 51.9632L48.5897 51.5427L48.2662 51.8128L46.2121 53.5314L46.0245 53.2385L45.9955 53.7124L45.9332 53.7647L45.9869 53.8486L45.69 58.663L45.6634 59.0934L45.9884 58.81L48.0255 57.0352L48.2084 57.3217L48.2396 56.8484L48.3004 56.7954L48.2487 56.7148L48.5615 51.9632ZM119.22 88.6021L119.227 88.5742L119.225 88.5639L119.985 81.3616L119.63 81.3037L118.618 85.8623L118.611 85.8898L118.612 85.9004L117.853 93.0649L118.208 93.1238L119.22 88.6021Z" fill="#1F0231" stroke="#D8CDE0" stroke-width="0.693723"/>
<path d="M142.934 69.5017L143.245 69.3195L141.301 65.6392L141.294 65.6256L141.285 65.6135L138.546 62.058L138.252 62.266L142.934 69.5017Z" fill="#D8CDE0" stroke="#D8CDE0" stroke-width="0.693723"/>
<path d="M121.014 76.7334L121.025 76.6828L121.019 76.6651L121.148 69.4954L122.191 64.7348L122.207 64.6616L122.166 64.5987L120.639 62.2205L120.308 62.3302L120.786 69.4607L119.765 74.1212L119.754 74.171L119.761 74.1887L119.625 81.3396L119.982 81.3819L121.014 76.7334ZM42.7703 72.7201L42.4201 72.7691L42.1528 77.4791L42.4989 77.5598L43.5501 75.0926L43.5776 75.0284L43.5546 74.9625L42.7703 72.7201ZM46.0494 58.6853L46.0851 58.1058L45.7271 58.563L44.0774 60.673L44.0066 60.7632L44.0582 60.8656L45.4133 63.5342L45.7134 64.1246L45.7544 63.4635L46.0494 58.6853Z" fill="#1F0231" stroke="#D8CDE0" stroke-width="0.693723"/>
<path d="M48.4495 52.1185L48.5838 52.0635L48.5589 51.9208L46.676 40.9531L46.6216 40.6373L46.3799 40.8475L20.8926 63.0147L21.0793 63.3179L48.4495 52.1185Z" fill="#D8CDE0" stroke="#D8CDE0" stroke-width="0.693723"/>
<path d="M44.3797 60.7023L44.0776 60.1079L44.0387 60.7737L43.7547 65.6132L43.7201 66.2078L44.0787 65.7322L45.7178 63.5612L45.7857 63.4711L45.7349 63.3709L44.3797 60.7023Z" fill="#1F0231" stroke="#D8CDE0" stroke-width="0.693723"/>
<path d="M46.6166 41.1197L46.4245 40.8193L27.6252 49.2699L27.5658 49.2967L27.5369 49.3555L20.8492 63.0716L21.1293 63.2868L46.6166 41.1197ZM138.458 62.3402L138.376 61.9898L121.987 64.518L121.764 64.5526L121.847 64.7621L122.798 67.1821L122.86 67.3389L123.02 67.2877L138.458 62.3402Z" fill="#D8CDE0" stroke="#D8CDE0" stroke-width="0.693723"/>
<path d="M120.253 83.9888L120.259 83.9624L120.258 83.9517L121.016 76.7236L122.067 71.9922L122.078 71.9401L122.072 71.9224L122.195 64.6996L121.838 64.6577L120.791 69.4361L120.78 69.4877L120.787 69.5058L120.658 76.6734L119.63 81.304L119.623 81.3327L119.624 81.3433L118.866 88.5335L117.855 93.0452L117.854 93.0515L117.853 93.0581L117.457 95.759L117.679 95.7966L117.811 95.8242L118.837 91.2511L118.839 91.2443L118.839 91.2418L120.253 83.9888ZM41.9749 75.3626L42.1513 77.4817L41.7096 80.0835L41.7055 80.1065L41.7064 80.1172L41.4455 84.7753L41.8028 84.815L42.249 82.1371L42.2527 82.1144L42.2519 82.1045L42.5128 77.4998L42.7784 72.8227L43.8223 70.4416L43.8495 70.3785L43.8387 70.3455L44.1152 65.6347L43.7707 65.5499L42.7084 67.901L42.6798 67.9649L42.6907 67.9993L42.4206 72.7595L41.9768 75.3165L41.9731 75.3392L41.9749 75.3626ZM46.35 53.8128L46.3848 53.2514L46.0302 53.6878L44.5476 55.5128L44.3691 55.1418L44.3321 55.7784L44.2966 55.8221L44.326 55.8832L44.039 60.7741L44.0053 61.3505L44.3609 60.8953L45.8327 59.0142L46.0067 59.3754L46.0457 58.7413L46.0804 58.697L46.0522 58.6383L46.35 53.8128Z" fill="#1F0231" stroke="#D8CDE0" stroke-width="0.693723"/>
<path d="M138.483 62.3303L138.348 61.9963L122.911 66.9442L122.766 66.9904L122.787 67.1407L123.124 69.573L123.158 69.8198L123.381 69.7105L138.483 62.3303Z" fill="#D8CDE0" stroke="#D8CDE0" stroke-width="0.693723"/>
<path d="M121.306 79.2865L121.312 79.2567L121.311 79.2461L122.069 71.982L123.141 67.1549L123.153 67.1013L123.133 67.0501L122.182 64.6301L121.834 64.693L121.711 71.9317L120.662 76.6553L120.655 76.6847L120.656 76.6953L119.897 83.9327L120.252 83.9908L121.306 79.2865ZM42.3341 75.3321L41.9745 75.3374L41.7069 80.1033L42.065 80.1437L42.5108 77.5195L42.5145 77.4969L42.5124 77.4746L42.3341 75.3321ZM44.3988 60.7946L44.0553 60.7079L42.9871 62.9967L42.9577 63.0599L42.9686 63.0951L42.6924 67.9648L43.0368 68.0496L44.0995 65.6982L44.1274 65.6358L44.1169 65.6017L44.3988 60.7946Z" fill="#1F0231" stroke="#D8CDE0" stroke-width="0.693723"/>
<path d="M27.8383 49.5488L27.5721 49.3061L24.5785 52.2753L24.5655 52.2881L24.5548 52.3037L22.3791 55.5936L22.6686 55.8075L27.8383 49.5488Z" fill="#D8CDE0" stroke="#D8CDE0" stroke-width="0.693723"/>
<path d="M119.884 86.5853L119.886 86.5782L119.886 86.5757L121.307 79.2815L120.954 79.2077L119.9 83.9121L119.899 83.9191L119.899 83.9217L118.484 91.177L118.837 91.2511L119.884 86.5853ZM43.0525 67.9854L42.695 67.9436L42.2496 70.4521L42.2458 70.4747L42.2473 70.4971L42.4203 72.793L42.7801 72.7898L43.0525 67.9854Z" fill="#1F0231" stroke="#D8CDE0" stroke-width="0.693723"/>
<path d="M144.073 77.0539L144.419 76.9609L143.264 69.3769L143.258 69.3385L143.237 69.306L138.555 62.0703L138.236 62.2346L144.073 77.0539Z" fill="#D8CDE0" stroke="#D8CDE0" stroke-width="0.693723"/>
<path d="M122.38 74.4864L122.387 74.4556L122.386 74.4453L123.145 67.1341L122.789 67.0767L121.715 71.9138L121.708 71.9446L121.709 71.9549L120.95 79.2283L121.306 79.2864L122.38 74.4864ZM42.6071 70.4698L42.247 70.4733L41.9745 75.3374L42.3323 75.3781L42.7775 72.8103L42.7816 72.788L42.7798 72.766L42.6071 70.4698ZM44.6884 55.8576L44.346 55.7683L43.2721 57.9922L43.242 58.0547L43.2613 58.1207L44.046 60.8342L44.3988 60.7946L44.6884 55.8576Z" fill="#1F0231" stroke="#D8CDE0" stroke-width="0.693723"/>
<path d="M138.5 62.3202L138.324 62.0058L123.223 69.3863L123.136 69.4284L123.123 69.5243L122.802 71.9375L122.751 72.3209L123.078 72.1136L138.5 62.3202Z" fill="#D8CDE0" stroke="#D8CDE0" stroke-width="0.693723"/>
<path d="M43.6076 58.0204L43.2544 58.0604L42.9704 63.063L43.3142 63.1492L44.3825 60.8605L44.4108 60.7992L44.3923 60.7338L43.6076 58.0204ZM120.953 81.823L120.954 81.8159L120.955 81.8133L122.382 74.4813L122.029 74.4076L120.954 79.2079L120.953 79.2149L120.952 79.2172L119.532 86.511L119.884 86.5851L120.953 81.823Z" fill="#1F0231" stroke="#D8CDE0" stroke-width="0.693723"/>
<path d="M46.233 53.9702L46.2623 53.9596L46.286 53.9397L48.4972 52.0901L48.3134 51.7845L20.9431 62.9839L21.074 63.3199L46.233 53.9702Z" fill="#D8CDE0" stroke="#D8CDE0" stroke-width="0.693723"/>
<path d="M43.3309 63.0833L42.9734 63.0408L42.529 65.4871L42.525 65.5093L42.5255 65.5204L42.2477 70.4737L42.6051 70.5148L43.0502 68.0066L43.0543 67.9851L43.0538 67.9741L43.3309 63.0833ZM123.478 69.5876L123.485 69.556L123.481 69.5238L123.145 67.0911L122.787 67.0971L122.026 74.4287L122.381 74.4865L123.478 69.5876Z" fill="#1F0231" stroke="#D8CDE0" stroke-width="0.693723"/>
<path d="M138.511 62.313L138.307 62.0158L122.884 71.8089L122.838 71.8387L122.816 71.8894L121.792 74.2452L121.525 74.8611L122.065 74.4622L138.511 62.313Z" fill="#D8CDE0" stroke="#D8CDE0" stroke-width="0.693723"/>
<path d="M122.043 76.963L122.045 76.9552L122.045 76.9526L123.479 69.5827L123.125 69.5091L122.029 74.4079L122.027 74.4154L122.027 74.418L120.6 81.7493L120.953 81.823L122.043 76.963ZM43.6144 58.0808L43.2572 58.0378L42.8127 60.4186L42.809 60.4405L42.81 60.4625L42.9706 63.0843L43.3305 63.0833L43.6144 58.0808Z" fill="#1F0231" stroke="#D8CDE0" stroke-width="0.693723"/>
<path d="M44.5623 56.019L44.6142 56.003L44.6485 55.9605L46.3102 53.9147L46.727 53.4021L46.1076 53.6321L20.9485 62.9819L21.0649 63.323L44.5623 56.019Z" fill="#D8CDE0" stroke="#D8CDE0" stroke-width="0.693723"/>
<path d="M43.1702 60.4406L42.8103 60.4416L42.5258 65.509L42.8833 65.5516L43.3281 63.1056L43.3318 63.0837L43.3304 63.0621L43.1702 60.4406Z" fill="#1F0231" stroke="#D8CDE0" stroke-width="0.693723"/>
<path d="M27.8616 49.5132L27.5601 49.3192L22.3904 55.578L22.3619 55.6132L22.353 55.657L20.8347 63.1148L21.1736 63.2297L27.8616 49.5132ZM144.063 77.0145L144.421 76.9834L144.33 73.169L144.33 73.1466L144.324 73.1244L143.259 69.3548L142.907 69.4309L144.063 77.0145ZM138.515 62.3094L138.296 62.0232L121.851 74.172L121.831 74.1862L121.816 74.2057L120.044 76.4621L120.298 76.7146L138.515 62.3094Z" fill="#D8CDE0" stroke="#D8CDE0" stroke-width="0.693723"/>
<path d="M123.157 72.0005L123.159 71.993L123.16 71.9849L123.481 69.572L123.125 69.5139L121.691 76.8886L122.044 76.9627L123.157 72.0005Z" fill="#1F0231" stroke="#D8CDE0" stroke-width="0.693723"/>
<path d="M43.4744 58.2464L43.5589 58.2269L43.5967 58.1489L44.6706 55.9251L44.8516 55.5514L44.4548 55.6748L20.9578 62.9784L21.0509 63.3265L43.4744 58.2464Z" fill="#D8CDE0" stroke="#D8CDE0" stroke-width="0.693723"/>
<path d="M20.9598 83.4778L20.5998 83.4906L20.5447 88.3141L20.5448 88.331L20.5478 88.3478L21.3689 92.8999L21.7262 92.8531L20.9598 83.4778Z" fill="#1F0231" stroke="#D8CDE0" stroke-width="0.693723"/>
<path d="M138.515 62.3091L138.291 62.0268L138.291 62.0269L120.073 76.4317L120.071 76.4337L117.506 78.5409L117.504 78.5428L117.73 78.8235L117.733 78.8215L138.515 62.3095L138.515 62.3091ZM43.012 60.6307L43.1434 60.6146L43.1674 60.4846L43.6119 58.1038L43.6623 57.8342L43.3944 57.8948L20.9712 62.9745L21.0334 63.3296L43.012 60.6307Z" fill="#D8CDE0" stroke="#D8CDE0" stroke-width="0.693723"/>
<path d="M138.077 100.525L137.745 100.391L135.601 104.319L135.558 104.293L135.502 104.502L135.429 104.635L135.46 104.654L134.218 109.27L134.55 109.402L136.705 105.396L136.747 105.421L136.803 105.212L136.876 105.078L136.845 105.06L138.077 100.525ZM21.0159 78.553L20.6558 78.5657L20.6 83.4904L20.5998 83.5085L20.6016 83.5165L21.3668 92.8822L21.7272 92.8698L21.7921 87.9668L21.7924 87.9487L21.7909 87.9403L21.0159 78.553Z" fill="#1F0231" stroke="#D8CDE0" stroke-width="0.693723"/>
<path d="M22.7065 55.729L22.3593 55.6333L21.0933 59.2246L21.0852 59.2482L21.0838 59.2729L20.8315 63.1387L21.1882 63.1868L22.7065 55.729Z" fill="#D8CDE0" stroke="#D8CDE0" stroke-width="0.693723"/>
<path d="M139.371 95.7593L139.04 95.6243L136.818 99.631L136.745 99.7629L136.861 99.8582L137.788 100.617L138.004 100.793L138.077 100.525L139.371 95.7593Z" fill="#1F0231" stroke="#D8CDE0" stroke-width="0.693723"/>
<path d="M43.2229 63.1448L43.419 63.1431L43.4009 62.9482L43.1696 60.4351L43.1527 60.2497L42.9683 60.2725L20.9893 62.9717L21.0127 63.3309L43.2229 63.1448Z" fill="#D8CDE0" stroke="#D8CDE0" stroke-width="0.693723"/>
<path d="M21.0726 73.5233L20.7126 73.5361L20.6556 78.5657L20.6553 78.5838L20.6588 78.6017L21.5007 82.9887L21.8575 82.94L21.0726 73.5233Z" fill="#1F0231" stroke="#D8CDE0" stroke-width="0.693723"/>
<path d="M132.477 91.3408L132.794 91.4888L144.381 77.1005L144.447 77.019L144.409 76.9215L138.571 62.1017L138.345 61.5288L138.226 62.1332L132.477 91.3408Z" fill="#D8CDE0" stroke="#D8CDE0" stroke-width="0.693723"/>
<path d="M21.8579 82.9574L21.8585 82.939L21.8547 82.9208L21.0132 78.5341L20.6563 78.5828L21.431 87.9705L21.3661 92.8651L21.3653 92.9031L21.3806 92.938L23.3781 97.6575L23.7208 97.5517L21.792 87.9474L21.8579 82.9574ZM137.09 99.5792L136.874 99.4025L136.801 99.6717L135.495 104.523L135.828 104.656L138.061 100.564L138.133 100.433L138.017 100.338L137.09 99.5792ZM140.694 90.8919L140.363 90.756L138.153 94.6727L138.088 94.7881L138.178 94.8846L139.066 95.8348L139.287 96.0716L139.371 95.7595L140.694 90.8919Z" fill="#1F0231" stroke="#D8CDE0" stroke-width="0.693723"/>
<path d="M44.1564 65.7599L44.4434 65.7904L44.3444 65.5191L43.3903 62.9031L43.3467 62.7834L43.2194 62.7843L21.0092 62.9704L20.9921 63.33L44.1564 65.7599Z" fill="#D8CDE0" stroke="#D8CDE0" stroke-width="0.693723"/>
<path d="M21.1314 68.3855L20.7714 68.3982L20.7132 73.5365L20.713 73.5553L20.7145 73.5637L21.4986 82.9697L21.8583 82.9574L21.9265 77.8381L21.9267 77.8194L21.9248 77.8106L21.1314 68.3855ZM135.844 104.617L135.535 104.45L132.053 108.38L131.878 108.577L132.125 108.669L134.329 109.486L134.515 109.555L134.566 109.364L135.844 104.617ZM138.442 94.6383L138.221 94.4012L138.136 94.7147L136.801 99.6721L137.133 99.806L139.355 95.7993L139.419 95.6851L139.329 95.589L138.442 94.6383Z" fill="#1F0231" stroke="#D8CDE0" stroke-width="0.693723"/>
<path d="M132.537 91.5135L132.771 91.7113L132.83 91.4105L138.58 62.2032L138.675 61.7221L138.291 62.0271L117.506 78.5411L117.334 78.6781L117.502 78.8202L132.537 91.5135Z" fill="#D8CDE0" stroke="#D8CDE0" stroke-width="0.693723"/>
<path d="M21.8541 82.9189L21.4973 82.9521L21.4308 87.962L21.4301 88.0006L21.4383 88.0187L23.3667 97.6227L23.724 97.5906L23.8128 92.6109L23.8132 92.5719L23.8053 92.5534L21.8541 82.9189ZM132.25 108.33L132.063 108.261L132.013 108.454L130.74 113.282L131.05 113.446L134.527 109.435L134.698 109.239L134.454 109.148L132.25 108.33ZM142.045 85.919L141.714 85.7816L139.518 89.6039L139.459 89.706L139.528 89.8006L140.374 90.9512L140.596 91.2523L140.694 90.8918L142.045 85.919ZM21.1904 63.1352L20.8304 63.1487L20.7709 68.3982L20.7707 68.4177L20.7746 68.4367L21.6383 72.6397L21.9946 72.5885L21.1904 63.1352Z" fill="#1F0231" stroke="#D8CDE0" stroke-width="0.693723"/>
<path d="M45.864 68.4416L46.2832 68.5276L46.0522 68.1673L44.3272 65.4835L44.2803 65.4107L44.1941 65.4012L21.0298 62.9713L20.9746 63.3272L45.864 68.4416Z" fill="#D8CDE0" stroke="#D8CDE0" stroke-width="0.693723"/>
<path d="M21.9957 72.6061L21.9959 72.5865L21.9916 72.5672L21.1279 68.3642L20.772 68.4157L21.5662 77.8507L21.9262 77.838L21.9957 72.6061ZM137.15 99.7654L136.842 99.5975L133.356 103.443L133.191 103.625L133.414 103.728L135.594 104.733L135.788 104.823L135.844 104.616L137.15 99.7654Z" fill="#1F0231" stroke="#D8CDE0" stroke-width="0.693723"/>
<path d="M140.902 84.4426L141.224 84.6039L143.407 80.8814L143.419 80.8598L143.426 80.8356L144.415 77.033L144.074 76.9174L140.902 84.4426Z" fill="#D8CDE0" stroke="#D8CDE0" stroke-width="0.693723"/>
<path d="M139.889 89.682L141.874 86.2302L141.934 86.3311L142.04 85.9414L142.08 85.8707L142.066 85.8456L143.426 80.8374L143.096 80.6993L141.069 84.1573L141.007 84.0516L140.901 84.4423L140.86 84.5131L140.875 84.5393L139.598 89.2852L139.512 89.6028L136.052 93.2302L135.903 93.3863L136.083 93.5051L138.034 94.7944L134.785 98.2906L134.705 98.2462L134.658 98.4273L134.532 98.5625L134.611 98.6062L133.37 103.31L133.315 103.518L132.03 108.394L127.32 111.966L127.227 111.935L127.195 112.061L126.97 112.231L127.137 112.285L125.928 117.029L125.798 117.54L126.214 117.216L130.95 113.529L131.041 113.558L131.074 113.432L131.293 113.262L131.133 113.209L132.351 108.587L135.805 104.689L135.966 104.507L135.746 104.406L133.788 103.503L137.013 99.9462L137.09 99.9889L137.139 99.8077L137.262 99.6719L137.186 99.6299L138.42 95.0498L138.479 94.8302L140.677 90.9332L140.735 90.8315L140.666 90.7376L139.889 89.682ZM21.4973 82.9924L21.5055 83.0103L23.4524 92.6241L23.4517 92.6635L23.3641 97.5839L23.3631 97.6413L23.3952 97.6888L26.6775 102.503L26.8191 102.433L27.0066 102.406L27.1345 97.3561L27.1361 97.2971L27.1171 97.2701L23.9045 87.4906L23.9048 87.4811L23.9967 82.3172L23.9973 82.2756L23.9886 82.2573L21.9964 72.5867L22.0671 67.2569L22.0672 67.2366L22.063 67.2173L21.1878 63.1134L20.8319 63.1664L21.635 72.6102L21.5659 77.8333L21.5656 77.8745L21.498 82.9522L21.4973 82.9924Z" fill="#1F0231" stroke="#D8CDE0" stroke-width="0.693723"/>
<path d="M21.1813 63.0901L20.8349 63.1883L21.7101 67.2922L21.7148 67.314L21.725 67.3345L23.8464 71.6271L24.1779 71.4866L21.1813 63.0901Z" fill="#D8CDE0" stroke="#D8CDE0" stroke-width="0.693723"/>
<path d="M22.0623 67.2179L21.7059 67.2522L21.6346 72.6012L21.634 72.6436L21.643 72.6615L23.6391 82.3503L23.9959 82.3171L24.0905 76.9949L24.0915 76.9522L24.0825 76.9334L22.0623 67.2179ZM133.664 103.61L133.794 103.115L133.382 103.419L128.525 107.002L128.26 107.198L128.568 107.316L132.123 108.668L132.311 108.74L132.361 108.546L133.664 103.61ZM136.281 93.2044L136.071 93.0657L136.007 93.3087L134.646 98.4708L134.952 98.6398L138.442 94.8844L138.587 94.7285L138.409 94.6111L136.281 93.2044Z" fill="#1F0231" stroke="#D8CDE0" stroke-width="0.693723"/>
<path d="M132.513 91.2625L132.767 91.5157L141.183 84.6527L141.218 84.6242L141.235 84.5828L144.407 77.0581L144.1 76.875L132.513 91.2625Z" fill="#D8CDE0" stroke="#D8CDE0" stroke-width="0.693723"/>
<path d="M23.9871 82.2574L23.636 82.3105L23.5431 87.5149L23.542 87.5749L23.5609 87.6005L26.7727 97.3785L26.6455 102.396L26.6436 102.472L26.6966 102.527L31.3642 107.345L31.6576 107.145L27.135 97.3145L27.2646 92.192L27.2661 92.1315L27.2471 92.1045L23.9871 82.2574ZM128.697 106.979L128.508 106.907L128.458 107.103L127.199 112.044L121.196 115.194L120.832 115.386L121.219 115.524L126.042 117.243L126.228 117.31L126.277 117.118L127.513 112.272L132.297 108.643L132.555 108.447L132.252 108.331L128.697 106.979ZM141.243 84.5597L141.422 83.8957L140.94 84.3864L137.558 87.8324L137.469 87.7644L137.412 87.981L137.304 88.0917L137.369 88.1431L136.007 93.3086L136.312 93.4788L139.693 89.9361L139.778 90.002L139.836 89.785L139.943 89.6732L139.879 89.6247L141.243 84.5597ZM134.994 98.5626L135.122 98.0788L134.715 98.3705L129.837 101.865L129.579 102.05L129.87 102.177L133.417 103.729L133.61 103.814L133.664 103.61L134.994 98.5626ZM24.1878 71.5502L24.189 71.5064L24.1694 71.4668L22.0477 67.1746L21.7099 67.2912L23.7344 77.0282L24.0908 76.9947L24.1878 71.5502Z" fill="#1F0231" stroke="#D8CDE0" stroke-width="0.693723"/>
<path d="M132.562 91.5314L132.77 91.2381L117.735 78.5445L117.64 78.464L117.531 78.5251L114.127 80.4342L113.853 80.5882L114.124 80.7471L132.562 91.5314Z" fill="#D8CDE0" stroke="#D8CDE0" stroke-width="0.693723"/>
<path d="M24.0819 76.9345L23.7308 76.9884L23.6359 82.3102L23.6347 82.3717L23.654 82.3977L26.9037 92.2144L26.7739 97.3473L26.7717 97.4239L26.8038 97.4559L31.3301 107.295L31.6742 107.226L31.8587 102.115L31.8616 102.037L31.8288 102.004L27.2661 92.1497L27.3988 86.9092L27.4006 86.8469L27.3806 86.8203L24.0819 76.9345ZM130.014 101.846L129.82 101.761L129.767 101.967L128.459 107.103L128.333 107.592L128.74 107.292L133.597 103.709L133.848 103.524L133.562 103.399L130.014 101.846ZM121.341 115.184L121.152 115.117L121.105 115.312L119.895 120.292L119.8 120.687L120.156 120.494L126.188 117.232L126.545 117.04L126.163 116.904L121.341 115.184ZM136.356 93.4002L136.481 92.9276L136.079 93.2066L131.179 96.6078L130.929 96.7816L131.202 96.9173L134.74 98.6782L134.938 98.777L134.995 98.5626L136.356 93.4002Z" fill="#1F0231" stroke="#D8CDE0" stroke-width="0.693723"/>
<path d="M21.1617 63.0512L20.8414 63.2111L23.838 71.6076L23.8508 71.6437L23.8771 71.6712L32.3304 80.5537L32.6112 80.3299L21.1617 63.0512ZM114.306 80.4354L114.231 80.3919L114.15 80.423L110.012 82.0256L109.588 82.1892L110.009 82.3602L132.585 91.5426L132.744 91.22L114.306 80.4354Z" fill="#D8CDE0" stroke="#D8CDE0" stroke-width="0.693723"/>
<path d="M128.807 107.192L128.906 106.806L128.551 106.986L122.509 110.058L122.391 110.012L122.362 110.133L122.079 110.277L122.305 110.366L121.104 115.311L121.01 115.699L121.364 115.514L127.364 112.365L127.478 112.41L127.508 112.289L127.785 112.144L127.567 112.057L128.807 107.192ZM24.1785 71.4893L23.8271 71.5436L23.7302 76.9881L23.7291 77.0511L23.7491 77.077L27.037 86.9312L26.9041 92.1828L26.9023 92.2612L26.9344 92.2932L31.4962 102.145L31.3133 107.213L31.31 107.306L31.3837 107.362L37.3225 111.933L37.5873 111.698L31.8603 102.062L32.0476 96.8845L32.05 96.8053L32.0168 96.7723L27.3994 86.8665L27.5351 81.503L27.5368 81.4392L27.5161 81.4126L24.1785 71.4893ZM131.362 96.5947L131.162 96.4949L131.107 96.7113L129.767 101.967L129.645 102.446L130.047 102.158L134.925 98.6635L135.169 98.4889L134.901 98.3552L131.362 96.5947Z" fill="#1F0231" stroke="#D8CDE0" stroke-width="0.693723"/>
<path d="M140.954 84.373L132.622 91.1685L110.144 82.0262L110.089 82.0042L110.031 82.0191L105.34 83.2317L104.706 83.3959L105.335 83.5794L132.602 91.5488L132.656 91.3942L132.753 91.5254L137.675 88.2229L137.69 88.2126L137.703 88.1995L141.197 84.6393L140.954 84.373ZM46.0499 68.1649L46.0087 68.1035L45.9362 68.0882L21.0472 62.9742L20.9032 63.2957L63.4325 94.824L63.6898 94.5788L46.0499 68.1649Z" fill="#D8CDE0" stroke="#D8CDE0" stroke-width="0.693723"/>
<path d="M121.455 115.396L121.534 115.072L121.219 115.184L114.229 117.684L114.096 117.628L114.07 117.741L113.726 117.864L114.014 117.985L112.897 122.884L112.823 123.209L113.136 123.094L120.066 120.529L120.195 120.583L120.223 120.471L120.561 120.346L120.282 120.229L121.455 115.396ZM137.749 88.1195L137.87 87.6577L137.474 87.9235L132.644 91.1646L132.536 91.1035L132.495 91.2644L132.309 91.3899L132.444 91.4656L131.107 96.7115L130.988 97.1798L131.384 96.904L136.192 93.5672L136.296 93.6259L136.339 93.4649L136.521 93.3385L136.391 93.2655L137.749 88.1195ZM130.116 102.056L130.213 101.678L129.862 101.85L123.78 104.839L123.66 104.787L123.63 104.913L123.356 105.048L123.574 105.143L122.342 110.214L122.25 110.595L122.6 110.417L128.638 107.347L128.755 107.397L128.787 107.271L129.055 107.135L128.846 107.043L130.116 102.056ZM37.8706 106.637L37.8753 106.542L37.8271 106.505L32.049 96.8312L32.2404 91.5309L32.2435 91.4502L32.2092 91.4176L27.5364 81.4608L27.6752 75.9694L27.6769 75.9042L27.6366 75.8535L24.149 71.4354L23.8366 71.6045L27.1737 81.5259L27.0381 86.9001L27.0357 86.9801L27.0688 87.0116L31.6854 96.9152L31.4979 102.102L31.4946 102.196L31.5415 102.231L37.2774 111.882L37.5823 112.396L37.6124 111.8L37.8706 106.637Z" fill="#1F0231" stroke="#D8CDE0" stroke-width="0.693723"/>
<path d="M105.436 83.2331L105.397 83.2221L105.357 83.2284L100.204 84.0365L100.194 84.3907L132.614 91.552L132.703 91.2029L105.436 83.2331ZM48.593 70.88L48.5838 70.8661L48.5726 70.8537L46.0315 68.1419L45.7499 68.3651L63.3879 94.7758L63.3902 94.7793L63.6922 94.5824L63.6898 94.5789L48.593 70.88Z" fill="#D8CDE0" stroke="#D8CDE0" stroke-width="0.693723"/>
<path d="M37.8366 106.522L37.5361 106.107L37.5107 106.619L37.2525 111.781L37.247 111.89L37.3412 111.945L44.2882 116.02L44.5257 115.759L37.8366 106.522ZM122.693 110.299L122.771 109.978L122.459 110.086L115.343 112.539L114.913 112.687L115.328 112.874L121.206 115.518L121.404 115.607L121.455 115.396L122.693 110.299Z" fill="#1F0231" stroke="#D8CDE0" stroke-width="0.693723"/>
<path d="M100.271 84.0384L100.246 84.033L100.22 84.035L94.7076 84.4282L94.6889 84.7857L132.621 91.553L132.691 91.1997L100.271 84.0384Z" fill="#D8CDE0" stroke="#D8CDE0" stroke-width="0.693723"/>
<path d="M131.457 96.8006L131.551 96.4285L131.205 96.5925L125.006 99.5308L124.663 99.6933L125.005 99.8566L129.865 102.174L130.063 102.269L130.117 102.056L131.457 96.8006ZM115.476 112.545L115.275 112.455L115.226 112.669L114.048 117.837L113.975 118.158L114.285 118.047L121.341 115.524L121.762 115.373L121.354 115.19L115.476 112.545ZM38.1352 101.352L38.1402 101.255L38.091 101.219L32.2151 91.4315L31.9025 90.9105L31.8807 91.518L31.6874 96.8714L31.6835 96.9669L31.7312 97.0018L37.536 106.72L37.8415 107.231L37.871 106.637L38.1352 101.352Z" fill="#1F0231" stroke="#D8CDE0" stroke-width="0.693723"/>
<path d="M24.138 71.4225L23.8659 71.6585L27.3534 76.0766L27.3628 76.0887L27.3743 76.0992L32.3402 80.5636L32.5913 80.305L24.138 71.4225Z" fill="#D8CDE0" stroke="#D8CDE0" stroke-width="0.693723"/>
<path d="M27.6583 75.8876L27.3151 75.9599L27.175 81.4936L27.173 81.5754L27.2326 81.6304L32.136 86.175L32.4216 85.966L27.6583 75.8876Z" fill="#1F0231" stroke="#D8CDE0" stroke-width="0.693723"/>
<path d="M94.7521 84.43L94.7369 84.4274L94.7214 84.4274L88.9616 84.4022L88.9331 84.7605L132.621 91.5529L132.625 91.5539L132.684 91.1981L132.68 91.1972L94.7521 84.43ZM51.996 73.5831L51.9787 73.5519L51.9504 73.5297L48.5528 70.8358L48.2885 71.074L63.3877 94.7756L63.6972 94.5912L51.996 73.5831Z" fill="#D8CDE0" stroke="#D8CDE0" stroke-width="0.693723"/>
<path d="M32.4385 86.0495L32.442 85.9669L32.3812 85.9109L27.4778 81.3663L27.1918 81.575L31.8974 91.6009L32.2407 91.5308L32.4385 86.0495ZM125.161 99.5309L124.96 99.4356L124.908 99.6516L123.61 104.995L123.519 105.369L123.865 105.199L130.022 102.173L130.356 102.009L130.02 101.849L125.161 99.5309ZM114.4 117.917L114.464 117.637L114.184 117.701L106.289 119.504L105.787 119.619L106.251 119.842L112.995 123.087L113.199 123.185L113.249 122.965L114.4 117.917Z" fill="#1F0231" stroke="#D8CDE0" stroke-width="0.693723"/>
<path d="M88.9889 84.4043L88.9818 84.4028L88.9744 84.4024L83.087 83.9605L83.0474 84.3186L132.625 91.554L132.626 91.5542L132.68 91.1973L132.679 91.1974L88.9889 84.4043Z" fill="#D8CDE0" stroke="#D8CDE0" stroke-width="0.693723"/>
<path d="M106.407 119.517L106.2 119.417L106.152 119.642L105.077 124.747L105.019 125.025L105.295 124.959L113.115 123.1L113.609 122.982L113.151 122.762L106.407 119.517Z" fill="#1F0231" stroke="#D8CDE0" stroke-width="0.693723"/>
<path d="M83.0997 83.9618L83.0993 83.9615L77.2072 83.112L77.2064 83.112L77.1546 83.4689L132.627 91.5536L132.653 91.3757L132.679 91.1971L132.676 91.1965L83.0997 83.9618Z" fill="#D8CDE0" stroke="#D8CDE0" stroke-width="0.693723"/>
<path d="M44.9039 110.678L44.9118 110.565L44.8475 110.529L38.1002 101.237L37.7998 100.823L37.7744 101.334L37.5102 106.619L37.5044 106.729L37.5669 106.765L44.2327 115.971L44.5258 116.375L44.5587 115.877L44.9039 110.678ZM123.96 105.08L124.036 104.764L123.728 104.866L116.551 107.246L116.127 107.386L116.53 107.579L122.439 110.419L122.64 110.515L122.693 110.298L123.96 105.08ZM132.827 91.4201L132.92 91.0554L132.578 91.2115L126.337 94.0561L126 94.2098L126.328 94.3804L131.198 96.9158L131.4 97.0207L131.456 96.8005L132.827 91.4201Z" fill="#1F0231" stroke="#D8CDE0" stroke-width="0.693723"/>
<path d="M56.1544 76.1459L56.1319 76.091L56.0815 76.0607L51.9336 73.5173L51.3464 73.1578L51.6816 73.759L63.3831 94.7668L63.7077 94.6107L56.1544 76.1459Z" fill="#D8CDE0" stroke="#D8CDE0" stroke-width="0.693723"/>
<path d="M116.687 107.254L116.482 107.156L116.433 107.377L115.226 112.669L115.154 112.986L115.46 112.88L122.577 110.427L122.991 110.284L122.596 110.093L116.687 107.254ZM44.8619 110.548L44.5744 110.213L44.5449 110.654L44.1994 115.853L44.191 115.978L44.3057 116.03L52.1048 119.521L52.3151 119.24L44.8619 110.548ZM38.4057 95.9402L38.4102 95.8417L38.3607 95.8058L32.4131 85.9498L32.1002 85.4315L32.0779 86.0365L31.8801 91.5177L31.8769 91.6147L31.925 91.6492L37.8004 101.436L38.1051 101.944L38.135 101.352L38.4057 95.9402Z" fill="#1F0231" stroke="#D8CDE0" stroke-width="0.693723"/>
<path d="M21.1184 63.0056L20.8607 63.2505L32.3106 80.5287L32.3392 80.5715L32.3855 80.5933L63.4648 94.8426L63.6477 94.5339L21.1184 63.0056Z" fill="#D8CDE0" stroke="#D8CDE0" stroke-width="0.693723"/>
<path d="M32.6411 80.436L32.6441 80.3516L32.5814 80.2953L27.6156 75.8309L27.3316 76.0421L32.0953 86.1201L32.4382 86.0496L32.6411 80.436ZM126.495 94.0608L126.29 93.9546L126.236 94.1779L124.907 99.6517L124.818 100.019L125.16 99.8572L131.359 96.9192L131.686 96.7634L131.365 96.5962L126.495 94.0608ZM115.577 112.75L115.641 112.473L115.363 112.533L107.454 114.262L107.302 114.185L107.278 114.3L106.895 114.384L107.225 114.55L106.179 119.516L97.8061 120.532L97.6398 120.442L97.6184 120.555L97.1888 120.607L97.5689 120.813L96.608 125.836L96.5615 126.081L96.8081 126.049L105.219 124.971L105.38 125.059L105.404 124.947L105.83 124.892L105.458 124.69L106.482 119.83L114.2 118.067L114.348 118.142L114.374 118.028L114.752 117.942L114.431 117.78L115.577 112.75ZM45.2579 105.353L45.2657 105.239L45.1666 105.184L38.043 101.186L37.8086 101.45L44.5787 110.772L44.8717 111.175L44.9043 110.678L45.2579 105.353Z" fill="#1F0231" stroke="#D8CDE0" stroke-width="0.693723"/>
<path d="M60.8749 78.4501L60.8588 78.3589L60.776 78.3187L56.0649 76.0517L55.6423 75.848L55.8202 76.2823L63.3731 94.7475L63.718 94.6479L60.8749 78.4501Z" fill="#D8CDE0" stroke="#D8CDE0" stroke-width="0.693723"/>
<path d="M60.7709 122.061L52.8092 114.066L52.8133 114.021L52.7324 113.985L45.2198 105.229L38.4089 95.8765L38.683 90.3964L38.6878 90.2968L38.6056 90.2396L32.3612 85.895L32.104 86.1362L38.0428 95.9771L37.775 101.334L37.7693 101.446L37.8665 101.5L44.8915 105.442L44.545 110.654L44.5366 110.78L44.6144 110.815L51.9924 119.417L51.9867 119.483L52.0738 119.512L52.3213 119.801L52.3386 119.6L60.586 122.358L60.7709 122.061ZM125.258 99.7365L125.334 99.4249L125.028 99.5218L117.86 101.801L117.72 101.729L117.691 101.854L117.372 101.956L117.637 102.091L116.433 107.377L116.361 107.689L116.665 107.588L123.771 105.232L123.907 105.302L123.937 105.177L124.251 105.073L123.994 104.942L125.258 99.7365Z" fill="#1F0231" stroke="#D8CDE0" stroke-width="0.693723"/>
<path d="M66.0513 80.4658L66.0749 80.3201L65.9366 80.2681L60.7609 78.3122L60.4649 78.2004L60.5195 78.5121L63.3622 94.7102L63.718 94.7084L66.0513 80.4658Z" fill="#D8CDE0" stroke="#D8CDE0" stroke-width="0.693723"/>
<path d="M32.6157 80.3358L32.303 79.8204L32.2809 80.4227L32.0784 86.0367L32.075 86.1348L32.1553 86.1909L38.4 90.5351L38.6568 90.2937L32.6157 80.3358ZM88.5982 120.788L88.1373 120.8L88.5527 121.054L87.6894 126.123L87.6523 126.341L87.8727 126.333L96.7375 126.052L96.9137 126.159L96.9359 126.045L97.3952 126.031L96.9866 125.781L97.9482 120.752L97.9903 120.531L97.7661 120.538L88.7996 120.782L88.6184 120.671L88.5982 120.788ZM116.784 107.457L116.847 107.183L116.572 107.24L108.585 108.905L108.431 108.823L108.406 108.942L108.031 109.021L108.354 109.191L107.254 114.414L107.197 114.687L107.469 114.627L115.376 112.9L115.526 112.978L115.552 112.861L115.922 112.78L115.609 112.615L116.784 107.457Z" fill="#1F0231" stroke="#D8CDE0" stroke-width="0.693723"/>
<path d="M71.5594 82.1445L71.6852 81.9427L71.4564 81.876L65.9232 80.2638L65.728 80.2065L65.6953 80.4079L63.3619 94.6497L63.6931 94.7745L71.5594 82.1445ZM119.047 96.2702L119.163 96.6117L126.464 94.3934L126.475 94.3899L126.486 94.385L132.727 91.54L132.589 91.2069L119.047 96.2702Z" fill="#D8CDE0" stroke="#D8CDE0" stroke-width="0.693723"/>
<path d="M61.2856 116.795L61.0514 116.589L61.0385 116.713L52.6785 113.963L52.4944 114.261L60.4545 122.254L60.4469 122.326L60.5515 122.351L60.7823 122.583L60.8009 122.41L69.5228 124.468L69.6831 124.157L61.3832 116.881L61.3888 116.829L61.2856 116.795ZM98.6277 115.275L98.2057 115.324L98.5785 115.533L97.5936 120.684L97.5474 120.926L97.7921 120.897L106.292 119.866L106.454 119.957L106.479 119.843L106.897 119.792L106.533 119.587L107.607 114.489L107.658 114.244L107.409 114.272L98.8173 115.254L98.6498 115.16L98.6277 115.275ZM45.6203 99.8975L45.6285 99.7827L45.5276 99.7275L38.3122 95.7733L38.0797 96.0375L44.9326 105.447L45.2256 105.849L45.2586 105.353L45.6203 99.8975Z" fill="#1F0231" stroke="#D8CDE0" stroke-width="0.693723"/>
<path d="M77.2964 83.4293L77.5799 83.1924L77.2185 83.1147L71.4443 81.8728L71.3208 81.8463L71.2534 81.9536L63.3872 94.5837L63.6559 94.8174L77.2964 83.4293Z" fill="#D8CDE0" stroke="#D8CDE0" stroke-width="0.693723"/>
<path d="M53.2568 108.798L53.2676 108.669L53.1485 108.618L45.1496 105.175L44.9416 105.458L52.4854 114.251L52.7655 114.578L52.8018 114.149L53.2568 108.798ZM79.5934 120.26L79.3559 120.097L79.3132 120.382L78.5834 125.294L70.3375 118.92L70.0879 118.726L70.048 119.039L69.3853 124.27L69.3631 124.446L69.5383 124.471L78.5114 125.777L78.5089 125.793L78.6982 125.804L79.3697 125.902L79.2875 125.838L87.8562 126.333L88.5024 126.371L87.9686 126.005L79.5934 120.26ZM38.6482 90.2812L38.3478 89.8698L38.3224 90.3784L38.0454 95.922L38.0398 96.0349L38.1388 96.0891L45.3539 100.044L45.5863 99.7795L38.6482 90.2812ZM126.587 94.263L126.661 93.9562L126.359 94.0479L119.058 96.2662L118.647 96.3911L119.024 96.5972L124.996 99.8519L125.202 99.9646L125.258 99.7363L126.587 94.263Z" fill="#1F0231" stroke="#D8CDE0" stroke-width="0.693723"/>
<path d="M77.2066 83.1123L77.1273 83.1006L77.065 83.1521L63.4248 94.5406L63.0129 94.8848L63.549 94.8593L132.662 91.5559L132.679 91.1974L77.2066 83.1123Z" fill="#D8CDE0" stroke="#D8CDE0" stroke-width="0.693723"/>
<path d="M97.9713 120.631L98.933 115.603L107.392 114.638L107.556 114.732L107.58 114.616L107.992 114.569L107.634 114.361L108.711 109.247L116.58 107.607L116.731 107.691L116.759 107.57L117.121 107.494L116.815 107.325L117.998 102.135L125.138 99.8654L125.54 99.7377L125.169 99.5353L119.197 96.2807L118.988 96.1666L118.935 96.3987L117.695 101.841L109.744 103.416L109.588 103.33L109.563 103.452L109.195 103.525L109.511 103.699L108.409 108.93L99.8544 109.844L99.6856 109.746L99.6629 109.865L99.248 109.909L99.614 110.122L98.6305 115.262L89.7072 115.464L89.5247 115.351L89.5046 115.469L89.0506 115.48L89.4591 115.735L88.6214 120.654L80.3896 114.915L80.1509 114.749L80.1083 115.037L79.3592 120.076L71.0178 113.56L70.7681 113.364L70.7279 113.679L70.0913 118.702L61.9486 111.519L61.9541 111.465L61.8506 111.432L61.6166 111.225L61.6035 111.352L53.2693 108.656L53.7237 103.315L53.7344 103.184L53.6139 103.134L45.6298 99.7694L45.9923 94.3071L46.0004 94.1908L45.9339 94.1557L38.9705 84.6521L38.9724 84.6144L38.9138 84.5753L38.6324 84.1909L38.6229 84.3782L32.5624 80.2803L32.3072 80.5232L38.3203 90.4338L38.3173 90.4929L38.3746 90.5232L38.6538 90.9836L38.6578 90.905L45.257 99.9391L44.8991 105.329L44.8905 105.456L45.0077 105.506L52.8867 108.898L52.4428 114.119L52.4308 114.261L52.5661 114.305L60.9998 117.08L60.9986 117.094L61.1032 117.118L61.334 117.351L61.3372 117.32L69.4456 124.429L69.7009 124.652L69.7434 124.316L70.367 119.398L78.6065 125.767L78.8498 125.956L78.8949 125.651L79.6283 120.72L87.7651 126.302L87.9975 126.461L88.045 126.183L88.9017 121.154L89.38 121.182L89.3039 121.129L97.7218 120.9L97.8989 121.01L97.9209 120.894L98.3737 120.882L97.9713 120.631Z" fill="#1F0231" stroke="#D8CDE0" stroke-width="0.693723"/>
<path d="M32.5529 80.2741L32.3602 80.5788L38.6854 84.8562L38.6941 84.862L38.7032 84.8668L46.1098 88.7243L46.2847 88.4091L32.5529 80.2741ZM101.92 98.622L101.987 98.9757L119.135 96.6173L119.155 96.6149L119.174 96.6082L132.716 91.5444L132.611 91.2003L101.92 98.622Z" fill="#D8CDE0" stroke="#D8CDE0" stroke-width="0.693723"/>
<path d="M98.9801 115.353L99.9661 110.195L108.517 109.28L108.682 109.38L108.707 109.26L109.112 109.217L108.761 109.006L109.866 103.759L117.812 102.185L117.965 102.274L117.994 102.149L118.349 102.079L118.049 101.905L119.286 96.4791L119.348 96.2112L119.077 96.2619L110.932 97.7881L110.774 97.6971L110.747 97.8227L110.388 97.8899L110.696 98.0684L109.565 103.439L100.916 104.299L100.746 104.197L100.723 104.318L100.315 104.359L100.674 104.574L99.6646 109.852L90.6367 110.014L90.453 109.897L90.433 110.017L89.9858 110.026L90.3874 110.282L89.5269 115.333L81.2051 109.436L80.9652 109.267L80.9224 109.557L80.1533 114.728L71.7148 108.065L71.464 107.867L71.4239 108.184L70.7708 113.34L62.5266 106.022L62.5325 105.968L62.429 105.935L62.195 105.727L62.1817 105.856L53.735 103.171L54.2005 97.6939L54.2119 97.5624L54.0899 97.5119L46.0002 94.1778L46.3726 88.5763L46.3803 88.4589L46.2758 88.4046L38.8695 84.5467L38.6408 84.8137L45.6278 94.3486L45.2606 99.8733L45.252 100.002L45.3703 100.052L53.3525 103.415L52.8972 108.768L52.8852 108.911L53.0216 108.955L61.564 111.718L61.5625 111.732L61.6674 111.756L61.8982 111.989L61.9015 111.958L70.1073 119.197L70.3628 119.422L70.4056 119.085L71.0455 114.039L79.3804 120.55L79.6243 120.741L79.67 120.435L80.4217 115.378L88.6474 121.112L88.8807 121.274L88.9285 120.994L89.807 115.836L90.278 115.865L90.2056 115.814L98.729 115.621L98.9071 115.735L98.9297 115.616L99.3753 115.606L98.9801 115.353Z" fill="#1F0231" stroke="#D8CDE0" stroke-width="0.693723"/>
<path d="M132.645 91.1956L63.5758 94.4969L32.5367 80.2652L32.3694 80.5845L46.1011 88.7195L46.1166 88.7287L46.1334 88.7341L63.4807 94.8488L63.5251 94.7396L63.5212 94.8583L101.944 98.9766L101.975 98.9799L102.005 98.9722L132.696 91.5508L132.645 91.1956Z" fill="#D8CDE0" stroke="#D8CDE0" stroke-width="0.693723"/>
<path d="M90.4351 110.005L81.1195 109.404L71.636 108.029L62.4294 105.931L54.1541 97.5561L46.3295 88.4471L46.042 88.112L46.0125 88.5524L45.6323 94.2831L45.6237 94.4123L45.7431 94.4618L53.8306 97.7953L53.3637 103.284L53.3518 103.428L53.4886 103.471L62.2469 106.256L70.7869 113.836L71.0428 114.063L71.0856 113.724L71.7416 108.546L80.1748 115.205L80.4188 115.398L80.4648 115.09L81.2359 109.9L89.5527 115.793L89.7862 115.959L89.8346 115.676L90.7382 110.373L99.7621 110.211L99.941 110.328L99.9644 110.207L100.403 110.2L100.014 109.945L101.052 104.518L101.094 104.301L100.873 104.304L91.5906 104.425L91.4063 104.304L91.3854 104.428L90.9451 104.433L91.3402 104.692L90.4351 110.005Z" fill="#1F0231" stroke="#D8CDE0" stroke-width="0.693723"/>
<path d="M101.938 98.6185L101.979 98.9768L110.916 98.157L110.924 98.1562L110.933 98.1547L119.144 96.6161L119.086 96.2601L101.938 98.6185Z" fill="#D8CDE0" stroke="#D8CDE0" stroke-width="0.693723"/>
<path d="M72.1632 102.352L63.0226 100.295L54.6978 91.8469L54.7024 91.7971L54.6135 91.7612L54.3649 91.5092L54.3523 91.6559L46.2603 88.3969L46.0557 88.6816L53.8354 97.7386L53.8291 97.8073L53.918 97.8355L54.1646 98.1222L54.1676 98.0834L62.1495 106.161L62.142 106.235L62.2465 106.26L62.477 106.493L62.4958 106.316L71.4036 108.346L71.402 108.359L71.5232 108.377L71.7389 108.569L71.7589 108.411L80.8956 109.736L80.8933 109.751L81.0325 109.76L81.2329 109.92L81.2524 109.788L81.7327 109.857L81.6611 109.8L90.522 110.372L90.7148 110.51L90.7357 110.385L91.1997 110.415L90.782 110.114L91.7153 104.636L91.749 104.439L91.5496 104.426L81.9996 103.788L81.8014 103.645L81.7841 103.76L72.3915 102.4L72.1784 102.23L72.1632 102.352ZM101.811 98.6301L101.41 98.6668L101.762 98.8852L100.698 104.45L100.652 104.687L100.892 104.663L109.671 103.791L109.838 103.894L109.863 103.772L110.261 103.732L109.917 103.519L111.076 98.015L111.126 97.7757L110.883 97.7983L102.006 98.6119L101.835 98.5056L101.811 98.6301Z" fill="#1F0231" stroke="#D8CDE0" stroke-width="0.693723"/>
<path d="M46.2524 88.3942L46.1253 88.7318L54.4436 92.0819L54.4507 92.0849L54.4586 92.0871L63.4871 94.8513L63.6 94.5092L46.2524 88.3942Z" fill="#D8CDE0" stroke="#D8CDE0" stroke-width="0.693723"/>
<path d="M92.3644 98.6824L82.8579 98.0242L82.6589 97.8784L82.6394 98.0088L82.1841 97.9772L82.599 98.2812L81.8044 103.626L73.2417 96.7139L73.2498 96.651L73.1308 96.6243L72.9119 96.4478L72.8964 96.5722L63.6262 94.5135L63.3986 94.3087L63.3844 94.4426L54.5645 91.7424L54.3834 92.0413L62.7438 100.525L62.7356 100.6L62.8405 100.624L63.0709 100.858L63.09 100.68L72.118 102.711L72.1167 102.724L72.2376 102.742L72.4536 102.936L72.4717 102.791L72.9516 102.899L72.8808 102.835L81.7313 104.117L81.7295 104.131L81.9177 104.144L82.5614 104.237L82.4937 104.182L91.327 104.773L91.3241 104.789L91.4804 104.787L91.667 104.924L91.6885 104.797L92.1455 104.827L92.0796 104.779L100.821 104.665L101.001 104.786L101.025 104.662L101.456 104.657L101.075 104.401L102.14 98.8313L102.181 98.6155L101.961 98.6172L92.5691 98.6929L92.3839 98.5681L92.3644 98.6824Z" fill="#1F0231" stroke="#D8CDE0" stroke-width="0.693723"/>
<path d="M63.5596 94.4996L63.5078 94.8564L82.7607 98.3772L82.7741 98.3802L82.784 98.3801L92.5024 99.0532L92.509 99.0536L92.516 99.0537L101.964 98.9775L101.966 98.8545L101.982 98.6179L63.5596 94.4996Z" fill="#D8CDE0" stroke="#D8CDE0" stroke-width="0.693723"/>
<path d="M82.9715 98.2265L82.9979 98.0476L82.8189 98.0218L73.0758 96.6124L72.4255 96.5186L72.9368 96.9315L81.8229 104.105L82.0681 104.302L82.1148 103.991L82.9715 98.2265Z" fill="#1F0231" stroke="#D8CDE0" stroke-width="0.693723"/>
<path d="M63.573 94.5016L63.5016 94.8554L73.0113 96.9674L73.018 96.9685L73.0247 96.9697L82.7674 98.3788L82.8259 98.0231L63.573 94.5016Z" fill="#D8CDE0" stroke="#D8CDE0" stroke-width="0.693723"/>
</svg>
