<svg width="160" height="160" viewBox="0 0 160 160" fill="none" xmlns="http://www.w3.org/2000/svg">
<path d="M52.0235 135.642H45.5226L35.1743 118.925L64.3619 104.331L68.0767 111.787L52.0235 135.642Z" fill="#263238"/>
<path d="M159.965 95.6015V95.3892C159.381 90.6661 153.358 71.19 149.351 58.9312C147.151 52.0392 144.601 45.2642 141.709 38.6326C136.402 26.2677 127.46 6.36707 124.595 2.51962L124.462 2.3339C123.822 1.51918 122.986 0.880688 122.031 0.478584C121.076 0.0764789 120.035 -0.076036 119.005 0.0354434C117.975 0.146923 116.991 0.51871 116.144 1.11578C115.298 1.71286 114.617 2.51558 114.167 3.44833C110.24 11.4086 101.483 28.3374 92.5413 36.9079C84.6607 44.6028 43.002 62.4603 15.6719 73.7904C12.5466 75.0963 9.71553 77.0168 7.34673 79.4378C4.97793 81.8589 3.11966 84.7312 1.88222 87.8842C0.644775 91.0372 0.0533948 94.4066 0.14316 97.7926C0.232925 101.179 1.00201 104.512 2.40477 107.595C5.13374 113.594 10.0972 118.291 16.2379 120.685C22.3786 123.079 29.2113 122.98 35.2806 120.411C61.3637 109.346 102.094 92.8419 113.158 92.8419C125.55 92.8419 143.513 98.8917 151.925 101.996C152.893 102.334 153.931 102.42 154.942 102.249C155.953 102.077 156.904 101.652 157.706 101.014C158.509 100.375 159.137 99.5444 159.532 98.598C159.927 97.6517 160.075 96.6209 159.965 95.6015Z" fill="#3E0563"/>
<path d="M35.1212 120.411C29.0518 122.98 22.2191 123.079 16.0784 120.685C9.93771 118.291 4.97428 113.594 2.24532 107.595C0.847078 104.502 0.0857892 101.159 0.00684165 97.7661C-0.072106 94.3728 0.532889 90.9984 1.78578 87.8438C3.03867 84.6893 4.91382 81.8193 7.29945 79.4049C9.68507 76.9905 12.5324 75.081 15.6716 73.7904L22.7828 70.7655C22.7828 70.7655 35.5722 81.2465 39.0747 96.5832C42.5772 111.92 41.4363 117.678 41.4363 117.678L35.1212 120.411Z" fill="#FA9706"/>
<path d="M41.4098 117.678C41.171 117.678 41.4098 114.733 41.0914 110.063C40.8687 107.332 40.4609 104.619 39.8708 101.943C39.1169 98.6815 38.1236 95.4799 36.899 92.3643C34.5735 86.7264 31.4747 81.4396 27.6916 76.6561C24.7463 72.9943 22.6236 70.9777 22.7828 70.792C23.3983 71.1233 23.9616 71.5435 24.4545 72.0391C25.8677 73.2763 27.1974 74.6059 28.4346 76.0192C32.5416 80.7489 35.8326 86.1293 38.1726 91.9397C39.4376 95.132 40.4317 98.425 41.1444 101.784C41.6904 104.53 42.0011 107.317 42.0731 110.116C42.1587 111.993 42.0877 113.875 41.8609 115.741C41.8209 116.407 41.6684 117.062 41.4098 117.678Z" fill="#263238"/>
<rect x="40.7847" y="128.185" width="31.834" height="37.1478" transform="rotate(-32.4834 40.7847 128.185)" fill="#FA9706"/>
</svg>
