<svg width="160" height="160" viewBox="0 0 160 160" fill="none" xmlns="http://www.w3.org/2000/svg">
<path d="M136.168 100.565C149.33 67.8067 137.506 32.2127 109.758 21.0638C82.0101 9.91482 48.8459 27.4327 35.6837 60.1912C22.5216 92.9496 34.3457 128.544 62.0936 139.692C89.8415 150.841 123.006 133.324 136.168 100.565Z" fill="#FA9706"/>
<g opacity="0.1">
<path opacity="0.1" d="M136.168 100.565C149.33 67.8066 137.506 32.2126 109.758 21.0636C82.0101 9.91465 48.8459 27.4326 35.6837 60.191C22.5216 92.9494 34.3457 128.543 62.0936 139.692C89.8415 150.841 123.006 133.323 136.168 100.565Z" fill="#0C0114"/>
<path opacity="0.1" d="M83.459 16.9478L96.3303 17.9008L75.2165 142.876L62.3452 141.923L83.459 16.9478Z" fill="#0C0114"/>
</g>
<path d="M124.316 99.6883C137.478 66.9298 125.654 31.3359 97.9064 20.1869C70.1585 9.03797 36.9943 26.5559 23.8322 59.3143C10.67 92.0727 22.4941 127.667 50.2421 138.816C77.99 149.965 111.154 132.447 124.316 99.6883Z" fill="#FA9706"/>
<path d="M113.269 95.2495C123.536 69.696 114.311 41.9302 92.6646 33.2327C71.018 24.5353 45.1468 38.1997 34.8796 63.7532C24.6123 89.3066 33.8371 117.072 55.4836 125.77C77.1302 134.467 103.001 120.803 113.269 95.2495Z" fill="white"/>
<path d="M102.348 90.8568C109.751 72.4322 103.099 52.4121 87.4906 46.1407C71.882 39.8692 53.2275 49.7213 45.8246 68.1459C38.4217 86.5705 45.0737 106.591 60.6823 112.862C76.2909 119.134 94.9454 109.281 102.348 90.8568Z" fill="#3E0563"/>
<path d="M91.2894 86.4134C95.7974 75.1937 91.7499 63.0037 82.249 59.1863C72.7481 55.3689 61.3917 61.3697 56.8837 72.5893C52.3757 83.809 56.4232 95.999 65.9241 99.8164C75.425 103.634 86.7814 97.633 91.2894 86.4134Z" fill="white"/>
<path d="M82.58 78.4824C82.58 83.7299 78.7434 88.4452 74.0528 89.0145C69.3622 89.5838 65.5999 85.8091 65.6246 80.574C65.6494 75.3388 69.4736 70.673 74.1518 70.0294C78.83 69.3859 82.6048 73.2349 82.58 78.4824Z" fill="#FA9706"/>
</svg>
