<svg width="128" height="131" viewBox="0 0 128 131" fill="none" xmlns="http://www.w3.org/2000/svg">
<path d="M22.8763 -0.484009L22.6753 -1.28699L22.2443 -0.580994L18.4383 5.64401L15.5503 -4.47101L15.3303 -5.23999L14.9193 -4.55402L10.7563 2.39099L10.5693 2.702L10.8883 2.875L18.1473 6.79901L25.1643 11.167L31.9034 15.961L32.6273 16.476L32.4433 15.606L29.9753 3.944L29.7973 3.10199L29.3413 3.83301L25.4953 10.001L22.8763 -0.484009Z" fill="#1F0231" stroke="#D8CDE0" stroke-opacity="0.1" stroke-width="0.693723"/>
<path d="M102.262 5.34702L102.744 4.84802L85.7488 -12.546L85.7348 -12.56L85.7188 -12.573L66.6268 -28.053L66.1748 -27.527L102.262 5.34702Z" fill="#D8CDE0" fill-opacity="0.1" stroke="#D8CDE0" stroke-opacity="0.1" stroke-width="0.693723"/>
<path d="M29.9302 4.20007L30.1143 3.90506L29.8192 3.72205L23.0153 -0.512939L23.0262 -0.529938L22.7142 -0.699951L21.9962 -1.14694L22.0122 -1.08093L15.3822 -4.68094L14.6562 -5.07495L14.8832 -4.28094L17.9883 6.59506L18.2052 7.35507L18.6183 6.68005L22.4042 0.487061L25.0202 10.9631L25.2182 11.7561L25.6512 11.0621L29.9302 4.20007ZM36.7922 8.78506L36.6412 7.89706L36.1582 8.65707L31.8112 15.4921L31.6462 15.7531L31.8862 15.9471L38.2882 21.1421L39.0042 21.7231L38.8482 20.8151L36.7922 8.78506Z" fill="#1F0231" stroke="#D8CDE0" stroke-opacity="0.1" stroke-width="0.693723"/>
<path d="M7.578 -8.32401L7.146 -8.526L7.16602 -8.465L0.368988 -11.126L0.17099 -11.689L-0.0570068 -11.293L-0.483002 -11.46L-0.285004 -10.896L-4.27701 -3.96799L-4.479 -3.617L-4.10101 -3.47101L3.32999 -0.609009L3.52499 -0.0559998L3.74399 -0.429016L10.77 2.82001L10.957 3.40601L11.191 3.01498L11.624 3.215L11.432 2.61301L15.343 -3.91299L22.365 -0.100006L29.327 4.233L31.765 15.75L31.941 16.581L32.397 15.864L36.26 9.78799L38.142 20.798L38.057 20.929L38.185 21.047L38.314 21.807L38.573 21.408L44.266 26.697L44.967 27.348L44.846 26.399L43.286 14.137L43.387 13.981L43.252 13.873L43.15 13.071L42.844 13.544L36.91 8.767L36.92 8.75L36.762 8.63901L34.329 -3.03601L34.153 -3.883L33.695 -3.14899L29.777 3.13501L27.168 -7.50201L26.97 -8.311L26.535 -7.60001L22.659 -1.26102L19.786 -11.536L19.569 -12.312L19.154 -11.621L15.08 -4.823L8.20999 -8.03L8.22299 -8.05099L7.99802 -8.13901L7.81201 -8.72202L7.578 -8.32401Z" fill="#1F0231" stroke="#D8CDE0" stroke-opacity="0.1" stroke-width="0.693723"/>
<path d="M102.248 5.33307L102.752 4.85605L94.5569 -4.08395L94.5499 -4.09195L94.5419 -4.09894L85.7409 -12.554L85.2529 -12.0609L102.248 5.33307Z" fill="#D8CDE0" fill-opacity="0.1" stroke="#D8CDE0" stroke-opacity="0.1" stroke-width="0.693723"/>
<path d="M34.284 -2.78198L34.468 -3.07596L34.173 -3.25998L27.014 -7.71396L26.291 -8.16296L26.494 -7.33597L29.299 4.09903L29.495 4.89804L29.93 4.20004L34.284 -2.78198Z" fill="#1F0231" stroke="#D8CDE0" stroke-opacity="0.1" stroke-width="0.693723"/>
<path d="M26.7081 -6.55307L26.9451 -6.94006L33.6801 -2.74905L36.0821 8.77594L35.9911 8.91895L36.1361 9.03494L36.2851 9.74994L36.5351 9.35593L42.5991 14.2379L44.1421 26.3589L44.0621 26.4799L44.1721 26.5979L44.2761 27.4149L44.5491 27.0019L49.6871 32.5209L49.7571 33.3899L50.0671 32.9289L50.4481 33.3389L50.3781 32.4659L54.8941 25.7539L55.0491 25.5229L54.8581 25.3219L49.4411 19.5949L49.4531 19.5779L49.3351 19.4699L49.2661 18.6019L49.2271 18.6599L47.8741 7.92194L47.9141 7.95395L47.7871 7.19394L47.8851 7.04395L47.7491 6.93494L47.6481 6.13293L47.6181 6.17993L45.7151 -5.24506L45.5661 -6.13806L45.0801 -5.37405L41.0641 0.940948L41.0401 0.978943L38.7871 -10.0041L38.8981 -10.1811L38.7291 -10.2851L38.5851 -10.9901L38.3081 -10.5471L31.6731 -14.6741L31.6831 -14.6911L31.4991 -14.7921L31.3391 -15.4571L31.0841 -15.0401L30.6621 -15.3031L30.6771 -15.2421L24.0571 -18.8661L23.8811 -19.5081L23.6351 -19.0971L23.2111 -19.3301L23.3871 -18.6841L19.3251 -11.9061L18.8961 -12.1401L18.9131 -12.0791L12.3951 -15.1521L12.4071 -15.1731L12.1851 -15.2611L12.0011 -15.8511L11.7641 -15.4491L11.3371 -15.6501L11.3551 -15.5911L4.51309 -18.3141L4.31808 -18.8861L4.08609 -18.4841L3.6651 -18.6521L3.85809 -18.0881L-0.0668945 -11.2751L-7.33792 -13.5611L-7.54089 -14.093L-7.7659 -13.6961L-8.18192 -13.8271L-7.98392 -13.3091L-11.9379 -6.31107L-12.1499 -5.93506L-11.7379 -5.80807L-4.2399 -3.51306L-4.03992 -2.98907L-3.8129 -3.38205L-3.3989 -3.25507L-3.5929 -3.76407L0.246094 -10.4291L7.4411 -7.61206L7.63409 -7.04907L7.85709 -7.42908L14.9311 -4.12607L15.1161 -3.53305L15.3531 -3.92908L15.7811 -3.72906L15.5941 -4.33105L19.3351 -10.5721L22.2061 -0.306061L22.4201 0.460938L22.8361 -0.219055L26.7081 -6.55307Z" fill="#1F0231" stroke="#D8CDE0" stroke-opacity="0.1" stroke-width="0.693723"/>
<path d="M16.4941 -22.3499L16.2641 -23.1069L15.8631 -22.4249L11.6041 -15.1759L11.4121 -14.8479L11.7551 -14.6859L19.3041 -11.1289L20.0111 -10.795L19.7831 -11.5429L16.4941 -22.3499ZM45.6651 -5.00195L45.8431 -5.28094L45.5721 -5.47195L38.6191 -10.3539L37.9041 -10.8549L38.0801 -9.99994L40.5331 1.95807L40.7051 2.79907L41.1651 2.07507L45.6651 -5.00195ZM53.8671 12.8941L54.0311 12.6461L53.8111 12.446L47.6561 6.86206L46.9611 6.23105L47.0791 7.16205L48.6561 19.6771L48.7741 20.606L49.2901 19.8241L53.8671 12.8941Z" fill="#1F0231" stroke="#D8CDE0" stroke-opacity="0.1" stroke-width="0.693723"/>
<path d="M24.059 -18.455L24.255 -18.782L23.91 -18.946L16.312 -22.562L15.602 -22.9L15.831 -22.148L19.12 -11.341L19.347 -10.594L19.749 -11.264L24.059 -18.455ZM54.98 26.46L55.031 26.513L54.953 25.541L54.921 24.471L54.873 24.542L53.924 12.675L53.844 11.672L53.289 12.512L48.711 19.442L48.559 19.672L48.749 19.871L54.164 25.597L49.735 32.179L49.594 32.39L49.751 32.588L54.722 38.866L55.372 39.686L55.341 38.64L54.98 26.46ZM-7.43796 -12.866L-0.00897217 -10.53L0.666046 -10.318L0.420044 -10.981L-3.16998 -20.668L-3.42996 -21.369L-3.79797 -20.718L-7.77597 -13.677L-15.241 -15.418L-15.897 -15.571L-15.64 -14.948L-11.957 -6.00801L-11.685 -5.34801L-11.334 -5.96901L-7.43796 -12.866Z" fill="#1F0231" stroke="#D8CDE0" stroke-opacity="0.1" stroke-width="0.693723"/>
<path d="M-14.999 -15.212L-15.274 -15.879L-15.623 -15.248L-19.628 -8.02402L-19.853 -7.61804L-19.4 -7.51703L-11.712 -5.80203L-11.062 -5.65604L-11.315 -6.27203L-14.999 -15.212ZM52.325 -0.125031L52.225 -0.92804L51.915 -0.450043L45.687 -5.38104L43.268 -17.368L43.095 -18.224L42.634 -17.483L38.566 -10.96L35.979 -21.91L35.785 -22.73L35.346 -22.011L31.324 -15.432L28.482 -26.041L28.271 -26.832L27.85 -26.129L23.464 -18.811L23.278 -18.502L23.595 -18.329L31.023 -14.262L38.228 -9.78003L45.054 -4.98703L47.058 7.04297L46.971 7.17697L47.1 7.29398L47.227 8.05698L47.492 7.64996L53.345 12.96L54.038 13.589L53.922 12.66L52.359 0.141968L52.461 -0.0170288L52.325 -0.125031ZM0.394958 -10.688L4.38797 -17.618L11.625 -14.737L11.815 -14.166L12.051 -14.568L12.468 -14.402L12.282 -14.96L16.461 -22.074L16.665 -22.42L16.293 -22.571L8.73096 -25.631L8.53796 -26.212L8.30298 -25.804L7.88596 -25.973L8.07498 -25.407L4.07596 -18.467L-3.38904 -20.878L-4.06903 -21.097L-3.82101 -20.427L-0.231018 -10.74L0.0259705 -10.047L0.394958 -10.688Z" fill="#1F0231" stroke="#D8CDE0" stroke-opacity="0.1" stroke-width="0.693723"/>
<path d="M43.1189 -17.5889L42.4159 -18.08L42.4289 -18.0179L36.1169 -21.9429L36.1269 -21.9589L35.8169 -22.1299L35.1109 -22.5689L35.1239 -22.5099L28.6299 -26.0819L28.6399 -26.0989L28.3059 -26.2599L27.6019 -26.6469L27.6169 -26.5909L20.7859 -29.8739L20.6029 -30.4919L20.3599 -30.0779L19.9419 -30.2789L20.1219 -29.6729L15.8629 -22.4249L15.6719 -22.0989L16.0129 -21.9359L23.4719 -18.386L23.6529 -17.778L23.8969 -18.1839L24.3149 -17.985L24.1369 -18.5849L28.0239 -25.0709L30.8619 -14.472L31.0719 -13.6909L31.4929 -14.3799L35.4979 -20.9299L38.0819 -9.98993L38.2729 -9.17993L38.7139 -9.88596L42.7599 -16.3759L45.0049 -5.25595L44.9119 -5.10995L45.0569 -4.99493L45.2029 -4.27493L45.4589 -4.67694L51.6719 0.243073L53.2179 12.619L53.1359 12.7431L53.2419 12.8541L54.2509 25.4671L54.1749 25.5791L54.2629 25.6871L54.6469 38.6611L54.6789 39.7251L55.2799 38.8461L59.6909 32.4041L60.0459 32.843L60.0179 31.9271L60.0999 31.8071L60.0109 31.6971L59.6449 19.5161L59.6939 19.567L59.6259 18.7191L59.7149 18.5881L59.6129 18.4821L59.5849 17.5381L59.5379 17.6081L58.5919 5.74207L58.6909 5.59106L58.5719 5.48407L58.5029 4.61807L58.1689 5.12305L52.3209 -0.11795L50.3159 -12.3149L50.4229 -12.4839L50.2709 -12.5899L50.1469 -13.3429L49.8539 -12.8819L43.3959 -17.3949L43.4059 -17.4109L43.1189 -17.5889Z" fill="#1F0231" stroke="#D8CDE0" stroke-opacity="0.1" stroke-width="0.693723"/>
<path d="M-3.33316 -20.131L3.96783 -17.774L4.16284 -17.229L4.39685 -17.635L4.80185 -17.504L4.61786 -18.017L8.60184 -24.934L15.8818 -21.989L16.0699 -21.408L16.3098 -21.816L16.7209 -21.649L16.5399 -22.208L20.6349 -29.177L27.9879 -25.643L35.3438 -21.598L35.5118 -20.954L35.7549 -21.351L42.6219 -17.081L42.7788 -16.405L43.0288 -16.806L49.6328 -12.189L51.6349 -0.0170288L51.5458 0.118958L51.6758 0.235962L51.8018 0.999969L52.0688 0.587982L57.9019 5.81598L58.9239 18.645L59.3178 31.721L54.7079 38.454L54.5758 38.646L54.7039 38.841L58.9088 45.25L59.5068 46.162L59.5458 45.072L60.0108 31.937L64.7119 25.071L64.8599 24.855L64.6938 24.654L59.7029 18.605L64.3069 11.761L64.4638 11.527L64.2668 11.325L58.6798 5.60797L63.2689 -1.33804L63.4348 -1.59003L63.2089 -1.78903L57.1099 -7.18802L57.1198 -7.20303L56.9828 -7.31104L56.8839 -8.11404L56.8549 -8.07004L54.9768 -19.646L55.0848 -19.816L54.9319 -19.922L54.8098 -20.676L54.5149 -20.212L47.9858 -24.755L47.9948 -24.77L47.8279 -24.874L47.6859 -25.586L47.4149 -25.152L47.0089 -25.435L47.0208 -25.376L40.6399 -29.342L40.6498 -29.357L40.4678 -29.458L40.3109 -30.133L40.0508 -29.708L39.6378 -29.964L39.6508 -29.909L32.9099 -33.632L32.7379 -34.286L32.4858 -33.866L32.0709 -34.095L32.2389 -33.454L28.2589 -26.813L25.2438 -37.235L25.0198 -38.009L24.6108 -37.314L20.3509 -30.063L13.0238 -33.078L12.8329 -33.669L12.5948 -33.255L12.1829 -33.424L12.3658 -32.858L8.29285 -25.788L0.95285 -28.221L0.753845 -28.775L0.521851 -28.364L0.115845 -28.498L0.302856 -27.977L-3.66916 -20.947L-10.9872 -22.729L-11.1912 -23.242L-11.4182 -22.833L-11.8141 -22.93L-11.6262 -22.458L-15.5071 -15.458L-22.7661 -16.51L-22.9731 -16.979L-23.1952 -16.572L-23.5761 -16.627L-23.3922 -16.21L-27.2932 -9.04202L-27.5352 -8.59903L-27.0352 -8.53204L-19.5641 -7.53802L-19.3601 -7.07703L-19.1361 -7.48102L-18.7581 -7.43002L-18.9381 -7.83804L-15.1432 -14.683L-7.85715 -12.984L-7.65616 -12.479L-7.42816 -12.884L-7.03415 -12.792L-7.21814 -13.255L-3.33316 -20.131Z" fill="#1F0231" stroke="#D8CDE0" stroke-opacity="0.1" stroke-width="0.693723"/>
<path d="M39.9891 -28.929L32.4441 -33.097L32.4351 -33.102L32.4261 -33.1069L-21.5859 -67.315L-21.5879 -67.316L-21.2269 -67.891V-67.892L39.9891 -28.929ZM39.9891 -28.929L-21.2269 -67.892L39.9891 -28.929ZM39.9891 -28.929L47.3341 -24.364L47.7001 -24.953V-24.9539L-21.2109 -67.8979L-21.2169 -67.902L39.9891 -28.929ZM-21.2269 -67.892L-21.2189 -67.903L-21.2269 -67.892ZM66.6421 -28.04L66.3871 -27.795L66.0761 -27.685L73.4431 -2.83595L73.4651 -2.76295L73.5151 -2.70497L78.9671 3.48805L79.5481 3.12703L67.5851 -25.844L123.782 41.058L124.344 40.6561L102.793 4.91106L102.767 4.86806L102.73 4.83403L66.6421 -28.04Z" fill="#D8CDE0" fill-opacity="0.1" stroke="#D8CDE0" stroke-opacity="0.1" stroke-width="0.693723"/>
<path d="M32.9094 -33.222L33.1044 -33.547L32.7634 -33.712L25.0624 -37.45L24.3614 -37.791L24.5774 -37.042L27.8144 -25.855L28.0354 -25.09L28.4454 -25.773L32.9094 -33.222ZM64.2524 38.407L64.3884 38.212L64.2554 38.015L59.9564 31.63L59.3604 30.744L59.3224 31.812L58.8534 45.048L58.8114 46.225L59.4844 45.258L64.2524 38.407ZM64.3934 12.447L64.4414 12.496L64.3664 11.549L64.3334 10.48L64.2864 10.549L63.3254 -1.55702L63.2454 -2.56203L62.6904 -1.72102L57.9474 5.45897L57.7934 5.69197L57.9894 5.89198L63.5744 11.608L58.9834 18.432L58.8394 18.647L59.0034 18.847L64.1594 25.095L64.8044 25.878L64.7734 24.864L64.3934 12.447ZM0.845398 -27.526L8.34439 -25.04L9.01138 -24.819L8.7804 -25.483L5.26639 -35.589L5.0144 -36.314L4.63638 -35.646L0.51239 -28.346L-6.83261 -30.212L-7.03461 -30.739L-7.26559 -30.322L-7.65561 -30.421L-7.4736 -29.947L-11.5456 -22.602L-11.7666 -22.204L-11.3246 -22.097L-3.7536 -20.254L-3.5556 -19.736L-3.3226 -20.149L-2.9346 -20.054L-3.11261 -20.519L0.845398 -27.526Z" fill="#1F0231" stroke="#D8CDE0" stroke-opacity="0.1" stroke-width="0.693723"/>
<path d="M61.7249 -14.626L61.6259 -15.4299L61.3129 -14.9469L54.8269 -19.9949L54.1299 -20.537L54.2709 -19.666L56.2929 -7.20296L56.2029 -7.06395L56.334 -6.94896L56.4579 -6.18297L56.7279 -6.59895L62.7499 -1.26994L63.4349 -0.662949L63.3239 -1.57195L61.7579 -14.358L61.8619 -14.519L61.7249 -14.626ZM13.045 -32.645L13.2549 -33.011L12.8559 -33.147L5.04993 -35.804L4.37695 -36.033L4.61093 -35.362L8.12494 -25.255L8.37494 -24.539L8.75293 -25.196L13.045 -32.645ZM64.7729 24.887L64.8139 23.694L64.14 24.679L59.3819 31.628L59.2489 31.822L59.381 32.017L63.6799 38.403L64.278 39.2901L64.3139 38.2211L64.7729 24.887Z" fill="#1F0231" stroke="#D8CDE0" stroke-opacity="0.1" stroke-width="0.693723"/>
<path d="M115.514 23.478L116.083 23.08L110.042 14.042L110.035 14.031L110.026 14.02L102.768 4.875L102.216 5.29498L115.514 23.478Z" fill="#D8CDE0" fill-opacity="0.1" stroke="#D8CDE0" stroke-opacity="0.1" stroke-width="0.693723"/>
<path d="M64.3119 38.248L63.6829 38.011L58.9149 44.862L58.7949 45.034L58.8918 45.22L62.1668 51.526L62.6909 52.535L62.8199 51.405L64.3119 38.248ZM69.1408 4.57599L69.2998 4.34L69.0988 4.138L63.2249 -1.77399L62.5588 -2.44501L62.6339 -1.50201L63.6729 11.587L64.0798 24.885L64.1118 25.948L64.7129 25.071L69.5569 17.996L69.7058 17.778L69.5359 17.576L64.4529 11.545L69.1408 4.57599ZM-22.7011 -16.028L-22.4362 -16.514L-22.9892 -16.54L-30.3502 -16.885L-30.9102 -16.911L-30.6841 -16.399L-27.3062 -8.73599L-27.0211 -8.09L-26.6841 -8.70999L-22.7011 -16.028Z" fill="#1F0231" stroke="#D8CDE0" stroke-opacity="0.1" stroke-width="0.693723"/>
<path d="M66.7219 -27.931L66.0879 -27.651L78.9059 3.39096L78.9229 3.43198L78.9489 3.46698L83.6519 9.73495L84.2439 9.37897L66.7219 -27.931Z" fill="#D8CDE0" fill-opacity="0.1" stroke="#D8CDE0" stroke-opacity="0.1" stroke-width="0.693723"/>
<path d="M68.1417 -9.00705L68.0737 -9.87106L67.7367 -9.36105L61.6257 -14.7021L60.9427 -15.2981L61.0527 -14.3981L62.6187 -1.61407L62.5337 -1.48508L62.6487 -1.36905L62.7487 -0.552063L63.0337 -0.983063L68.4057 4.42493L63.7307 11.3739L63.5847 11.5909L63.7537 11.7919L69.0047 18.0229L69.6477 18.7859L69.6167 17.7889L69.2267 5.25095L69.2727 5.29794L69.1997 4.36295L69.1657 3.29492L69.1197 3.36295L68.1627 -8.74707L68.2637 -8.90106L68.1417 -9.00705ZM-30.0493 -16.6781L-30.3363 -17.3301L-30.6723 -16.7021L-34.6423 -9.28406L-34.9053 -8.79306L-34.3473 -8.77405L-27.0003 -8.52905L-26.4493 -8.51108L-26.6713 -9.01605L-30.0493 -16.6781ZM69.1067 31.4319L69.2447 31.2349L69.1077 31.0369L64.7117 24.6779L64.1157 23.8159L64.0797 24.8629L63.6207 38.1969L63.5807 39.3719L64.2517 38.407L69.1067 31.4319Z" fill="#1F0231" stroke="#D8CDE0" stroke-opacity="0.1" stroke-width="0.693723"/>
<path d="M5.09912 -35.054L12.4701 -32.545L12.6611 -31.979L12.9021 -32.398L13.2971 -32.264L13.1231 -32.781L17.4131 -40.229L17.6221 -40.591L17.2271 -40.729L9.54514 -43.415L9.35114 -43.991L9.11111 -43.566L8.71613 -43.704L8.89313 -43.179L4.76813 -35.879L-2.60388 -37.833L-2.80386 -38.373L-3.03888 -37.948L-3.42389 -38.05L-3.24689 -37.572L-7.27689 -30.303L-14.5729 -31.54L-14.7759 -32.04L-15.0079 -31.614L-15.3769 -31.677L-15.2049 -31.252L-19.1499 -24.004L-26.3029 -24.439L-26.8599 -24.473L-26.6439 -23.958L-23.3249 -16.059L-23.0459 -15.394L-22.7009 -16.028L-18.7629 -23.264L-11.4899 -22.122L-11.2909 -21.632L-11.0569 -22.054L-10.6899 -21.996L-10.8589 -22.411L-6.91888 -29.518L0.421112 -27.654L0.618134 -27.123L0.855133 -27.543L1.23813 -27.446L1.06512 -27.914L5.09912 -35.054ZM69.6171 17.811L69.6571 16.622L68.9841 17.604L64.1401 24.679L64.0051 24.876L64.1411 25.072L68.4001 31.233L64.0061 37.547L63.7481 37.067L63.6331 38.083L63.5611 38.186L63.6111 38.278L62.1301 51.327L62.7581 51.566L67.2961 45.14L67.5571 45.625L67.6711 44.609L67.7441 44.506L67.6931 44.413L69.0641 32.193L69.1341 32.294L69.1691 31.245L69.6171 17.811ZM74.0631 -2.74097L74.2231 -2.97897L74.0191 -3.18097L68.0511 -9.08597L67.3881 -9.74197L67.4621 -8.81198L68.5071 4.41003L68.5861 5.40103L69.1411 4.57602L74.0631 -2.74097Z" fill="#1F0231" stroke="#D8CDE0" stroke-opacity="0.1" stroke-width="0.693723"/>
<path d="M74.4901 10.792L74.6401 10.572L74.4661 10.369L69.1161 4.15598L68.4761 3.41296L68.507 4.39297L68.9241 17.811L68.9571 18.872L69.5571 17.996L74.4901 10.792Z" fill="#1F0231" stroke="#D8CDE0" stroke-opacity="0.1" stroke-width="0.693723"/>
<path d="M66.7198 -27.937L66.0938 -27.636L66.0968 -27.631L83.6158 9.674L83.6237 9.69197L83.6348 9.70897L87.4068 15.822L88.0138 15.487L66.7218 -27.931L66.7198 -27.937Z" fill="#D8CDE0" fill-opacity="0.1" stroke="#D8CDE0" stroke-opacity="0.1" stroke-width="0.693723"/>
<path d="M-26.0037 -24.227L-26.2857 -24.8979L-26.6297 -24.256L-30.6717 -16.702L-30.9307 -16.2179L-30.3817 -16.192L-23.0217 -15.847L-22.4727 -15.821L-22.6857 -16.328L-26.0037 -24.227ZM74.0513 24.3291L74.1903 24.129L74.0493 23.93L69.5544 17.599L68.9583 16.761L68.9243 17.788L68.4763 31.222L68.4373 32.395L69.1073 31.4321L74.0513 24.3291ZM74.1223 -2.94496L74.0883 -4.02095L73.4883 -3.12794L68.5653 4.18904L68.4183 4.40804L68.5903 4.60905L73.9413 10.822L74.5813 11.5661L74.5503 10.585L74.1223 -2.94496Z" fill="#1F0231" stroke="#D8CDE0" stroke-opacity="0.1" stroke-width="0.693723"/>
<path d="M67.663 44.621L72.571 37.67L72.697 37.492L72.591 37.302L69.126 31.065L68.599 30.117L68.478 31.195L67.002 44.354L62.192 51.166L62.085 51.317L62.151 51.489L64.485 57.648L64.918 58.79L65.15 57.592L67.663 44.621ZM9.573 -42.972L9.79102 -43.359L9.36301 -43.477L1.703 -45.593L1.50601 -46.146L1.26599 -45.714L0.886993 -45.818L1.05801 -45.338L-3.04901 -37.929L-10.363 -39.264L-10.564 -39.779L-10.8 -39.344L-11.165 -39.41L-10.997 -38.981L-15.126 -31.397L-15.358 -30.97L-14.879 -30.889L-7.34399 -29.611L-7.147 -29.106L-6.90799 -29.537L-6.547 -29.476L-6.70999 -29.895L-2.694 -37.139L4.673 -35.187L4.867 -34.643L5.10901 -35.071L5.48599 -34.971L5.31799 -35.443L9.573 -42.972ZM-30.06 -16.375L-29.765 -16.926L-30.389 -16.885L-36.892 -16.452L-37.077 -16.916L-37.337 -16.423L-37.62 -16.404L-37.502 -16.11L-41.392 -8.73099L-41.687 -8.172L-41.057 -8.224L-34.563 -8.754L-34.381 -8.29999L-34.119 -8.79102L-33.839 -8.81299L-33.954 -9.10001L-30.06 -16.375ZM74.55 10.607L74.588 9.41901L73.917 10.4L68.985 17.604L68.848 17.803L68.988 18.001L73.483 24.331L74.08 25.171L74.113 24.142L74.55 10.607Z" fill="#1F0231" stroke="#D8CDE0" stroke-opacity="0.1" stroke-width="0.693723"/>
<path d="M74.1111 24.169L73.481 23.932L68.5381 31.035L68.4141 31.213L68.5191 31.402L71.9841 37.638L72.5121 38.589L72.632 37.508L74.1111 24.169Z" fill="#1F0231" stroke="#D8CDE0" stroke-opacity="0.1" stroke-width="0.693723"/>
<path d="M123.85 41.12L124.313 40.612L66.6742 -28.007L66.0972 -27.631L87.3911 15.793L87.4312 15.874L87.5052 15.925L123.85 41.12Z" fill="#D8CDE0" fill-opacity="0.1" stroke="#D8CDE0" stroke-opacity="0.1" stroke-width="0.693723"/>
<path d="M-14.5168 -31.065L-14.2599 -31.5359L-14.7949 -31.577L-22.1808 -32.132L-22.7358 -32.174L-22.5288 -31.658L-19.2729 -23.515L-18.9988 -22.83L-18.6458 -23.478L-14.5168 -31.065ZM79.5132 3.45503L79.6652 3.23204L79.4872 3.03004L74.0362 -3.16396L73.3982 -3.88795L73.4282 -2.92296L73.8561 10.607L73.8902 11.667L74.4892 10.792L79.5132 3.45503Z" fill="#1F0231" stroke="#D8CDE0" stroke-opacity="0.1" stroke-width="0.693723"/>
<path d="M123.75 41.014L124.361 40.687L116.108 23.126L116.094 23.095L116.075 23.068L102.776 4.88599L102.199 5.26901L123.75 41.014Z" fill="#D8CDE0" fill-opacity="0.1" stroke="#D8CDE0" stroke-opacity="0.1" stroke-width="0.693723"/>
<path d="M-21.8848 -31.915L-22.1618 -32.607L-22.5128 -31.95L-26.5378 -24.429L-32.8468 -24.109L-33.0298 -24.594L-33.2968 -24.086L-33.5738 -24.072L-33.4618 -23.774L-37.4278 -16.251L-37.7168 -15.702L-37.0978 -15.743L-30.5998 -16.175L-30.4208 -15.701L-30.1508 -16.205L-29.8768 -16.224L-29.9858 -16.514L-26.1228 -23.733L-18.9718 -23.298L-18.4248 -23.265L-18.6288 -23.773L-21.8848 -31.915ZM69.6752 51.317L69.8792 51.831L70.0892 50.738L70.1552 50.646L70.1222 50.564L72.6142 37.609L77.6142 30.529L77.7412 30.348L77.6312 30.156L74.1762 24.148L78.8082 17.494L79.1162 17.917L79.1452 17.01L79.2272 16.891L79.1512 16.788L79.5742 3.26997L79.6112 2.08498L78.9412 3.06297L74.1942 9.99498L73.8892 9.57698L73.8602 10.483L73.7782 10.602L73.8532 10.704L73.4202 24.106L71.9522 37.343L67.4232 43.758L67.2222 43.251L67.0102 44.342L66.9452 44.435L66.9772 44.515L64.4692 57.46L65.0912 57.727L69.6752 51.317ZM1.7402 -45.138L1.97223 -45.555L1.50421 -45.647L-6.0748 -47.131L-6.2728 -47.661L-6.51477 -47.217L-6.87378 -47.287L-6.7128 -46.854L-10.9208 -39.123L-11.1498 -38.702L-10.6778 -38.616L-3.12277 -37.238L-2.9278 -36.717L-2.68378 -37.157L-2.32779 -37.093L-2.48578 -37.515L1.7402 -45.138Z" fill="#1F0231" stroke="#D8CDE0" stroke-opacity="0.1" stroke-width="0.693723"/>
<path d="M78.8802 3.248L78.4582 16.783L73.4812 23.933L73.3562 24.113L73.4652 24.304L76.9192 30.31L72.3672 36.757L72.1652 36.271L71.9612 37.331L71.8942 37.426L71.9272 37.507L69.4362 50.458L64.5272 57.324L64.4362 57.451L64.4712 57.604L65.8452 63.564L66.5172 63.579L70.0802 50.75L74.7282 44.251L74.9322 44.744L75.1352 43.681L75.2032 43.587L75.1692 43.505L77.4962 31.312L77.5592 31.423L77.6652 30.456L82.7512 23.253L82.8812 23.069L82.7662 22.876L79.2132 16.911L84.2152 9.72502L84.3582 9.51903L84.2072 9.31902L79.5042 3.05101L78.9112 2.26003L78.8802 3.248ZM-10.3108 -38.791L-10.0588 -39.255L-10.5848 -39.303L-17.7658 -39.95L-17.9598 -40.459L-18.2108 -39.99L-18.5348 -40.019L-18.3928 -39.648L-22.4188 -32.126L-28.7258 -31.909L-28.9058 -32.416L-29.1808 -31.894L-29.4528 -31.884L-29.3458 -31.581L-33.3888 -23.911L-33.6728 -23.372L-33.0648 -23.403L-26.5648 -23.733L-26.3888 -23.236L-26.1108 -23.756L-25.8418 -23.77L-25.9458 -24.064L-22.0078 -31.423L-15.0668 -30.901L-14.8768 -30.402L-14.6238 -30.868L-14.3028 -30.844L-14.4398 -31.205L-10.3108 -38.791ZM-36.8138 -15.928L-36.4728 -16.574L-37.1898 -16.429L-42.9928 -15.257L-43.1558 -15.737L-43.4548 -15.164L-43.6788 -15.119L-43.5998 -14.886L-47.4998 -7.39299L-47.8418 -6.73598L-47.1178 -6.894L-41.3138 -8.16399L-41.1548 -7.69499L-40.8538 -8.265L-40.6318 -8.31297L-40.7088 -8.53899L-36.8138 -15.928Z" fill="#1F0231" stroke="#D8CDE0" stroke-opacity="0.1" stroke-width="0.693723"/>
<path d="M71.0691 57.317L71.2071 57.8761L71.5431 56.6601L71.6011 56.58L71.5841 56.5121L75.1431 43.6341L74.5261 43.3401L69.9181 49.7841L69.7821 49.2331L69.4451 50.446L69.3871 50.5261L69.4041 50.593L65.8481 63.3931L66.4641 63.6891L71.0691 57.317ZM84.2751 9.56406L83.6451 9.32907L78.5161 16.6981L78.3891 16.882L78.5031 17.0741L82.1701 23.231L82.7011 24.123L82.8121 23.0901L84.2751 9.56406ZM-6.02789 -46.6619L-5.7789 -47.1179L-6.2959 -47.1729L-13.7029 -47.9549L-14.2539 -48.0129L-14.0659 -47.4919L-10.9419 -38.8399L-10.6799 -38.1139L-10.3109 -38.7919L-6.02789 -46.6619Z" fill="#1F0231" stroke="#D8CDE0" stroke-opacity="0.1" stroke-width="0.693723"/>
<path d="M123.733 40.982L124.369 40.706L120.901 32.031L120.894 32.013L120.884 31.996L116.1 23.109L115.481 23.421L123.733 40.982Z" fill="#D8CDE0" fill-opacity="0.1" stroke="#D8CDE0" stroke-opacity="0.1" stroke-width="0.693723"/>
<path d="M79.8757 37.052L80.0807 37.5231L80.2757 36.4921L80.3457 36.3941L80.3097 36.3121L82.7937 23.192L87.9857 15.84L88.1177 15.653L87.9967 15.4581L84.2247 9.34505L83.6937 8.48405L83.5847 9.49004L82.1317 22.927L77.4027 29.625L77.1997 29.16L77.0037 30.19L76.9337 30.288L76.9687 30.369L74.4707 43.4631L70.9077 56.3551L65.9007 63.283L65.8277 63.3851L65.8367 63.5101L66.2217 69.21L66.8937 69.306L71.5347 56.672L76.6447 49.6001L76.7417 49.4671L76.6987 49.308L75.1857 43.61L79.8757 37.052ZM-38.8493 -22.729L-39.1013 -23.528L-39.4873 -22.785L-43.4693 -15.136L-48.7383 -13.1749L-49.0303 -13.066L-48.9533 -12.765L-47.5283 -7.14796L-47.3053 -6.26595L-46.8853 -7.07295L-42.9923 -14.5499L-37.0523 -15.7489L-36.6743 -15.8259L-36.7903 -16.194L-38.8493 -22.729ZM-17.7073 -39.46L-17.4293 -39.981L-18.0193 -39.971L-24.5273 -39.8569L-24.7033 -40.387L-24.9873 -39.849L-25.2543 -39.845L-25.1513 -39.537L-29.2753 -31.716L-29.5543 -31.187L-28.9563 -31.207L-22.4543 -31.431L-22.2823 -30.912L-21.9963 -31.447L-21.7313 -31.456L-21.8313 -31.754L-17.7073 -39.46Z" fill="#1F0231" stroke="#D8CDE0" stroke-opacity="0.1" stroke-width="0.693723"/>
<path d="M-48.2041 -12.634L-43.4741 -14.394L-43.3521 -13.859L-42.9771 -14.579L-42.8181 -14.638L-42.8571 -14.81L-38.9501 -22.315L-33.3281 -23.352L-33.1761 -22.829L-32.8541 -23.439L-32.6421 -23.478L-32.7101 -23.712L-29.0741 -30.609L-28.6611 -31.392L-28.3351 -32.011L-24.5641 -39.163L-18.2671 -39.273L-18.0981 -38.731L-17.8031 -39.281L-17.5441 -39.285L-17.6391 -39.589L-13.4341 -47.446L-13.1611 -47.957H-13.7401L-20.2481 -47.958L-20.4201 -48.511L-20.7121 -47.958H-20.9741L-20.8771 -47.645L-25.0001 -39.824L-30.9091 -38.954L-31.2941 -38.897L-31.1931 -38.521L-29.4021 -31.834L-34.8121 -30.934L-34.9671 -31.469L-35.2861 -30.856L-35.5011 -30.82L-35.4311 -30.579L-39.4241 -22.907L-44.3071 -21.183L-44.4321 -21.731L-44.8041 -21.008L-44.9661 -20.951L-44.9251 -20.773L-48.5061 -13.823L-48.9261 -13.009L-49.3361 -12.213L-52.9071 -5.28099L-53.3281 -4.46498L-52.4731 -4.799L-47.0661 -6.90999L-46.7811 -7.02199L-46.8561 -7.31898L-48.2041 -12.634ZM79.6229 36.212L79.5699 36.286L74.5259 43.34L74.4309 43.472L74.4729 43.63L75.9869 49.327L70.9439 56.304L70.8689 56.408L70.8739 56.46L66.2429 69.067L66.8489 69.391L71.9769 62.353L72.0539 62.249L72.0489 62.196L76.3119 50.55L76.3579 50.726L76.6819 49.549L81.4629 42.932L81.6079 43.44L81.9189 42.302L81.9809 42.217L81.9609 42.148L85.2699 30.042L85.3269 30.166L85.5149 29.165L85.5869 29.064L90.8099 21.76L90.9289 21.593L90.8409 21.409L88.0149 15.491L87.5569 14.532L87.3749 15.502L82.5329 22.359L82.3299 21.915L82.1409 22.915L82.0689 23.016L82.1059 23.097L79.6229 36.212Z" fill="#1F0231" stroke="#D8CDE0" stroke-opacity="0.1" stroke-width="0.693723"/>
<path d="M-30.523 -38.7L-30.754 -39.562L-31.166 -38.771L-35.366 -30.702L-35.687 -30.086L-35.002 -30.199L-28.911 -31.212L-28.534 -31.274L-28.633 -31.644L-30.523 -38.7ZM72.012 62.295L71.417 61.945L66.288 68.982L66.235 69.056L66.224 69.146L65.589 74.515L66.249 74.702L72.012 62.295Z" fill="#1F0231" stroke="#D8CDE0" stroke-opacity="0.1" stroke-width="0.693723"/>
<path d="M123.874 41.135L124.245 40.55L87.9001 15.355L86.8271 14.611L87.3892 15.79L90.2151 21.708L90.2611 21.805L90.3552 21.859L123.874 41.135Z" fill="#D8CDE0" fill-opacity="0.1" stroke="#D8CDE0" stroke-opacity="0.1" stroke-width="0.693723"/>
<path d="M-48.3092 -12.6911L-47.7502 -13.7761L-44.3132 -20.4451L-39.4402 -22.1651L-39.3253 -21.5951L-38.9352 -22.3441L-38.7802 -22.3991L-38.8152 -22.5741L-34.7513 -30.3821L-34.3553 -31.1421L-35.1682 -30.8711L-40.1602 -29.2091L-40.2782 -29.7921L-40.6653 -29.0401L-40.8232 -28.9881L-40.7863 -28.8061L-44.8212 -20.9751L-49.3262 -18.3601L-49.5193 -18.2471L-49.4973 -18.024L-48.9852 -13.0341L-52.9572 -10.6471L-53.0323 -11.2321L-53.4973 -10.3231L-53.6072 -10.257L-53.5912 -10.1391L-57.5472 -2.40405L-58.1143 -1.29507L-57.0552 -1.95105L-52.8742 -4.54306L-52.8012 -3.97208L-52.3352 -4.87805L-52.2263 -4.94507L-52.2412 -5.05905L-48.8432 -11.6541L-48.3092 -12.6911ZM71.4818 67.5439L77.2248 55.1519L77.2827 55.0729L77.2778 55.0199L81.9108 42.3139L86.8108 35.532L86.9588 36.0149L87.2567 34.9149L87.3208 34.8259L87.2997 34.7569L90.8628 21.6489L90.2458 21.3569L85.3148 28.2519L85.1698 27.7769L84.8698 28.8739L84.8068 28.963L84.8268 29.0309L81.2827 41.9979L76.0828 49.1939L76.0058 49.2999L76.0107 49.3519L71.3878 61.9839L71.3618 62.0199L71.3578 62.0549L65.6187 74.4089L66.2137 74.7599L71.4228 67.6559L71.4778 67.5799L71.4818 67.5439ZM-20.1962 -47.4491L-19.8853 -48.0391L-20.5472 -47.9551L-26.3132 -47.2201L-26.4592 -47.8131L-26.8002 -47.1581L-27.0063 -47.1321L-26.9442 -46.8811L-31.1662 -38.7711L-31.4792 -38.1691L-30.8082 -38.2681L-25.0372 -39.1171L-24.8952 -38.5371L-24.5512 -39.1891L-24.3482 -39.2191L-24.4073 -39.4611L-20.1962 -47.4491Z" fill="#1F0231" stroke="#D8CDE0" stroke-opacity="0.1" stroke-width="0.693723"/>
<path d="M123.91 41.153L124.22 40.534L90.701 21.258L89.918 20.807L90.198 21.666L92.052 27.339L92.101 27.489L92.245 27.55L123.91 41.153Z" fill="#D8CDE0" fill-opacity="0.1" stroke="#D8CDE0" stroke-opacity="0.1" stroke-width="0.693723"/>
<path d="M76.7941 60.2981L82.5551 47.8391L82.6141 47.757L87.9681 40.4101L88.0511 40.2971L88.0321 40.1591L87.3021 34.8531L92.6631 27.4351L92.7661 27.2921L92.7111 27.1241L90.8581 21.451L90.4971 20.3481L90.1931 21.4671L86.6211 34.6111L81.3201 41.9471L81.2411 42.0561L81.2471 42.1091L76.6161 54.8111L76.5881 54.8491L76.5851 54.8841L70.8431 67.274L65.6541 74.3501L65.6231 74.3931L65.6061 74.4431L63.9141 79.399L64.5431 79.683L71.4341 67.64L76.7341 60.412L76.7911 60.334L76.7941 60.2981ZM-48.8059 -18.0949L-48.9259 -19.2619L-49.4599 -18.2179L-53.5149 -10.2879L-57.2319 -6.79794L-57.3329 -6.70294L-57.3369 -6.63794L-61.3389 1.22705L-60.7899 1.63507L-56.9979 -1.99493L-56.8989 -2.08994L-56.8959 -2.15295L-52.9699 -9.82996L-48.4379 -12.5529L-48.2489 -12.666L-48.2719 -12.8849L-48.8059 -18.0949ZM-30.5499 -38.4509L-30.1649 -39.1899L-30.9609 -38.9419L-35.9309 -37.3899L-36.0419 -38.0119L-36.4449 -37.2299L-36.5989 -37.1819L-36.5659 -36.9969L-40.6819 -29.0069L-45.1579 -26.5029L-45.3519 -26.3949L-45.3339 -26.1729L-44.9039 -20.6989L-44.8089 -19.4829L-44.2499 -20.5669L-40.1779 -28.4709L-35.3289 -30.0859L-35.2209 -29.4789L-34.8159 -30.2569L-34.6639 -30.3069L-34.6959 -30.4859L-30.5499 -38.4509Z" fill="#1F0231" stroke="#D8CDE0" stroke-opacity="0.1" stroke-width="0.693723"/>
<path d="M123.958 41.17L124.184 40.516L92.5194 26.913L91.9414 26.665L92.0394 27.286L92.8874 32.656L92.9224 32.879L93.1404 32.937L123.958 41.17Z" fill="#D8CDE0" fill-opacity="0.1" stroke="#D8CDE0" stroke-opacity="0.1" stroke-width="0.693723"/>
<path d="M92.7079 27.35L92.0999 27.029L86.6579 34.56L86.5769 34.672L86.5959 34.81L87.3439 40.253L88.0139 40.324L92.7079 27.35ZM-44.6431 -26.228L-44.7391 -27.451L-45.2971 -26.359L-49.4321 -18.273L-53.1131 -14.888L-53.2141 -14.796L-53.2241 -14.66L-53.5801 -10.103L-52.9251 -9.918L-48.8891 -17.811L-44.3851 -20.426L-44.1961 -20.536L-44.2131 -20.754L-44.6431 -26.228ZM-26.2681 -46.677L-25.8941 -47.396L-26.6731 -47.17L-31.6201 -45.734L-31.7231 -46.395L-32.1421 -45.582L-32.2921 -45.539L-32.2621 -45.349L-36.5121 -37.101L-36.8921 -36.364L-36.1001 -36.611L-31.1391 -38.16L-31.0381 -37.514L-30.6171 -38.323L-30.4691 -38.369L-30.4981 -38.552L-26.2681 -46.677ZM69.8039 72.538L69.8369 72.493L69.8429 72.474L76.7549 60.379L76.1749 60.002L70.8629 67.246L70.8309 67.29L70.8249 67.309L63.9409 79.338L64.5209 79.716L69.8039 72.538Z" fill="#1F0231" stroke="#D8CDE0" stroke-opacity="0.1" stroke-width="0.693723"/>
<path d="M126.349 57.257L127.038 57.176L126.464 49.191L126.462 49.161L126.455 49.133L124.384 40.751L123.705 40.89L126.349 57.257Z" fill="#D8CDE0" fill-opacity="0.1" stroke="#D8CDE0" stroke-opacity="0.1" stroke-width="0.693723"/>
<path d="M82.1503 53.025L82.2093 52.945L82.2123 52.908L87.9893 40.383L93.5103 32.806L93.5953 32.69L93.5723 32.547L92.7243 27.178L92.0553 27.114L87.3793 40.042L81.9743 47.458L81.9153 47.538L81.9133 47.574L76.1403 60.062L76.7343 60.412L82.1503 53.025ZM-52.5327 -14.606L-53.1877 -14.79L-57.3037 -6.703L-56.7567 -6.29199L-52.9957 -9.823L-52.8977 -9.91501L-52.8877 -10.049L-52.5327 -14.606ZM-35.8947 -36.783L-35.3827 -37.776L-36.3677 -37.248L-40.9067 -34.81L-41.1007 -34.705L-41.0887 -34.485L-40.7677 -28.736L-40.6967 -27.464L-40.1127 -28.597L-35.8947 -36.783Z" fill="#1F0231" stroke="#D8CDE0" stroke-opacity="0.1" stroke-width="0.693723"/>
<path d="M-21.2999 -67.278L-21.4059 -67.9561L-61.0529 -67.625L-61.1779 -67.6241L-61.2739 -67.543L-83.6689 -48.564L-83.3409 -47.9691L-21.2999 -67.278ZM124.011 41.1799L124.137 40.5L93.3191 32.267L92.9001 32.155L92.8831 32.588L92.6851 37.5849L92.6721 37.91L92.9961 37.944L124.011 41.1799Z" fill="#D8CDE0" fill-opacity="0.1" stroke="#D8CDE0" stroke-opacity="0.1" stroke-width="0.693723"/>
<path d="M75.1947 65.212L75.2257 65.171L75.2317 65.151L82.1617 53.009L87.6747 45.491L87.7357 45.408L87.7377 45.371L93.5447 32.747L92.9487 32.397L87.4077 40.002L87.3477 40.084L87.3457 40.121L81.5697 52.643L76.1747 60.002L76.1407 60.048L76.1347 60.067L69.2337 72.143L63.9627 79.305L63.9547 79.316L63.9477 79.327L61.1597 83.776L61.5217 84.015L61.7327 84.166L67.0797 76.906L67.0877 76.896L67.0907 76.891L75.1947 65.212ZM-55.9783 -10.568L-57.3083 -6.69899L-60.1003 -2.45998L-60.1253 -2.42198L-60.1313 -2.403L-64.1973 5.59801L-63.5983 5.94502L-60.7403 1.57402L-60.7153 1.537L-60.7093 1.51903L-56.6853 -6.38799L-52.5983 -14.42L-48.9173 -17.804L-48.8193 -17.894L-48.8133 -17.96L-44.6803 -26.043L-45.2203 -26.459L-48.9113 -23.14L-49.0123 -23.05L-49.0183 -22.981L-53.1783 -14.808L-55.9393 -10.647L-55.9643 -10.61L-55.9783 -10.568ZM-31.5933 -45.132L-31.0983 -46.094L-32.0603 -45.599L-36.0833 -43.533L-36.1113 -44.324L-36.6693 -43.232L-36.7653 -43.182L-36.7613 -43.052L-41.0513 -34.662L-41.5573 -33.672L-40.5783 -34.198L-36.5313 -36.372L-36.5043 -35.601L-35.9443 -36.687L-35.8493 -36.739L-35.8543 -36.864L-31.5933 -45.132Z" fill="#1F0231" stroke="#D8CDE0" stroke-opacity="0.1" stroke-width="0.693723"/>
<path d="M124.061 41.181L124.083 40.49L93.0683 37.253L92.7784 37.223L92.6983 37.504L91.4073 42.048L91.2773 42.509L91.7553 42.489L124.061 41.181Z" fill="#D8CDE0" fill-opacity="0.1" stroke="#D8CDE0" stroke-opacity="0.1" stroke-width="0.693723"/>
<path d="M80.6879 57.747L80.7229 57.7L80.7289 57.68L87.6869 45.474L93.3109 37.804L93.3739 37.718L93.3779 37.612L93.5759 32.615L92.9139 32.457L87.0949 45.109L81.5909 52.615L81.5559 52.662L81.5499 52.681L74.6109 64.839L75.1919 65.216L80.6879 57.747ZM-55.3231 -10.343L-55.9601 -10.613L-60.1201 -2.42601L-59.5211 -2.07802L-56.7051 -6.35503L-56.6811 -6.39101L-56.6671 -6.43303L-55.3231 -10.343ZM-40.4341 -34.346L-40.9721 -34.765L-44.6251 -31.561L-44.7251 -31.473L-44.7331 -31.402L-48.9891 -23.04L-48.4481 -22.625L-44.7571 -25.943L-44.6591 -26.03L-44.6511 -26.098L-40.4341 -34.346Z" fill="#1F0231" stroke="#D8CDE0" stroke-opacity="0.1" stroke-width="0.693723"/>
<path d="M72.5359 69.4989L72.5439 69.488L72.5469 69.484L80.6939 57.7389L80.1299 57.336L74.6329 64.8049L74.6249 64.816L74.623 64.82L66.5159 76.5029L67.0799 76.906L72.5359 69.4989ZM-48.3711 -22.7251L-48.968 -23.076L-51.6941 -19.003L-51.718 -18.966L-51.7331 -18.925L-53.2061 -14.7481L-52.5691 -14.4751L-48.3711 -22.7251Z" fill="#1F0231" stroke="#D8CDE0" stroke-opacity="0.1" stroke-width="0.693723"/>
<path d="M122.51 71.438L123.192 71.541L127.027 57.291L127.046 57.2191L127.034 57.1461L124.39 40.7791L123.701 40.821L122.51 71.438Z" fill="#D8CDE0" fill-opacity="0.1" stroke="#D8CDE0" stroke-opacity="0.1" stroke-width="0.693723"/>
<path d="M86.296 50.126L86.332 50.077L86.338 50.057L93.333 37.77L92.751 37.393L87.115 45.08L87.08 45.129L87.074 45.148L80.107 57.37L80.688 57.747L86.296 50.126ZM-51.079 -18.694L-51.715 -18.967L-55.96 -10.613L-55.362 -10.264L-52.59 -14.441L-52.566 -14.477L-52.552 -14.517L-51.079 -18.694ZM-36.103 -42.817L-36.637 -43.238L-40.25 -40.153L-40.351 -40.067L-40.368 -39.936L-41.087 -34.55L-40.434 -34.346L-36.103 -42.817Z" fill="#1F0231" stroke="#D8CDE0" stroke-opacity="0.1" stroke-width="0.693723"/>
<path d="M124.1 41.178L124.033 40.488L91.727 41.796L91.541 41.804L91.444 41.962L89.012 45.963L88.625 46.599L89.36 46.487L124.1 41.178Z" fill="#D8CDE0" fill-opacity="0.1" stroke="#D8CDE0" stroke-opacity="0.1" stroke-width="0.693723"/>
<path d="M-39.6801 -39.844L-40.3331 -40.047L-44.7051 -31.457L-44.1671 -31.039L-40.5141 -34.243L-40.4161 -34.329L-40.3991 -34.458L-39.6801 -39.844ZM78.1029 61.941L78.1109 61.93L78.1139 61.925L86.3019 50.118L85.7379 49.715L80.1299 57.336L80.1209 57.347L80.1189 57.352L71.9709 69.096L72.5359 69.5L78.1029 61.941Z" fill="#1F0231" stroke="#D8CDE0" stroke-opacity="0.1" stroke-width="0.693723"/>
<path d="M-44.0869 -31.142L-44.6828 -31.494L-47.3598 -27.53L-47.3839 -27.494L-47.3918 -27.474L-51.7148 -18.967L-51.1169 -18.617L-48.3918 -22.69L-48.3679 -22.725L-48.3608 -22.744L-44.0869 -31.142ZM92.0201 42.348L92.0572 42.298L92.0742 42.238L93.3651 37.693L92.7302 37.427L85.7162 49.749L86.2971 50.126L92.0201 42.348Z" fill="#1F0231" stroke="#D8CDE0" stroke-opacity="0.1" stroke-width="0.693723"/>
<path d="M124.124 41.1729L123.995 40.4919L89.256 45.8009L89.15 45.8169L89.072 45.8889L85.447 49.2459L84.499 50.1229L85.759 49.8389L124.124 41.1729Z" fill="#D8CDE0" fill-opacity="0.1" stroke="#D8CDE0" stroke-opacity="0.1" stroke-width="0.693723"/>
<path d="M83.7863 54.2261L83.7953 54.214L83.7973 54.21L92.0263 42.341L91.4623 41.9371L85.7383 49.715L85.7293 49.727L85.7273 49.731L77.5393 61.538L78.1033 61.9411L83.7863 54.2261ZM-39.7147 -39.7319L-40.3107 -40.085L-42.9357 -36.236L-42.9597 -36.201L-42.9747 -36.16L-44.7207 -31.42L-44.0867 -31.142L-39.7147 -39.7319Z" fill="#1F0231" stroke="#D8CDE0" stroke-opacity="0.1" stroke-width="0.693723"/>
<path d="M-60.826 -67.014L-61.206 -67.588L-75.154 -60.568L-75.232 -60.529L-75.282 -60.458L-83.728 -48.5L-83.22 -48.035L-60.826 -67.014ZM122.522 71.361L123.177 71.583L125.97 64.796L125.986 64.755L125.992 64.712L127.035 57.249L126.357 57.111L122.522 71.361ZM124.135 41.17L123.971 40.496L85.606 49.162L85.56 49.172L85.519 49.194L80.651 51.796L80.902 52.437L124.135 41.17Z" fill="#D8CDE0" fill-opacity="0.1" stroke="#D8CDE0" stroke-opacity="0.1" stroke-width="0.693723"/>
<path d="M89.5872 46.3491L89.5962 46.3371L89.6042 46.3241L92.0372 42.3231L91.4562 41.9451L83.2212 53.8221L83.7862 54.2261L89.5872 46.3491Z" fill="#1F0231" stroke="#D8CDE0" stroke-opacity="0.1" stroke-width="0.693723"/>
<path d="M124.136 41.17L123.96 40.499H123.959L80.7281 51.766L80.7211 51.768L74.5741 53.493L74.5691 53.495L74.7511 54.164L74.7561 54.162L124.135 41.17H124.136ZM-42.7489 -35.709L-42.506 -35.636L-42.3629 -35.845L-39.7369 -39.694L-39.4399 -40.13L-39.9579 -40.23L-83.3779 -48.641L-83.5439 -47.968L-42.7489 -35.709Z" fill="#D8CDE0" fill-opacity="0.1" stroke="#D8CDE0" stroke-opacity="0.1" stroke-width="0.693723"/>
<path d="M93.7829 108.13L93.3009 107.637L86.4869 112.895L86.4299 112.815L86.1689 113.14L85.937 113.319L85.9789 113.377L80.2179 120.544L80.7019 121.034L87.5959 115.645L87.6509 115.722L87.9129 115.398L88.1429 115.218L88.1029 115.162L93.7829 108.13ZM-95.3581 -21.172L-96.002 -21.429L-99.9131 -12.799L-99.9271 -12.768L-99.9301 -12.752L-105.831 4.33305L-105.188 4.59004L-101.278 -3.99394L-101.264 -4.02495L-101.26 -4.04195L-95.3581 -21.172Z" fill="#1F0231" stroke="#D8CDE0" stroke-opacity="0.1" stroke-width="0.693723"/>
<path d="M99.7523 100.739L99.2723 100.245L92.2583 105.582L92.0283 105.757L92.1593 106.015L93.2043 108.069L93.4473 108.546L93.7833 108.13L99.7523 100.739Z" fill="#1F0231" stroke="#D8CDE0" stroke-opacity="0.1" stroke-width="0.693723"/>
<path d="M91.0293 87.6211L91.4733 88.127L123.017 71.7591L123.196 71.666L123.203 71.4641L124.394 40.8481L124.44 39.6641L123.763 40.636L91.0293 87.6211Z" fill="#D8CDE0" fill-opacity="0.1" stroke="#D8CDE0" stroke-opacity="0.1" stroke-width="0.693723"/>
<path d="M-97.2838 -12.764L-97.2689 -12.797L-97.2608 -12.8309L-95.3478 -21.208L-96.0139 -21.3979L-101.916 -4.26695L-105.819 4.30305L-105.849 4.36903L-105.85 4.44203L-105.986 14.2991L-105.3 14.378L-101.263 -4.02797L-97.2838 -12.764ZM92.7772 105.7L92.5341 105.222L92.1982 105.64L86.1432 113.172L86.6262 113.664L93.7252 108.186L93.9532 108.011L93.8221 107.754L92.7772 105.7ZM105.849 93.1911L105.371 92.696L98.4471 97.883L98.2441 98.035L98.3282 98.275L99.1552 100.636L99.3611 101.224L99.7522 100.739L105.849 93.1911Z" fill="#1F0231" stroke="#D8CDE0" stroke-opacity="0.1" stroke-width="0.693723"/>
<path d="M-87.2848 -38.989L-87.9287 -39.244L-92.0078 -30.242L-92.0228 -30.209L-92.0268 -30.193L-97.9268 -13.021L-97.2838 -12.764L-93.2018 -21.727L-93.1868 -21.76L-93.1827 -21.776L-87.2848 -38.989ZM86.6842 113.607L86.2693 113.074L77.0942 117.3L76.6342 117.512L76.9983 117.864L80.2473 121.01L80.5202 121.275L80.7592 120.978L86.6842 113.607ZM98.9822 98.046L98.7762 97.457L98.3853 97.943L92.1972 105.64L92.6783 106.134L99.6923 100.797L99.8932 100.645L99.8102 100.407L98.9822 98.046Z" fill="#1F0231" stroke="#D8CDE0" stroke-opacity="0.1" stroke-width="0.693723"/>
<path d="M91.002 87.972L91.261 88.501L91.598 88.018L124.332 41.033L124.871 40.259L123.959 40.499L74.574 53.493L74.165 53.601L74.351 53.981L91.002 87.972Z" fill="#D8CDE0" fill-opacity="0.1" stroke="#D8CDE0" stroke-opacity="0.1" stroke-width="0.693723"/>
<path d="M-97.261 -12.835L-97.915 -13.052L-101.91 -4.282L-101.941 -4.21397V-4.17598L-105.978 14.23L-105.324 14.449L-101.314 5.74901L-101.282 5.68001V5.64201L-97.261 -12.835ZM77.481 117.366L77.206 117.1L76.968 117.399L70.989 124.916L71.408 125.445L80.636 121.074L81.089 120.86L80.729 120.511L77.481 117.366ZM112.077 85.48L111.601 84.982L104.774 90.013L104.592 90.147L104.641 90.368L105.24 93.049L105.397 93.75L105.849 93.191L112.077 85.48ZM-83.116 -48.188L-83.761 -48.443L-87.929 -39.245L-87.944 -39.211L-87.952 -39.174L-89.685 -31.104L-89.017 -30.919L-83.116 -48.188Z" fill="#1F0231" stroke="#D8CDE0" stroke-opacity="0.1" stroke-width="0.693723"/>
<path d="M-89.0297 -30.887L-89.0137 -30.921L-89.0057 -30.958L-87.2737 -39.028L-87.9407 -39.214L-93.8457 -21.983L-93.2017 -21.727L-89.0297 -30.887ZM92.7383 106.075L92.3263 105.541L83.2113 109.614L82.7793 109.807L83.0923 110.16L86.1543 113.619L86.4263 113.927L86.6843 113.607L92.7383 106.075Z" fill="#1F0231" stroke="#D8CDE0" stroke-opacity="0.1" stroke-width="0.693723"/>
<path d="M111.208 81.996L111.65 82.529L118.375 77.663L118.414 77.635L118.444 77.597L123.129 71.666L122.618 71.199L111.208 81.996Z" fill="#D8CDE0" fill-opacity="0.1" stroke="#D8CDE0" stroke-opacity="0.1" stroke-width="0.693723"/>
<path d="M105.367 90.437L111.534 85.894L111.561 86.119L112.049 85.514L112.176 85.421L112.169 85.366L118.442 77.6L117.968 77.101L111.72 81.621L111.692 81.387L111.205 81.994L111.077 82.086L111.084 82.144L105.161 89.513L104.765 90.006L95.862 93.715L95.479 93.875L95.704 94.223L98.142 98.004L89.715 101.646L89.609 101.507L89.385 101.789L89.059 101.929L89.163 102.067L83.338 109.391L83.081 109.714L77.042 117.305L65.984 119.951L65.843 119.825L65.689 120.021L65.162 120.148L65.414 120.373L59.613 127.79L58.989 128.589L59.972 128.34L71.166 125.513L71.303 125.635L71.459 125.439L71.978 125.308L71.735 125.091L77.459 117.895L86.559 113.704L86.983 113.509L86.673 113.159L83.925 110.054L92.358 106.287L92.46 106.421L92.686 106.14L93.008 105.996L92.908 105.864L98.624 98.752L98.898 98.412L105.787 93.251L105.966 93.116L105.917 92.897L105.367 90.437ZM-97.947 -12.982V-12.945L-101.96 5.49303L-101.991 5.56102L-105.954 14.159L-106 14.259L-105.98 14.367L-103.926 25.385L-103.623 25.372L-103.272 25.469L-99.138 16.676L-99.09 16.573L-99.102 16.511L-97.19 -3.19798L-97.182 -3.21498L-93.023 -12.237L-92.99 -12.309L-92.991 -12.349L-89.014 -30.921L-84.764 -40.252L-84.748 -40.288L-84.74 -40.326L-83.105 -48.23L-83.773 -48.412L-89.668 -31.159L-93.833 -22.014L-93.866 -21.943L-97.915 -13.052L-97.947 -12.982Z" fill="#1F0231" stroke="#D8CDE0" stroke-opacity="0.1" stroke-width="0.693723"/>
<path d="M-84.7408 -40.3241L-85.3958 -40.5391L-89.6608 -31.1741L-89.6948 -31.1011L-89.6927 -31.0621L-93.6768 -12.4551L-93.0228 -12.2371L-88.7368 -21.5361L-88.7018 -21.6111L-88.7038 -21.6501L-84.7408 -40.3241ZM83.6233 110.147L84.2372 109.376L83.2762 109.592L71.9503 112.144L71.3302 112.283L71.7832 112.729L76.9962 117.862L77.2712 118.133L77.5112 117.831L83.6233 110.147ZM96.2872 93.8479L96.0252 93.4409L95.7242 93.8199L89.3312 101.857L89.7402 102.391L98.7932 98.4789L99.1682 98.3169L98.9463 97.9729L96.2872 93.8479Z" fill="#1F0231" stroke="#D8CDE0" stroke-opacity="0.1" stroke-width="0.693723"/>
<path d="M91.1543 87.5121L91.4063 88.1541L111.539 82.5821L111.622 82.5591L111.685 82.5001L123.095 71.7031L122.697 71.1431L91.1543 87.5121Z" fill="#D8CDE0" fill-opacity="0.1" stroke="#D8CDE0" stroke-opacity="0.1" stroke-width="0.693723"/>
<path d="M-92.993 -12.349L-93.6529 -12.527L-97.8439 -3.43401L-97.8929 -3.33003L-97.8799 -3.26903L-99.7919 16.436L-103.899 25.174L-103.961 25.306L-103.911 25.443L-99.4209 37.542L-98.7489 37.415L-99.1039 16.604L-94.9109 7.68398L-94.8609 7.57799L-94.8739 7.51598L-92.993 -12.349ZM72.2691 112.235L71.9921 111.962L71.7531 112.268L65.7101 119.996L52.701 120.897L51.9111 120.952L52.4871 121.495L59.6481 128.257L59.925 128.518L60.1601 128.218L66.0861 120.64L77.3201 117.953L77.9281 117.807L77.4831 117.368L72.2691 112.235ZM111.716 82.465L112.545 81.435L111.317 81.926L102.693 85.377L102.59 85.188L102.322 85.525L102.045 85.636L102.122 85.777L95.7241 93.82L96.1291 94.356L104.825 90.733L104.924 90.915L105.194 90.579L105.468 90.465L105.395 90.33L111.716 82.465ZM89.8741 102.289L90.4741 101.535L89.5311 101.733L78.2351 104.112L77.6381 104.238L78.0511 104.686L83.0971 110.166L83.3711 110.464L83.6231 110.147L89.8741 102.289ZM-84.3519 -31.049L-84.3159 -31.126L-84.3199 -31.21L-84.7339 -40.411L-85.4189 -40.468L-89.3909 -21.753L-88.7369 -21.536L-84.3519 -31.049Z" fill="#1F0231" stroke="#D8CDE0" stroke-opacity="0.1" stroke-width="0.693723"/>
<path d="M91.0332 88.023L91.6252 87.667L74.9742 53.676L74.8682 53.46L74.6292 53.483L67.1572 54.211L66.5542 54.269L66.9102 54.76L91.0332 88.023Z" fill="#D8CDE0" fill-opacity="0.1" stroke="#D8CDE0" stroke-opacity="0.1" stroke-width="0.693723"/>
<path d="M-88.7061 -21.65L-89.3661 -21.827L-93.6531 -12.527L-93.7021 -12.42L-93.6891 -12.36L-95.5641 7.44296L-99.7661 16.381L-99.8291 16.515L-99.7981 16.596L-99.4421 37.427L-98.7831 37.572L-94.5021 28.713L-94.4361 28.578L-94.4681 28.495L-94.8761 7.60995L-90.5861 -1.51703L-90.5351 -1.62503L-90.5491 -1.68704L-88.7061 -21.65ZM78.5619 104.216L78.2849 103.916L78.0329 104.238L71.7529 112.268L71.1539 113.034L72.1019 112.82L83.4279 110.269L84.0139 110.137L83.6069 109.696L78.5619 104.216ZM52.9629 120.991L52.6829 120.726L52.4499 121.032L46.4639 128.868L45.9899 129.488L46.7679 129.425L59.9149 128.35L60.6909 128.287L60.1249 127.752L52.9629 120.991ZM96.2669 94.251L96.8529 93.515L95.9289 93.695L84.6679 95.892L84.0919 96.004L84.4679 96.455L89.3359 102.295L89.6089 102.622L89.8739 102.289L96.2669 94.251Z" fill="#1F0231" stroke="#D8CDE0" stroke-opacity="0.1" stroke-width="0.693723"/>
<path d="M-83.1031 -48.359L-83.791 -48.325L-85.0131 -31.219L-85.0181 -31.146L-84.9931 -31.077L-76.9821 -8.892L-76.3141 -9.06799L-83.1031 -48.359ZM67.4709 54.352L67.373 54.217L67.2059 54.209L58.6779 53.828L57.8049 53.789L58.4139 54.416L91.0639 88.061L91.5939 87.616L67.4709 54.352Z" fill="#D8CDE0" fill-opacity="0.1" stroke="#D8CDE0" stroke-opacity="0.1" stroke-width="0.693723"/>
<path d="M72.2991 112.696L72.7711 112.092L72.0071 112.136L58.9881 112.868L58.8171 112.696L58.6721 112.886L58.0631 112.92L58.3921 113.253L52.4491 121.032L51.9841 121.642L52.7491 121.589L65.7531 120.688L65.9181 120.855L66.0661 120.666L66.6671 120.625L66.3491 120.304L72.2991 112.696ZM-84.3209 -31.164L-84.9819 -31.34L-89.3669 -21.827L-89.4169 -21.717L-89.4019 -21.656L-91.2399 -1.75696L-95.5379 7.38803L-95.6029 7.52502L-95.5699 7.60602L-95.1619 28.486L-99.4079 37.27L-99.4849 37.431L-99.3999 37.587L-92.4789 50.233L-91.8299 50.024L-94.4569 28.622L-90.1209 19.649L-90.0539 19.511L-90.0879 19.427L-90.5509 -1.58997L-86.1599 -10.931L-86.1079 -11.042L-86.1239 -11.105L-84.3209 -31.164ZM85.0001 96.011L84.7251 95.681L84.4611 96.019L78.0331 104.238L77.4471 104.987L78.3781 104.791L89.6741 102.412L90.2381 102.293L89.8691 101.851L85.0001 96.011Z" fill="#1F0231" stroke="#D8CDE0" stroke-opacity="0.1" stroke-width="0.693723"/>
<path d="M111.354 81.913L91.4189 87.43L58.9119 53.933L58.8319 53.85L58.7179 53.832L49.5189 52.337L48.2749 52.135L49.2399 52.945L91.0899 88.085L91.3049 87.855L91.3739 88.161L102.597 86.154L102.632 86.148L102.665 86.135L111.575 82.57L111.354 81.913ZM-43.2311 -20.089L-43.2561 -20.23L-43.3721 -20.312L-83.2441 -48.583L-83.7461 -48.128L-33.2551 40.313L-32.6121 40.081L-43.2311 -20.089Z" fill="#D8CDE0" fill-opacity="0.1" stroke="#D8CDE0" stroke-opacity="0.1" stroke-width="0.693723"/>
<path d="M53.0009 121.453L53.3909 120.942L52.7499 120.897L38.5049 119.888L38.3129 119.686L38.1809 119.865L37.4799 119.816L37.8939 120.252L32.1339 128.016L31.7519 128.531L32.3919 128.569L46.5819 129.417L46.7679 129.613L46.9029 129.436L47.5949 129.477L47.1939 129.055L53.0009 121.453ZM102.808 86.029L103.38 85.31L102.475 85.472L91.4619 87.441L91.3189 87.25L91.1219 87.501L90.6969 87.577L90.8759 87.816L84.4609 96.019L83.8879 96.751L84.7999 96.573L95.8489 94.418L95.9879 94.602L96.1869 94.352L96.6059 94.27L96.4339 94.041L102.808 86.029ZM78.5799 104.665L79.0429 104.073L78.2919 104.105L65.2679 104.661L65.0969 104.476L64.9449 104.675L64.3589 104.7L64.6689 105.035L58.5749 113.013L58.1179 113.612L58.8699 113.57L71.8819 112.837L72.0479 113.017L72.2019 112.819L72.7799 112.787L72.4809 112.463L78.5799 104.665ZM-87.4141 41.331L-87.3321 41.166L-87.3891 41.065L-90.0761 19.557L-85.6361 10.37L-85.5691 10.23L-85.6041 10.146L-86.1261 -11.005L-81.6311 -20.567L-81.5771 -20.681L-81.6091 -20.802L-84.3311 -31.282L-85.0121 -31.226L-86.8141 -11.171L-91.2141 -1.812L-91.2791 -1.67299L-91.2451 -1.59099L-90.7821 19.422L-95.1261 28.412L-95.2051 28.575L-95.1501 28.673L-92.5191 50.108L-92.3791 51.249L-91.8641 50.221L-87.4141 41.331Z" fill="#1F0231" stroke="#D8CDE0" stroke-opacity="0.1" stroke-width="0.693723"/>
<path d="M49.6859 52.414L49.627 52.3639L49.5519 52.3439L39.8519 49.7789L39.5589 50.394L91.1089 88.099L91.5359 87.5539L49.6859 52.414ZM-40.8551 -13.339L-40.8591 -13.371L-40.8701 -13.401L-43.2461 -20.144L-43.9141 -19.9691L-33.2961 40.194L-33.2951 40.2009L-32.61 40.088L-32.6121 40.0809L-40.8551 -13.339Z" fill="#D8CDE0" fill-opacity="0.1" stroke="#D8CDE0" stroke-opacity="0.1" stroke-width="0.693723"/>
<path d="M-87.3851 41.102L-87.5931 40.139L-88.0351 41.02L-92.4851 49.911L-92.5791 50.099L-92.4561 50.269L-83.3761 62.823L-82.7561 62.546L-87.3851 41.102ZM59.1269 113.434L59.5119 112.93L58.8799 112.878L44.4489 111.69L43.5769 111.618L44.1629 112.268L52.4679 121.475L52.7469 121.785L53.0009 121.453L59.1269 113.434Z" fill="#1F0231" stroke="#D8CDE0" stroke-opacity="0.1" stroke-width="0.693723"/>
<path d="M39.9681 49.834L39.9281 49.805L39.8801 49.788L29.8691 46.214L29.5591 46.829L91.1201 88.108L91.5181 87.54L39.9681 49.834Z" fill="#D8CDE0" fill-opacity="0.1" stroke="#D8CDE0" stroke-opacity="0.1" stroke-width="0.693723"/>
<path d="M85.0068 96.446L85.4618 95.865L84.7238 95.886L71.5328 96.262L70.8038 96.282L71.2808 96.835L78.0438 104.678L78.3198 104.998L78.5798 104.665L85.0068 96.446ZM44.6778 111.804L44.3938 111.489L44.1418 111.829L38.0668 120.018L37.6908 120.526L38.3208 120.571L52.7008 121.589L53.5588 121.65L52.9828 121.01L44.6778 111.804ZM-82.8582 32.228L-82.7752 32.061L-82.8332 31.96L-85.6052 10.176L-85.7522 9.01599L-86.2612 10.069L-90.7452 19.347L-90.8252 19.512L-90.7682 19.611L-88.0692 41.218L-87.9272 42.354L-87.4142 41.331L-82.8582 32.228Z" fill="#1F0231" stroke="#D8CDE0" stroke-opacity="0.1" stroke-width="0.693723"/>
<path d="M29.945 46.252L29.92 46.236L29.893 46.223L19.77 41.72L19.443 42.33L91.12 88.108L91.127 88.112L91.507 87.531L91.5 87.527L29.945 46.252ZM-36.954 -5.94501L-36.96 -6.013L-36.992 -6.07401L-40.891 -13.448L-41.54 -13.233L-33.296 40.194L-32.608 40.109L-36.954 -5.94501Z" fill="#D8CDE0" fill-opacity="0.1" stroke="#D8CDE0" stroke-opacity="0.1" stroke-width="0.693723"/>
<path d="M-81.0448 0.870972L-80.9758 0.726959L-81.0388 0.58197L-86.1558 -11.217L-86.8208 -11.07L-86.2948 10.228L-85.6358 10.37L-81.0448 0.870972ZM71.8062 96.382L71.5272 96.058L71.2682 96.398L64.8462 104.804L64.3972 105.392L65.1372 105.361L78.3212 104.798L79.0372 104.767L78.5692 104.225L71.8062 96.382ZM38.6242 120.431L38.9532 119.988L38.4112 119.884L23.1132 116.947L22.1392 116.76L22.7842 117.514L32.1492 128.448L32.4322 128.778L32.6912 128.429L38.6242 120.431Z" fill="#1F0231" stroke="#D8CDE0" stroke-opacity="0.1" stroke-width="0.693723"/>
<path d="M19.8159 41.745L19.804 41.738L19.7919 41.731L9.76593 36.395L9.41895 36.996L91.127 88.112L91.1289 88.114L91.4999 87.527L91.4969 87.525L19.8159 41.745Z" fill="#D8CDE0" fill-opacity="0.1" stroke="#D8CDE0" stroke-opacity="0.1" stroke-width="0.693723"/>
<path d="M23.311 117.062L23.023 116.726L22.766 117.086L16.921 125.243L16.603 125.688L17.141 125.786L32.351 128.564L33.312 128.739L32.676 127.997L23.311 117.062Z" fill="#1F0231" stroke="#D8CDE0" stroke-opacity="0.1" stroke-width="0.693723"/>
<path d="M9.7872 36.408L9.78622 36.407L0.0682068 30.351L0.0672302 30.35H0.0662231L-0.300781 30.938V30.939L91.1302 88.114L91.3142 87.82L91.4982 87.526L91.4972 87.525L91.4932 87.523L9.7872 36.408Z" fill="#D8CDE0" fill-opacity="0.1" stroke="#D8CDE0" stroke-opacity="0.1" stroke-width="0.693723"/>
<path d="M-78.1549 53.891L-78.0549 53.699L-78.1389 53.585L-82.8299 32L-83.0379 31.038L-83.4789 31.918L-88.0349 41.02L-88.1299 41.21L-88.0479 41.322L-83.4339 62.693L-83.2309 63.632L-82.7869 62.78L-78.1549 53.891ZM65.3981 105.225L65.7771 104.728L65.1551 104.669L50.6741 103.304L49.8201 103.224L50.3781 103.875L58.5881 113.449L58.8671 113.775L59.1271 113.434L65.3981 105.225ZM91.5871 88.033L92.0331 87.463L91.3091 87.473L78.1151 87.652L77.4041 87.661L77.8501 88.216L84.4631 96.45L84.7371 96.791L85.0071 96.447L91.5871 88.033Z" fill="#1F0231" stroke="#D8CDE0" stroke-opacity="0.1" stroke-width="0.693723"/>
<path d="M50.9052 103.424L50.6222 103.094L50.3632 103.443L44.1422 111.829L43.7702 112.33L44.3922 112.382L58.8232 113.569L59.6642 113.638L59.1142 112.998L50.9052 103.424ZM-78.1298 53.63L-78.3768 52.817L-78.7698 53.57L-83.4028 62.459L-83.5138 62.673L-83.3518 62.852L-72.3208 75.038L-71.7318 74.704L-78.1298 53.63ZM-78.1928 22.907L-78.1078 22.738L-78.1678 22.636L-81.0128 0.675018L-81.1628 -0.47998L-81.6698 0.569031L-86.2608 10.069L-86.3418 10.236L-86.2838 10.335L-83.5118 32.117L-83.3688 33.248L-82.8578 32.228L-78.1928 22.907Z" fill="#1F0231" stroke="#D8CDE0" stroke-opacity="0.1" stroke-width="0.693723"/>
<path d="M-76.3428 -8.85803L-76.2728 -9.00403L-76.3388 -9.15204L-81.6288 -20.858L-82.2908 -20.706L-81.7038 0.728973L-81.0448 0.870972L-76.3428 -8.85803ZM78.3912 87.781L78.1132 87.436L77.8442 87.788L71.2682 96.398L70.8262 96.976L71.5532 96.955L84.7442 96.579L85.4412 96.56L85.0042 96.015L78.3912 87.781ZM44.6992 112.242L45.0242 111.804L44.4892 111.696L29.2232 108.618L29.0142 108.365L28.8822 108.549L28.1442 108.4L28.5962 108.948L22.9102 116.884L7.37918 112.192L7.15619 111.904L7.03119 112.087L6.23419 111.846L6.74319 112.504L1.16418 120.605L0.893188 121L1.35217 121.135L16.9982 125.746L17.2142 126.026L17.3422 125.847L18.1352 126.081L17.6362 125.437L23.2002 117.67L38.1582 120.542L38.3602 120.787L38.4942 120.606L39.2262 120.747L38.7862 120.213L44.6992 112.242ZM-73.4098 44.787L-73.3088 44.593L-73.4408 44.418L-82.8908 31.865L-83.5078 32.147L-78.8008 53.804L-78.5978 54.741L-78.1548 53.891L-73.4098 44.787Z" fill="#1F0231" stroke="#D8CDE0" stroke-opacity="0.1" stroke-width="0.693723"/>
<path d="M-59.0252 86.2171L-66.8582 65.9761L-66.8162 65.899L-66.9302 65.7751L-73.3822 44.5391L-78.1382 22.7981L-73.4132 13.3591L-73.3272 13.1871L-73.4282 13.0231L-81.0612 0.539062L-81.7012 0.764069L-78.8602 22.6911L-83.4792 31.9181L-83.5752 32.11L-83.4462 32.2821L-74.1272 44.6611L-78.7702 53.5701L-78.8822 53.7861L-78.7712 53.9071L-72.4382 74.7671L-72.4992 74.8791L-72.3682 74.998L-72.1552 75.6981L-71.9702 75.3581L-59.5812 86.5991L-59.0252 86.2171ZM71.8188 96.8191L72.1928 96.3291L71.5798 96.2631L57.1938 94.7281L57.0018 94.4931L56.8548 94.692L56.2138 94.6241L56.5758 95.0681L50.3628 103.443L49.9958 103.937L50.6088 103.995L64.9448 105.346L65.1308 105.574L65.2808 105.378L65.9138 105.437L65.5638 105.007L71.8188 96.8191Z" fill="#1F0231" stroke="#D8CDE0" stroke-opacity="0.1" stroke-width="0.693723"/>
<path d="M-9.12915 24.274L-8.75116 24.016L-9.10214 23.722L-17.5981 16.6L-17.8982 16.349L-18.1111 16.677L-33.2441 39.952L-32.7581 40.428L-9.12915 24.274ZM63.5648 85.907L63.5049 86.598L78.0789 88.343L78.1018 88.346L78.1248 88.345L91.3178 88.166L91.3329 87.473L63.5648 85.907Z" fill="#D8CDE0" fill-opacity="0.1" stroke="#D8CDE0" stroke-opacity="0.1" stroke-width="0.693723"/>
<path d="M-54.0418 77.342L-54.2958 76.8L-54.4148 77.008L-67.0068 65.693L-67.5628 66.076L-59.7308 86.314L-59.8008 86.435L-59.6358 86.56L-59.4078 87.147L-59.2418 86.856L-45.4758 97.232L-44.9528 96.808L-53.9358 77.569L-53.8868 77.482L-54.0418 77.342ZM12.8952 103.571L12.1142 103.329L12.6092 103.986L6.88721 112.295L6.61823 112.686L7.07321 112.824L22.8392 117.587L23.0552 117.874L23.1852 117.692L23.9622 117.927L23.4782 117.283L29.3162 109.135L29.5962 108.744L29.1362 108.602L13.2462 103.679L13.0242 103.384L12.8952 103.571ZM-68.5488 35.461L-68.4468 35.265L-68.5818 35.089L-78.2278 22.541L-78.8418 22.826L-74.0568 44.701L-73.8518 45.636L-73.4098 44.787L-68.5488 35.461Z" fill="#1F0231" stroke="#D8CDE0" stroke-opacity="0.1" stroke-width="0.693723"/>
<path d="M-0.0209351 30.977L0.662048 30.78L0.0860596 30.363L-9.12094 23.707L-9.31894 23.564L-9.51993 23.702L-33.1489 39.855L-32.8569 40.474L-0.0209351 30.977Z" fill="#D8CDE0" fill-opacity="0.1" stroke="#D8CDE0" stroke-opacity="0.1" stroke-width="0.693723"/>
<path d="M-61.9911 57.046L-61.8722 56.827L-62.0421 56.644L-73.4641 44.39L-74.0501 44.728L-67.5711 66.052L-67.3301 66.844L-66.9341 66.117L-61.9911 57.046ZM-24.4832 97.616L-24.7762 97.144L-25.0711 97.614L-30.1591 105.698L-39.7462 88.091L-40.0362 87.558L-40.3481 88.078L-45.5641 96.777L-45.7392 97.069L-45.4511 97.249L-30.6591 106.494L-30.6761 106.52L-30.3512 106.686L-29.2441 107.378L-29.3401 107.202L-14.6331 114.707L-13.5241 115.273L-14.1812 114.215L-24.4832 97.616ZM-73.3852 13.129L-73.5952 12.173L-74.0341 13.048L-78.8131 22.597L-78.9102 22.791L-78.7781 22.963L-69.1321 35.512L-68.5182 35.226L-73.3852 13.129ZM78.3958 88.209L78.7649 87.726L78.1618 87.654L63.5869 85.909L62.7658 85.811L63.2719 86.466L71.2689 96.82L71.5449 97.178L71.8188 96.819L78.3958 88.209Z" fill="#1F0231" stroke="#D8CDE0" stroke-opacity="0.1" stroke-width="0.693723"/>
<path d="M0.0670166 30.3501L-0.0650024 30.2681L-0.213013 30.3111L-33.049 39.808L-34.042 40.0951L-33.077 40.4651L91.189 88.1431L91.497 87.5251L0.0670166 30.3501Z" fill="#D8CDE0" fill-opacity="0.1" stroke="#D8CDE0" stroke-opacity="0.1" stroke-width="0.693723"/>
<path d="M7.59296 112.493L13.177 104.384L28.821 109.231L29.036 109.525L29.17 109.339L29.931 109.575L29.462 108.931L35.316 100.76L50.444 103.962L50.646 104.226L50.788 104.035L51.484 104.182L51.076 103.647L57.175 95.424L71.507 96.953L72.315 97.039L71.818 96.396L63.82 86.042L63.54 85.679L63.267 86.047L56.87 94.671L41.65 91.29L41.443 91.018L41.303 91.213L40.6 91.057L41.02 91.608L35.031 99.967L19.258 94.956L19.037 94.652L18.905 94.843L18.14 94.6L18.62 95.258L12.909 103.55L-2.96204 96.999L-3.19504 96.657L-3.32202 96.85L-4.13004 96.517L-3.60803 97.283L-8.89001 105.296L-18.945 88.82L-19.236 88.342L-19.534 88.816L-24.754 97.11L-34.399 79.178L-34.689 78.641L-35.002 79.164L-40.011 87.517L-48.791 68.563L-48.741 68.475L-48.897 68.336L-49.149 67.791L-49.27 68.003L-61.86 56.805L-56.926 47.751L-56.806 47.53L-56.979 47.346L-68.435 35.242L-63.568 25.903L-63.465 25.705L-63.554 25.591L-68.461 3.46503L-68.429 3.40002L-68.501 3.28604L-68.699 2.39102L-68.861 2.71402L-76.362 -9.19397L-76.999 -8.96396L-74.081 13.144L-74.132 13.245L-74.055 13.343L-73.92 14.37L-73.852 14.235L-69.223 35.252L-74.025 44.467L-74.139 44.684L-73.972 44.864L-62.72 56.934L-67.544 65.785L-67.675 66.026L-67.471 66.209L-54.767 77.624L-54.78 77.647L-54.615 77.771L-54.388 78.359L-54.358 78.307L-45.581 97.102L-45.305 97.693L-44.969 97.133L-40.065 88.955L-30.485 106.55L-30.202 107.07L-29.887 106.569L-24.78 98.453L-14.77 114.581L-14.484 115.042L-14.186 114.589L-8.78302 106.394L-7.96402 106.815L-8.05704 106.662L6.94498 112.774L7.17096 113.106L7.29996 112.918L8.10696 113.247L7.59296 112.493Z" fill="#1F0231" stroke="#D8CDE0" stroke-opacity="0.1" stroke-width="0.693723"/>
<path d="M-76.3732 -9.21094L-76.9492 -8.82394L-69.1202 3.60507L-69.1092 3.62207L-69.0972 3.63705L-59.0402 16.1631L-58.4882 15.744L-76.3732 -9.21094ZM31.5828 76.7921L31.4268 77.4671L63.4508 86.5881L63.4878 86.5981L63.5258 86.6001L91.2938 88.166L91.3748 87.4781L31.5828 76.7921Z" fill="#D8CDE0" fill-opacity="0.1" stroke="#D8CDE0" stroke-opacity="0.1" stroke-width="0.693723"/>
<path d="M13.4552 103.981L19.1852 95.66L34.9502 100.669L35.1652 100.971L35.3012 100.78L36.0472 101.017L35.5922 100.375L41.6002 91.99L56.8122 95.368L57.0132 95.643L57.1592 95.445L57.8392 95.596L57.4462 95.059L63.8242 86.461L64.1392 86.036L63.6252 85.916L48.0982 82.3L47.8912 82.017L47.7482 82.218L47.0622 82.058L47.4662 82.61L41.3172 91.193L25.4222 86.013L25.2012 85.701L25.0662 85.897L24.3172 85.652L24.7822 86.31L18.9192 94.823L2.89517 88.12L2.66318 87.772L2.53317 87.969L1.74017 87.637L2.2482 88.401L-3.17581 96.629L-13.2678 79.803L-13.5578 79.319L-13.8588 79.796L-19.2158 88.309L-28.9188 70.042L-29.2068 69.5L-29.5228 70.026L-34.6638 78.6L-43.5178 59.332L-43.4658 59.242L-43.6228 59.103L-43.8738 58.557L-43.9968 58.774L-56.7938 47.508L-51.7338 38.222L-51.6118 37.999L-51.7878 37.815L-63.4528 25.682L-58.4618 16.106L-58.3578 15.905L-58.4988 15.729L-68.5558 3.203L-69.1648 3.495L-64.2418 25.695L-69.1648 35.14L-69.2788 35.36L-69.1088 35.539L-57.6558 47.64L-62.6008 56.715L-62.7328 56.957L-62.5268 57.14L-49.6218 68.619L-49.6348 68.641L-49.4688 68.765L-49.2428 69.354L-49.2138 69.302L-40.3648 88.403L-40.0898 88.997L-39.7528 88.435L-34.7208 80.044L-25.0828 97.963L-24.8008 98.487L-24.4838 97.984L-19.2458 89.659L-9.19781 106.124L-8.91281 106.591L-8.61182 106.135L-3.07181 97.731L-2.26581 98.147L-2.35382 98.001L12.8062 104.258L13.0312 104.596L13.1632 104.405L13.9552 104.732L13.4552 103.981Z" fill="#1F0231" stroke="#D8CDE0" stroke-opacity="0.1" stroke-width="0.693723"/>
<path d="M91.438 87.496L-32.75 39.848L-76.396 -9.23999L-76.937 -8.80701L-59.052 16.148L-59.032 16.175L-59.007 16.199L-33.19 40.394L-33.028 40.236L-33.126 40.442L31.35 77.435L31.402 77.465L31.461 77.475L91.252 88.161L91.438 87.496Z" fill="#D8CDE0" fill-opacity="0.1" stroke="#D8CDE0" stroke-opacity="0.1" stroke-width="0.693723"/>
<path d="M2.54718 87.948L-13.3928 79.679L-29.0288 69.917L-43.6188 59.097L-51.7098 37.943L-58.4378 15.844L-58.6848 15.033L-59.0768 15.785L-64.1828 25.583L-64.2988 25.804L-64.1258 25.983L-52.4638 38.113L-57.5348 47.419L-57.6678 47.662L-57.4598 47.845L-44.1918 59.527L-35.0198 79.487L-34.7458 80.085L-34.4068 79.521L-29.2428 70.909L-19.5468 89.163L-19.2658 89.692L-18.9468 89.185L-13.5718 80.643L-3.48782 97.458L-3.20383 97.931L-2.90082 97.471L2.79617 88.83L18.8132 95.53L19.0372 95.875L19.1712 95.68L19.9492 96.006L19.4622 95.257L25.4912 86.503L25.7322 86.153L25.3412 85.987L8.90118 79.016L8.6702 78.661L8.53717 78.862L7.75818 78.531L8.25317 79.293L2.54718 87.948Z" fill="#1F0231" stroke="#D8CDE0" stroke-opacity="0.1" stroke-width="0.693723"/>
<path d="M31.6171 76.8L31.4121 77.4631L47.7851 82.9371L47.8001 82.942L47.8161 82.946L63.4671 86.5921L63.6411 85.92L31.6171 76.8Z" fill="#D8CDE0" fill-opacity="0.1" stroke="#D8CDE0" stroke-opacity="0.1" stroke-width="0.693723"/>
<path d="M-23.7071 60.328L-38.2121 49.631L-46.3321 28.31L-46.2861 28.225L-46.4151 28.094L-46.6571 27.457L-46.7931 27.706L-58.5221 15.703L-59.1011 16.047L-52.412 38.017L-52.4761 38.134L-52.3411 38.252L-52.1291 38.948L-52.093 38.882L-44.2901 59.285L-44.3611 59.41L-44.1951 59.533L-43.9691 60.123L-43.8 59.826L-29.6841 70.296L-29.6981 70.318L-29.4971 70.443L-29.2671 70.949L-29.1091 70.685L-14.0441 80.091L-14.0591 80.115L-13.821 80.239L-13.5921 80.676L-13.455 80.458L-12.6641 80.952L-12.7451 80.797L2.41595 88.661L2.64795 89.055L2.78195 88.851L3.57593 89.263L3.07294 88.41L8.95694 79.485L9.16895 79.164L8.82794 78.986L-7.49606 70.47L-7.73505 70.065L-7.85406 70.255L-23.3421 60.589L-23.5851 60.125L-23.7071 60.328ZM31.3849 76.722L30.6499 76.476L31.101 77.133L24.92 86.11L24.6559 86.492L25.0979 86.636L41.2319 91.894L41.4449 92.205L41.5859 92.009L42.3159 92.248L41.8749 91.605L48.1769 82.81L48.45 82.428L48.0049 82.279L31.7419 76.841L31.5229 76.521L31.3849 76.722Z" fill="#1F0231" stroke="#D8CDE0" stroke-opacity="0.1" stroke-width="0.693723"/>
<path d="M14.7079 69.502L-1.52408 60.984L-1.76108 60.573L-1.89709 60.788L-2.67508 60.38L-2.17908 61.237L-7.71509 70.034L-17.4441 51.234L-17.3811 51.129L-17.5701 50.99L-17.8191 50.51L-17.9431 50.717L-32.6751 39.915L-32.9171 39.379L-33.0461 39.604L-46.4871 28.022L-47.0381 28.408L-38.8821 49.82L-38.9541 49.946L-38.7871 50.068L-38.5621 50.659L-38.3921 50.36L-24.0651 60.926L-24.0781 60.948L-23.8781 61.072L-23.6491 61.58L-23.5041 61.339L-22.7431 61.901L-22.8181 61.734L-8.22308 70.842L-8.2381 70.865L-7.91708 71.033L-6.8551 71.696L-6.9321 71.547L8.1669 79.424L8.1489 79.451L8.4249 79.568L8.64792 79.953L8.78491 79.746L9.56592 80.154L9.48691 80.018L24.9699 86.584L25.1929 86.935L25.3299 86.737L26.0949 87.061L25.6209 86.314L31.8079 77.33L32.0479 76.982L31.6589 76.815L15.0599 69.678L14.8299 69.316L14.7079 69.502Z" fill="#1F0231" stroke="#D8CDE0" stroke-opacity="0.1" stroke-width="0.693723"/>
<path d="M-32.78 39.8411L-33.147 40.429L-1.96796 61.5321L-1.94696 61.5461L-1.92896 61.5551L14.664 70.2621L14.676 70.2681L14.688 70.2731L31.385 77.4531L31.483 77.2371L31.695 76.8331L-32.78 39.8411Z" fill="#D8CDE0" fill-opacity="0.1" stroke="#D8CDE0" stroke-opacity="0.1" stroke-width="0.693723"/>
</svg>
