<svg width="64" height="64" viewBox="0 0 64 64" fill="none" xmlns="http://www.w3.org/2000/svg">
<g clip-path="url(#clip0_1_11203)">
<path d="M35.0907 3.31886L42.3091 17.9451C42.811 18.9624 43.7816 19.6673 44.9043 19.8302L61.0458 22.1758C63.8733 22.5869 65.0014 26.0606 62.9562 28.0538L51.2763 39.4387C50.4646 40.2303 50.0934 41.3718 50.2857 42.4892L53.0425 58.5653C53.5257 61.3808 50.57 63.5275 48.0415 62.1991L33.6048 54.6096C32.6009 54.0823 31.4007 54.0823 30.3968 54.6096L15.9601 62.1991C13.4316 63.5288 10.4759 61.3808 10.9592 58.5653L13.716 42.4892C13.9082 41.3718 13.5371 40.2303 12.7254 39.4387L1.04547 28.0538C-0.999753 26.0593 0.128323 22.5856 2.95586 22.1758L19.0974 19.8302C20.2201 19.6673 21.1907 18.9624 21.6926 17.9451L28.911 3.31886C30.1739 0.756994 33.8265 0.756994 35.0907 3.31886Z" fill="#FA9706"/>
</g>
<defs>
<clipPath id="clip0_1_11203">
<rect width="64" height="64" fill="white"/>
</clipPath>
</defs>
</svg>
